<svg width="4000" height="2500" viewBox="0 0 4000 2500" fill="none" xmlns="http://www.w3.org/2000/svg">
<g clip-path="url(#clip0)">
<rect width="4000" height="2499.77" fill="white"/>
<path d="M3235.02 641.678C3251.59 506.732 3327.71 244.248 3361.74 142.544C3476.64 -200.86 3516.56 -199.755 3516.56 -199.755" stroke="black" stroke-width="10"/>
<path d="M3316.19 605.943C3319.43 596.263 3317.7 587.892 3312.79 581.094C3307.84 574.236 3299.57 568.886 3289.63 565.558C3279.68 562.23 3270.24 561.656 3262.55 564.258C3254.92 566.836 3248.83 572.589 3245.58 582.317C3242.37 591.907 3245.05 605.695 3251.23 618.094C3257.41 630.494 3266.81 640.932 3276.4 644.141C3285.72 647.258 3293.85 643.039 3300.7 635.159C3307.55 627.27 3312.83 615.996 3316.19 605.943Z" fill="black" stroke="black" stroke-width="3"/>
<path d="M3372.85 436.591C3376.58 425.464 3374.27 415.685 3368.03 407.622C3361.75 399.498 3351.43 393.066 3339.14 388.952C3326.84 384.837 3315.2 383.922 3305.77 386.765C3296.41 389.584 3289.09 396.135 3285.35 407.312C3281.65 418.353 3285.29 434.4 3293.17 448.92C3301.04 463.417 3312.85 475.824 3324.81 479.825C3336.51 483.741 3346.47 478.931 3354.63 470C3362.83 461.037 3368.99 448.126 3372.85 436.591Z" fill="black" stroke="black" stroke-width="3"/>
<path d="M3392.81 288.937C3384.2 279.368 3373.48 276.384 3362.18 278.16C3350.81 279.947 3338.81 286.579 3327.95 296.362C3317.08 306.145 3309.64 317.012 3307.07 327.751C3304.52 338.408 3306.72 349.054 3315.37 358.664C3319.63 363.388 3326.11 367.03 3333.9 369.497C3341.68 371.96 3350.66 373.221 3359.8 373.255C3378.14 373.323 3396.73 368.453 3407.34 358.902C3417.75 349.526 3418.7 337.192 3414.69 324.481C3410.68 311.719 3401.73 298.836 3392.81 288.937Z" fill="black" stroke="black" stroke-width="3"/>
<path d="M3315.68 264.144C3314.56 251.317 3307.79 242.48 3297.7 237.101C3287.54 231.685 3273.97 229.761 3259.41 231.035C3244.84 232.31 3232.36 236.513 3223.85 243.541C3215.39 250.516 3210.75 260.344 3211.87 273.226C3212.43 279.559 3215.41 286.367 3220.15 293.027C3224.88 299.674 3231.29 306.086 3238.57 311.612C3253.18 322.707 3270.96 330.006 3285.18 328.762C3299.14 327.541 3307.31 318.258 3311.76 305.698C3316.24 293.089 3316.84 277.415 3315.68 264.144Z" fill="black" stroke="black" stroke-width="3"/>
<path d="M3360.63 173.512C3348.96 182.146 3344.49 193.92 3345.32 206.878C3346.16 219.914 3352.39 234.189 3362.26 247.532C3372.14 260.876 3383.6 270.502 3395.43 274.63C3407.18 278.73 3419.41 277.45 3431.13 268.783C3436.9 264.514 3441.66 257.613 3445.24 249.118C3448.81 240.638 3451.15 230.666 3452.13 220.385C3454.09 199.751 3450.54 178.242 3440.87 165.176C3431.36 152.317 3417.53 149.861 3402.82 152.923C3388.05 155.997 3372.66 164.609 3360.63 173.512Z" fill="black" stroke="black" stroke-width="3"/>
<path d="M3331.26 130.743C3324.23 118.047 3313.14 112.075 3300.18 111.211C3287.15 110.342 3272.18 114.654 3257.66 122.702C3243.14 130.749 3232.1 140.852 3226.47 152.046C3220.87 163.165 3220.54 175.458 3227.61 188.201C3231.08 194.478 3237.3 200.105 3245.26 204.76C3253.2 209.406 3262.78 213.029 3272.85 215.341C3293.05 219.982 3314.84 219.269 3329.05 211.389C3343.04 203.634 3347.28 190.239 3346.17 175.257C3345.05 160.219 3338.52 143.833 3331.26 130.743Z" fill="black" stroke="black" stroke-width="3"/>
<path d="M3499.78 52.6198C3491.87 38.3459 3479.63 31.5162 3465.48 30.3437C3451.25 29.1648 3435.01 33.7101 3419.34 42.4004C3403.66 51.0908 3391.79 62.1244 3385.82 74.4727C3379.89 86.7478 3379.73 100.444 3387.67 114.765C3395.54 128.959 3415.37 140.218 3437.49 145.706C3459.57 151.188 3483.31 150.755 3498.67 142.237C3513.81 133.849 3518.23 119.018 3516.76 102.322C3515.29 85.5831 3507.9 67.271 3499.78 52.6198Z" fill="black" stroke="black" stroke-width="3"/>
<path d="M3369.28 3.2377C3361.37 -11.0362 3349.13 -17.8659 3334.98 -19.0384C3320.75 -20.2173 3304.51 -15.672 3288.84 -6.98163C3273.16 1.70873 3261.29 12.7423 3255.32 25.0907C3249.39 37.3657 3249.23 51.0615 3257.17 65.3825C3265.04 79.5772 3284.87 90.8357 3306.99 96.3243C3329.08 101.806 3352.81 101.373 3368.18 92.8552C3383.31 84.4668 3387.73 69.6358 3386.26 52.9399C3384.79 36.2011 3377.4 17.8889 3369.28 3.2377Z" fill="black" stroke="black" stroke-width="3"/>
<path d="M3280.08 354.342C3276.16 343.282 3268.32 336.998 3258.45 334.482C3248.49 331.947 3236.4 333.231 3224.18 337.559C3211.96 341.888 3202.22 348.333 3196.54 356.382C3190.9 364.364 3189.16 374.033 3193.1 385.144C3196.98 396.119 3209.73 406.527 3224.88 413.115C3240.01 419.692 3256.95 422.201 3268.84 417.992C3280.47 413.872 3285.35 403.952 3286.29 391.886C3287.23 379.778 3284.14 365.808 3280.08 354.342Z" fill="black" stroke="black" stroke-width="3"/>
<path d="M3195.88 491.729C3200.11 501.018 3207.08 505.963 3215.31 507.587C3223.61 509.225 3233.31 507.5 3242.85 503.15C3252.39 498.801 3259.69 492.784 3263.54 485.633C3267.36 478.545 3267.89 470.187 3263.64 460.852C3259.44 451.65 3248.08 443.394 3235.1 438.542C3222.12 433.689 3208.13 432.465 3198.93 436.659C3189.99 440.733 3186.92 449.364 3187.29 459.797C3187.65 470.241 3191.48 482.083 3195.88 491.729Z" fill="black" stroke="black" stroke-width="3"/>
<path d="M3333.95 507.801C3332.26 497.733 3326.81 491.152 3319.28 487.454C3311.69 483.724 3301.88 482.881 3291.53 484.612C3281.19 486.343 3272.59 490.267 3267.01 496.177C3261.49 502.035 3258.82 509.972 3260.51 520.09C3262.18 530.063 3271.02 540.979 3282.3 549.025C3293.58 557.071 3306.77 561.874 3316.75 560.205C3326.44 558.584 3331.64 551.042 3333.98 540.869C3336.33 530.686 3335.69 518.256 3333.95 507.801Z" fill="black" stroke="black" stroke-width="3"/>
<path d="M3228.4 589.657C3238 586.165 3243.47 579.604 3245.74 571.53C3248.02 563.385 3247.06 553.585 3243.47 543.729C3239.89 533.873 3234.46 526.13 3227.64 521.727C3220.87 517.363 3212.58 516.18 3202.94 519.689C3193.44 523.147 3184.31 533.828 3178.46 546.385C3172.6 558.942 3170.28 572.795 3173.74 582.298C3177.1 591.529 3185.47 595.267 3195.9 595.721C3206.34 596.174 3218.44 593.282 3228.4 589.657Z" fill="black" stroke="black" stroke-width="3"/>
<path d="M718.698 1492C718.698 1492 799.295 1755.75 796.198 1858C792.072 1994.24 696.603 2133.7 695.698 2270C694.778 2408.45 776.358 2554.97 796.198 2692C807.558 2770.46 796.198 2895 796.198 2895" stroke="black" stroke-width="10"/>
<path d="M758.2 1405C729.446 1444.77 730.2 1527.5 730.2 1527.5C730.2 1527.5 808.338 1525.84 839.7 1474C866.382 1429.89 874.7 1339 874.7 1339C874.7 1339 788.839 1362.63 758.2 1405Z" fill="black" stroke="black" stroke-width="3"/>
<path d="M857.563 1520.81C811.028 1537.19 751.199 1604.56 751.199 1604.56C751.199 1604.56 800.117 1646.17 857.045 1621.46C905.477 1600.43 976.791 1531.44 976.791 1531.44C976.791 1531.44 907.148 1503.36 857.563 1520.81Z" fill="black" stroke="black" stroke-width="3"/>
<path d="M637.556 1657.75C597.422 1629.52 571.2 1551.04 571.2 1551.04C571.2 1551.04 645.62 1527.17 692.152 1565.98C731.74 1599 769.197 1682.23 769.197 1682.23C769.197 1682.23 680.321 1687.84 637.556 1657.75Z" fill="black" stroke="black" stroke-width="3"/>
<path d="M635.698 1840.29C588.122 1822.86 516.698 1753.25 516.698 1753.25C516.698 1753.25 634.59 1727.8 688.698 1753.25C734.732 1774.9 794.319 1840.29 794.319 1840.29C794.319 1840.29 686.392 1858.87 635.698 1840.29Z" fill="black" stroke="black" stroke-width="3"/>
<path d="M677.698 2015.56C733.256 1998.29 784.202 1935.31 784.202 1935.31C784.202 1935.31 662.681 1890.8 599.698 1916.56C491.198 1960.95 454.698 2015.56 454.698 2015.56C454.698 2015.56 556.198 2053.33 677.698 2015.56Z" fill="black" stroke="black" stroke-width="3"/>
<path d="M932.698 2094.5C1013.2 2073 1104.12 2025.4 1104.12 2025.4C1104.12 2025.4 1033.33 1983.62 950.174 1979.97C809.698 1973.81 749.215 2051.41 749.215 2051.41C749.215 2051.41 813.333 2126.38 932.698 2094.5Z" fill="black" stroke="black" stroke-width="3"/>
<path d="M932.698 2094.5C1013.2 2073 1104.12 2025.4 1104.12 2025.4C1104.12 2025.4 1033.33 1983.62 950.174 1979.97C809.698 1973.81 749.215 2051.41 749.215 2051.41C749.215 2051.41 813.333 2126.38 932.698 2094.5Z" fill="black" stroke="black" stroke-width="3"/>
<path d="M570.698 2203C650.198 2197 715.429 2143.4 715.429 2143.4C715.429 2143.4 612.373 2061.8 533.198 2087.5C476.198 2106 383.198 2156 383.198 2156C383.198 2156 447.5 2212.3 570.698 2203Z" fill="black" stroke="black" stroke-width="3"/>
<path d="M943.198 1929.74C998.756 1912.47 1098.2 1815.24 1098.2 1815.24C1098.2 1815.24 975.182 1777.97 912.198 1803.74C858.614 1825.66 790.198 1914.99 790.198 1914.99C790.198 1914.99 883.999 1948.14 943.198 1929.74Z" fill="black" stroke="black" stroke-width="3"/>
<path d="M940.051 1753.85C894.068 1785.52 792.137 1796.44 792.137 1796.44C792.137 1796.44 786.099 1725.3 846.68 1689.57C898.221 1659.18 1009.26 1638.88 1009.26 1638.88C1009.26 1638.88 989.049 1720.1 940.051 1753.85Z" fill="black" stroke="black" stroke-width="3"/>
<path d="M524.002 2386.5C608.198 2386.5 695.429 2314.4 695.429 2314.4C695.429 2314.4 607.163 2258.15 524.002 2254.5C440.841 2250.85 315.198 2343.5 315.198 2343.5C315.198 2343.5 373.087 2386.5 524.002 2386.5Z" fill="black" stroke="black" stroke-width="3"/>
<path d="M882.344 2262.87C801.616 2286.79 697.498 2242.43 697.498 2242.43C697.498 2242.43 766.155 2163.43 844.854 2136.31C923.554 2109.19 1070.34 2162.34 1070.34 2162.34C1070.34 2162.34 1027.04 2220.01 882.344 2262.87Z" fill="black" stroke="black" stroke-width="3"/>
<path d="M556.698 2562.74C657.698 2531.34 726.198 2448.24 726.198 2448.24C726.198 2448.24 643.698 2395.23 493.198 2430C414.258 2448.24 324.698 2562.74 324.698 2562.74C324.698 2562.74 455.698 2594.13 556.698 2562.74Z" fill="black" stroke="black" stroke-width="3"/>
<path d="M955.698 2402C1023.2 2355.15 1120.7 2299.35 1120.7 2299.35C1120.7 2299.35 1000.7 2273.35 888.198 2299.35C809.258 2317.58 719.198 2413.85 719.198 2413.85C719.198 2413.85 888.198 2448.85 955.698 2402Z" fill="black" stroke="black" stroke-width="3"/>
<path d="M1005.7 2561.11C1089.7 2523 1124.2 2458.46 1124.2 2458.46C1124.2 2458.46 1050.7 2432.47 938.198 2458.46C859.258 2476.7 769.198 2572.96 769.198 2572.96C769.198 2572.96 921.698 2599.22 1005.7 2561.11Z" fill="black" stroke="black" stroke-width="3"/>
<path d="M3002.74 647.524C2931.34 487.176 3160.87 30.1633 2950.2 -252.439C2762.14 -504.715 2773.54 -755.118 2773.54 -755.118" stroke="black" stroke-width="3"/>
<path d="M3036.5 674.602C3012.73 633.287 2988 562.602 2988 562.602C2988 562.602 3022 604.102 3060.5 636.602C3099 669.102 3112 776.102 3112 776.102C3112 776.102 3061.13 717.424 3036.5 674.602Z" stroke="black" stroke-width="3"/>
<path d="M3070.54 615.347C3046.68 560.05 2994 480.446 2994 480.446C2994 480.446 3041.46 527.918 3092.77 563.232C3144.08 598.547 3177.49 732.654 3177.49 732.654C3177.49 732.654 3101.5 687.102 3070.54 615.347Z" stroke="black" stroke-width="3"/>
<path d="M2908.77 580.314C2937.35 527.306 2996.77 452.597 2996.77 452.597C2996.77 452.597 2945.36 495.752 2891.17 526.46C2836.97 557.168 2792 687.853 2792 687.853C2792 687.853 2871.67 649.097 2908.77 580.314Z" stroke="black" stroke-width="3"/>
<path d="M2867.19 515.691C2925.86 468.433 3005.73 395.505 3005.73 395.505C3005.73 395.505 2927.65 421.835 2854.55 453.033C2781.45 484.231 2694.87 609.834 2694.87 609.834C2694.87 609.834 2794.1 574.573 2867.19 515.691Z" stroke="black" stroke-width="3"/>
<path d="M2875.25 407.364C2942.64 352.516 3024.66 252.518 3024.66 252.518C3024.66 252.518 2935.06 284.985 2844.5 322.602C2753.94 360.219 2659 503.102 2659 503.102C2659 503.102 2791.29 475.701 2875.25 407.364Z" stroke="black" stroke-width="3"/>
<path d="M2861.2 -34.7026C2926.42 22.711 3038.58 87.102 3038.58 87.102C3038.58 87.102 2991.77 4.08665 2939.72 -79.0231C2887.67 -162.133 2731.08 -232.188 2731.08 -232.188C2731.08 -232.188 2779.94 -106.237 2861.2 -34.7026Z" stroke="black" stroke-width="3"/>
<path d="M2833.47 307.886C2917.76 269.472 3030.72 188.407 3030.72 188.407C3030.72 188.407 2950.52 195.437 2848.5 209.81C2746.48 224.184 2588 348.31 2588 348.31C2588 348.31 2728.44 355.748 2833.47 307.886Z" stroke="black" stroke-width="3"/>
<path d="M2809.27 78.7503C2899.15 101.162 3038.02 108.04 3038.02 108.04C3038.02 108.04 2970.88 63.6148 2882.09 11.353C2793.3 -40.9089 2592 -42.4209 2592 -42.4209C2592 -42.4209 2697.28 50.8267 2809.27 78.7503Z" stroke="black" stroke-width="3"/>
<path d="M2795.08 204.458C2895.66 185.736 3037.82 128.81 3037.82 128.81C3037.82 128.81 2923.23 128.506 2809.5 116.602C2695.77 104.698 2520 182.102 2520 182.102C2520 182.102 2669.77 227.784 2795.08 204.458Z" stroke="black" stroke-width="3"/>
<path d="M3140.25 464.593C3085.48 402.932 3022 295.903 3022 295.903C3022 295.903 3106.51 340.08 3183.55 388.223C3260.59 436.366 3323.65 585.241 3323.65 585.241C3323.65 585.241 3208.48 541.42 3140.25 464.593Z" stroke="black" stroke-width="3"/>
<path d="M3247.48 56.286C3169.33 82.6052 3046 99.2208 3046 99.2208C3046 99.2208 3119.69 38.6867 3194.11 -13.4183C3268.52 -65.5232 3430.2 -65.3962 3430.2 -65.3962C3430.2 -65.3962 3344.86 23.4937 3247.48 56.286Z" stroke="black" stroke-width="3"/>
<path d="M3145 342.102C3081.72 289.213 3034 219.21 3034 219.21C3034 219.21 3124.12 250.41 3207.43 286.637C3290.74 322.864 3375.1 460.784 3375.1 460.784C3375.1 460.784 3223.84 407.999 3145 342.102Z" stroke="black" stroke-width="3"/>
<path d="M3174.6 247.588C3100.73 208.987 3042 150.419 3042 150.419C3042 150.419 3135.61 177.956 3229.5 196.102C3323.39 214.248 3435.79 315.923 3435.79 315.923C3435.79 315.923 3266.63 295.682 3174.6 247.588Z" stroke="black" stroke-width="3"/>
<path d="M3166.9 -29.4107C3111.55 14.8778 3042.81 53.6022 3042.81 53.6022C3042.81 53.6022 3068 -41.3979 3123 -91.3979C3178 -141.398 3312 -220.898 3312 -220.898C3312 -220.898 3235.88 -84.5916 3166.9 -29.4107Z" stroke="black" stroke-width="3"/>
<path d="M3217 164.102C3134.3 153.814 3038 119.697 3038 119.697C3038 119.697 3175.5 110.294 3239.5 93.1021C3303.5 75.9097 3464.81 136.812 3464.81 136.812C3464.81 136.812 3320.05 176.921 3217 164.102Z" stroke="black" stroke-width="3"/>
<path d="M3093.56 526.369C3058.02 459.944 3013 361.606 3013 361.606C3013 361.606 3074.59 416.352 3129.69 473.633C3184.78 530.913 3215.4 680.36 3215.4 680.36C3215.4 680.36 3137.84 609.132 3093.56 526.369Z" stroke="black" stroke-width="3"/>
<path d="M2939.5 653.602C2963.27 612.287 2988 541.602 2988 541.602C2988 541.602 2954 583.102 2915.5 615.602C2877 648.102 2864 755.102 2864 755.102C2864 755.102 2914.87 696.424 2939.5 653.602Z" stroke="black" stroke-width="3"/>
<path d="M1253.75 1641.46C841.72 2278.53 1975.81 2725.27 1151.53 4568.45" stroke="#666565" stroke-width="5"/>
<path d="M1207.12 1642.24C1201.81 1635.19 1200.15 1628.93 1199.79 1624.49C1199.61 1622.32 1199.74 1620.57 1199.92 1619.36C1200.38 1619.65 1200.92 1619.98 1201.54 1620.37C1203.65 1621.71 1206.58 1623.65 1209.86 1626.04C1216.43 1630.83 1224.27 1637.37 1229.62 1644.48C1234.94 1651.54 1236.8 1657.83 1237.35 1662.3C1237.61 1664.4 1237.58 1666.12 1237.48 1667.33C1237.01 1667.05 1236.46 1666.72 1235.85 1666.34C1233.66 1665 1230.63 1663.06 1227.26 1660.67C1220.5 1655.87 1212.47 1649.33 1207.12 1642.24Z" stroke="black" stroke-width="3"/>
<path d="M1179.64 1671.61C1172.34 1662.95 1169.74 1654.81 1168.95 1648.89C1168.55 1645.92 1168.6 1643.5 1168.75 1641.83C1168.77 1641.6 1168.79 1641.39 1168.82 1641.19C1169.53 1641.56 1170.43 1642.03 1171.5 1642.6C1174.29 1644.09 1178.16 1646.27 1182.5 1649C1191.2 1654.48 1201.67 1662.11 1209.02 1670.84C1216.34 1679.52 1219.19 1687.66 1220.22 1693.58C1220.74 1696.54 1220.81 1698.96 1220.75 1700.62C1220.74 1700.81 1220.73 1700.98 1220.72 1701.15C1219.99 1700.79 1219.07 1700.33 1217.99 1699.77C1215.11 1698.28 1211.11 1696.11 1206.65 1693.39C1197.69 1687.94 1186.99 1680.33 1179.64 1671.61Z" stroke="black" stroke-width="3"/>
<path d="M1163.32 1681.34C1151.14 1672.56 1140.35 1669.92 1132.65 1669.46C1128.8 1669.22 1125.71 1669.53 1123.6 1669.9C1123.09 1669.98 1122.64 1670.07 1122.25 1670.16C1122.85 1671.13 1123.71 1672.47 1124.8 1674.12C1127.12 1677.64 1130.48 1682.52 1134.6 1687.95C1142.87 1698.85 1154.16 1711.88 1166.4 1720.71C1178.59 1729.51 1189.42 1732.47 1197.15 1733.25C1201.01 1733.65 1204.12 1733.5 1206.24 1733.25C1206.7 1733.2 1207.11 1733.14 1207.47 1733.08C1206.87 1732.08 1206.01 1730.7 1204.94 1729.02C1202.61 1725.38 1199.25 1720.34 1195.12 1714.74C1186.85 1703.52 1175.54 1690.16 1163.32 1681.34Z" stroke="black" stroke-width="3"/>
<path d="M1136.98 1720.83C1120.75 1708.86 1105.46 1702.64 1094.24 1699.41C1088.63 1697.8 1084.04 1696.94 1080.86 1696.48C1080.12 1696.37 1079.45 1696.29 1078.86 1696.22C1079.66 1697.5 1080.76 1699.22 1082.12 1701.3C1085.22 1706.02 1089.69 1712.56 1095.19 1719.86C1106.19 1734.49 1121.21 1752.03 1137.44 1764C1153.61 1775.94 1167.92 1780.07 1178.13 1781.23C1183.24 1781.82 1187.34 1781.66 1190.14 1781.36C1190.99 1781.27 1191.73 1781.17 1192.33 1781.07C1191.62 1779.99 1190.59 1778.47 1189.28 1776.59C1186.52 1772.65 1182.5 1767.14 1177.46 1760.87C1167.37 1748.33 1153.24 1732.82 1136.98 1720.83Z" stroke="black" stroke-width="3"/>
<path d="M1261.65 1759.86C1281.58 1756.73 1298.02 1758.28 1309.46 1760.6C1315.18 1761.76 1319.65 1763.11 1322.68 1764.17C1323.39 1764.42 1324.02 1764.65 1324.57 1764.86C1323.27 1765.62 1321.51 1766.64 1319.34 1767.86C1314.41 1770.61 1307.42 1774.36 1299.18 1778.3C1282.67 1786.19 1261.24 1794.81 1241.32 1797.94C1221.46 1801.06 1206.86 1798.11 1197.26 1794.43C1192.46 1792.59 1188.9 1790.56 1186.55 1789C1185.84 1788.53 1185.24 1788.1 1184.75 1787.73C1185.88 1787.1 1187.49 1786.23 1189.52 1785.17C1193.79 1782.94 1199.9 1779.91 1207.26 1776.68C1222 1770.21 1241.7 1762.99 1261.65 1759.86Z" stroke="black" stroke-width="3"/>
<path d="M1238 1723.99C1223.38 1727.42 1214.31 1733.84 1208.91 1739.34C1206.2 1742.1 1204.41 1744.63 1203.3 1746.46C1203.03 1746.9 1202.8 1747.3 1202.61 1747.65C1203.74 1747.83 1205.32 1748.07 1207.28 1748.33C1211.46 1748.88 1217.34 1749.55 1224.15 1750.01C1237.79 1750.91 1255.04 1750.94 1269.73 1747.5C1284.37 1744.07 1293.71 1737.84 1299.37 1732.52C1302.2 1729.86 1304.12 1727.42 1305.33 1725.66C1305.59 1725.28 1305.82 1724.93 1306.01 1724.62C1304.86 1724.42 1303.26 1724.15 1301.28 1723.86C1297.01 1723.23 1291 1722.45 1284.07 1721.9C1270.17 1720.79 1252.68 1720.56 1238 1723.99Z" stroke="black" stroke-width="3"/>
<path d="M1267.76 1688.5C1278.99 1690.05 1286.36 1694.36 1290.92 1698.23C1293.2 1700.17 1294.78 1702 1295.78 1703.34C1295.92 1703.52 1296.05 1703.7 1296.16 1703.86C1295.39 1704.07 1294.4 1704.32 1293.23 1704.61C1290.16 1705.36 1285.82 1706.34 1280.77 1707.21C1270.64 1708.96 1257.75 1710.3 1246.45 1708.73C1235.2 1707.17 1227.64 1703.03 1222.91 1699.33C1220.54 1697.47 1218.87 1695.72 1217.8 1694.44C1217.69 1694.3 1217.57 1694.16 1217.47 1694.03C1218.25 1693.81 1219.25 1693.54 1220.43 1693.23C1223.56 1692.41 1227.99 1691.34 1233.12 1690.38C1243.43 1688.44 1256.48 1686.93 1267.76 1688.5Z" stroke="black" stroke-width="3"/>
<path d="M1275.05 1672.68C1283.77 1671.38 1289.35 1668.08 1292.72 1665.16C1294.36 1663.74 1295.5 1662.4 1296.22 1661.42C1295.69 1661.3 1295.07 1661.16 1294.36 1661C1291.91 1660.48 1288.46 1659.8 1284.45 1659.21C1276.4 1658.03 1266.23 1657.2 1257.43 1658.51C1248.68 1659.82 1242.95 1663 1239.43 1665.8C1237.76 1667.12 1236.58 1668.37 1235.81 1669.3C1236.34 1669.43 1236.96 1669.58 1237.66 1669.74C1240.16 1670.32 1243.68 1671.06 1247.76 1671.72C1255.95 1673.04 1266.26 1674 1275.05 1672.68Z" stroke="black" stroke-width="3"/>
<path d="M1068.91 1800.97C1048.44 1785.21 1037.36 1767.49 1031.4 1753.72C1028.42 1746.84 1026.71 1740.95 1025.76 1736.78C1025.35 1735.02 1025.08 1733.56 1024.9 1732.48C1026.17 1732.86 1027.97 1733.43 1030.21 1734.19C1034.99 1735.8 1041.8 1738.29 1049.9 1741.76C1066.11 1748.72 1087.45 1759.63 1108.03 1775.47C1128.61 1791.31 1144.55 1809.09 1155.35 1822.92C1160.75 1829.83 1164.85 1835.75 1167.61 1839.93C1168.57 1841.39 1169.37 1842.64 1170 1843.65C1168.22 1843.27 1165.79 1842.72 1162.82 1842C1156.23 1840.41 1147.02 1837.95 1136.52 1834.5C1115.5 1827.6 1089.42 1816.75 1068.91 1800.97Z" stroke="black" stroke-width="3"/>
<path d="M1054.98 1884.64C1029 1865.15 1009.62 1841.06 996.724 1821.82C990.278 1812.21 985.462 1803.81 982.258 1797.83C980.901 1795.29 979.834 1793.19 979.056 1791.61C979.155 1791.65 979.256 1791.69 979.359 1791.73C981.796 1792.65 985.338 1794.02 989.753 1795.79C998.584 1799.31 1010.9 1804.42 1024.85 1810.76C1052.78 1823.44 1087.15 1840.98 1113.17 1860.51C1139.16 1880.01 1151.86 1897.76 1158.07 1910.54C1161.18 1916.94 1162.67 1922.1 1163.38 1925.64C1163.7 1927.19 1163.86 1928.43 1163.95 1929.33C1163.69 1929.3 1163.41 1929.26 1163.1 1929.21C1161.4 1928.98 1158.91 1928.6 1155.75 1928.01C1149.43 1926.85 1140.46 1924.89 1129.86 1921.72C1108.64 1915.36 1080.95 1904.13 1054.98 1884.64Z" stroke="black" stroke-width="3"/>
<path d="M1018.33 1968.72C985.853 1947.11 964.665 1922.11 951.6 1902.53C945.067 1892.74 940.567 1884.31 937.704 1878.33C936.337 1875.48 935.344 1873.19 934.68 1871.58C936.488 1872.07 939.126 1872.82 942.485 1873.84C949.287 1875.92 959.044 1879.15 970.84 1883.73C994.436 1892.9 1026.17 1907.49 1058.73 1929.15C1091.3 1950.82 1118.55 1975.48 1137.66 1994.74C1147.21 2004.36 1154.72 2012.63 1159.85 2018.49C1162.08 2021.04 1163.85 2023.13 1165.15 2024.68C1162.69 2024.23 1159.15 2023.55 1154.72 2022.6C1145.66 2020.68 1132.91 2017.65 1118.12 2013.27C1088.51 2004.51 1050.83 1990.34 1018.33 1968.72Z" stroke="black" stroke-width="3"/>
<path d="M1027.47 2065.64C991.433 2042.03 965.717 2016.15 949.014 1996.19C940.663 1986.21 934.567 1977.71 930.563 1971.71C929.005 1969.38 927.764 1967.42 926.831 1965.91C927.304 1966.09 927.816 1966.29 928.367 1966.5C931.95 1967.88 937.15 1969.92 943.618 1972.51C956.552 1977.68 974.552 1985.08 994.811 1993.95C1035.35 2011.71 1084.85 2035.37 1120.92 2059C1156.98 2082.63 1172.66 2101.69 1179.37 2114.69C1182.72 2121.18 1183.83 2126.16 1184.13 2129.47C1184.26 2130.91 1184.23 2132.04 1184.16 2132.84C1183.57 2132.69 1182.82 2132.5 1181.92 2132.27C1179.42 2131.62 1175.78 2130.64 1171.18 2129.32C1161.97 2126.68 1148.95 2122.66 1133.66 2117.16C1103.08 2106.16 1063.51 2089.26 1027.47 2065.64Z" stroke="black" stroke-width="3"/>
<path d="M1016 2172.46C970.643 2149.47 939.429 2124.41 919.567 2105.13C909.635 2095.48 902.541 2087.28 897.936 2081.5C895.886 2078.93 894.33 2076.83 893.236 2075.31C893.617 2075.38 894.028 2075.45 894.468 2075.53C897.557 2076.11 902.074 2076.98 907.781 2078.18C919.195 2080.56 935.363 2084.22 954.372 2089.32C992.4 2099.53 1041.75 2115.48 1087.12 2138.47C1132.48 2161.46 1165.29 2187.15 1186.76 2207.07C1197.5 2217.04 1205.39 2225.56 1210.6 2231.58C1212.9 2234.25 1214.68 2236.42 1215.95 2238.02C1215.58 2237.95 1215.18 2237.87 1214.77 2237.79C1211.5 2237.14 1206.74 2236.17 1200.73 2234.86C1188.72 2232.24 1171.75 2228.27 1151.94 2222.86C1112.31 2212.03 1061.37 2195.45 1016 2172.46Z" stroke="black" stroke-width="3"/>
<path d="M1012.65 2276.95C958.341 2267.51 915.508 2251.4 886.263 2237.66C871.641 2230.8 860.417 2224.52 852.856 2219.97C849.399 2217.89 846.708 2216.17 844.808 2214.91C845.159 2214.88 845.532 2214.85 845.926 2214.81C849.33 2214.5 854.319 2214.08 860.646 2213.64C873.302 2212.75 891.312 2211.76 912.722 2211.36C955.554 2210.57 1011.94 2212.14 1066.27 2221.59C1120.58 2231.04 1162.57 2246.58 1190.96 2259.74C1205.16 2266.32 1215.95 2272.31 1223.19 2276.65C1226.47 2278.61 1229.02 2280.23 1230.82 2281.42C1230.47 2281.46 1230.1 2281.5 1229.7 2281.55C1226.39 2281.92 1221.54 2282.43 1215.37 2282.98C1203.04 2284.08 1185.46 2285.35 1164.47 2286.04C1122.5 2287.4 1066.97 2286.4 1012.65 2276.95Z" stroke="black" stroke-width="3"/>
<path d="M1021.74 2390.94C962.425 2381.68 917.348 2363.01 887.112 2346.68C871.994 2338.51 860.587 2330.93 852.969 2325.39C849.159 2322.62 846.297 2320.37 844.392 2318.81C844.336 2318.76 844.282 2318.72 844.228 2318.67C844.871 2318.62 845.599 2318.55 846.409 2318.48C850.133 2318.16 855.589 2317.73 862.51 2317.26C876.351 2316.33 896.048 2315.29 919.461 2314.82C966.295 2313.88 1027.95 2315.27 1087.34 2324.55C1146.7 2333.83 1192.57 2349.23 1223.58 2362.31C1239.08 2368.85 1250.87 2374.81 1258.78 2379.13C1262.57 2381.19 1265.46 2382.89 1267.45 2384.09C1266.83 2384.2 1266.14 2384.32 1265.38 2384.46C1261.57 2385.14 1256.01 2386.08 1248.95 2387.16C1234.83 2389.32 1214.77 2392.01 1191 2394.12C1143.43 2398.33 1081.07 2400.21 1021.74 2390.94Z" stroke="black" stroke-width="3"/>
<path d="M1565.41 2591.17C1502.06 2617.38 1448.16 2627.19 1410.11 2630.46C1391.08 2632.1 1376.02 2632.09 1365.73 2631.68C1360.58 2631.48 1356.63 2631.17 1353.97 2630.91C1353.69 2630.89 1353.42 2630.86 1353.16 2630.84C1353.46 2630.57 1353.79 2630.27 1354.14 2629.96C1356.38 2627.95 1359.73 2625.03 1364.15 2621.35C1372.98 2614 1386.08 2603.64 1403.15 2591.64C1437.29 2567.64 1487.27 2537.08 1550.65 2510.86C1614.04 2484.63 1678.84 2467.7 1727.81 2457.32C1752.29 2452.13 1772.8 2448.58 1787.19 2446.33C1794.39 2445.21 1800.05 2444.41 1803.91 2443.89C1804.19 2443.85 1804.46 2443.82 1804.71 2443.78C1804.32 2444.1 1803.9 2444.44 1803.45 2444.81C1800.02 2447.59 1794.98 2451.64 1788.52 2456.65C1775.62 2466.68 1757.09 2480.6 1734.59 2496.16C1689.59 2527.29 1628.77 2564.95 1565.41 2591.17Z" stroke="black" stroke-width="3"/>
<path d="M1102 2507.43C1164.58 2515.84 1215.32 2511.05 1250.4 2504.17C1267.94 2500.73 1281.56 2496.77 1290.79 2493.67C1295.4 2492.12 1298.92 2490.79 1301.28 2489.84C1301.33 2489.82 1301.38 2489.8 1301.44 2489.78C1300.79 2489.53 1300.06 2489.25 1299.25 2488.94C1295.56 2487.55 1290.16 2485.53 1283.28 2483.06C1269.53 2478.12 1249.88 2471.36 1226.31 2464.07C1179.17 2449.49 1116.39 2432.82 1053.74 2424.39C991.11 2415.97 940.465 2417.39 905.496 2420.91C888.011 2422.68 874.445 2424.96 865.26 2426.81C860.884 2427.68 857.502 2428.46 855.165 2429.03C855.763 2429.32 856.433 2429.65 857.173 2430C860.837 2431.77 866.215 2434.31 873.061 2437.41C886.756 2443.61 906.324 2452.05 929.809 2461.02C976.794 2478.97 1039.4 2499.01 1102 2507.43Z" stroke="black" stroke-width="3"/>
<path d="M1554.5 2468.31C1610.4 2446.43 1650.37 2418.45 1676.35 2395.96C1689.34 2384.71 1698.84 2374.84 1705.08 2367.78C1708.2 2364.26 1710.5 2361.43 1712.03 2359.5C1712.03 2359.5 1712.03 2359.49 1712.04 2359.48C1712 2359.49 1711.96 2359.5 1711.93 2359.5C1709.42 2359.92 1705.69 2360.54 1700.82 2361.38C1691.09 2363.06 1676.83 2365.61 1658.67 2369.07C1622.36 2376 1570.51 2386.58 1508.36 2401.2C1446.43 2415.77 1396.95 2444.83 1362.94 2470.25C1345.93 2482.97 1332.81 2494.76 1323.93 2503.38C1319.5 2507.69 1316.13 2511.2 1313.87 2513.63C1313.47 2514.05 1313.11 2514.45 1312.78 2514.81C1313.49 2514.78 1314.31 2514.75 1315.23 2514.71C1319.09 2514.55 1324.73 2514.27 1331.85 2513.8C1346.1 2512.85 1366.27 2511.13 1389.93 2508.04C1437.28 2501.86 1498.58 2490.2 1554.5 2468.31Z" stroke="black" stroke-width="3"/>
<path d="M1460.22 2362.19C1512.2 2342.39 1552.23 2308.09 1579.28 2278.69C1592.81 2264 1603.07 2250.55 1609.96 2240.77C1613.4 2235.88 1616 2231.92 1617.73 2229.18C1618 2228.74 1618.25 2228.34 1618.48 2227.97C1617.99 2228.09 1617.45 2228.22 1616.86 2228.37C1613.54 2229.19 1608.68 2230.41 1602.56 2232.05C1590.3 2235.33 1572.95 2240.26 1552.58 2246.86C1511.82 2260.05 1459.01 2279.9 1410.72 2306.52C1362.45 2333.13 1327.81 2361.49 1305.25 2383.18C1293.97 2394.03 1285.71 2403.21 1280.27 2409.66C1277.77 2412.64 1275.86 2415.04 1274.54 2416.76C1274.56 2416.76 1274.58 2416.75 1274.6 2416.75C1277.12 2416.25 1280.85 2415.49 1285.65 2414.45C1295.26 2412.37 1309.15 2409.18 1326.32 2404.76C1360.64 2395.9 1408.02 2382.07 1460.22 2362.19Z" stroke="black" stroke-width="3"/>
<path d="M1360.61 2177.13C1319.76 2199.2 1279.92 2212.19 1250.28 2219.66C1235.46 2223.4 1223.21 2225.76 1214.66 2227.18C1210.38 2227.89 1207.04 2228.37 1204.76 2228.67C1204.75 2228.67 1204.74 2228.67 1204.72 2228.67C1206 2226.99 1207.87 2224.6 1210.34 2221.61C1215.47 2215.42 1223.16 2206.69 1233.41 2196.58C1253.91 2176.36 1284.62 2150.62 1325.46 2128.57C1366.3 2106.5 1409.57 2092.29 1442.64 2083.59C1459.17 2079.24 1473.15 2076.27 1482.99 2074.39C1487.88 2073.46 1491.74 2072.79 1494.39 2072.36C1492.75 2074.17 1490.38 2076.73 1487.34 2079.88C1480.93 2086.54 1471.51 2095.89 1459.55 2106.63C1435.61 2128.09 1401.46 2155.07 1360.61 2177.13Z" stroke="black" stroke-width="3"/>
<path d="M1296.48 2014.44C1329.02 1992.79 1356.06 1966.37 1374.97 1945.34C1384.43 1934.83 1391.84 1925.68 1396.89 1919.15C1398.91 1916.56 1400.54 1914.38 1401.78 1912.7C1401.77 1912.7 1401.75 1912.71 1401.74 1912.71C1398.75 1913.82 1394.4 1915.44 1388.99 1917.53C1378.15 1921.71 1363.02 1927.74 1345.85 1935.12C1311.49 1949.89 1269.04 1970.07 1236.48 1991.73C1203.95 2013.38 1187.51 2032.38 1179.2 2045.87C1175.04 2052.62 1172.92 2058 1171.83 2061.65C1171.38 2063.18 1171.1 2064.4 1170.94 2065.31C1171.2 2065.27 1171.48 2065.22 1171.78 2065.17C1173.61 2064.87 1176.29 2064.4 1179.72 2063.69C1186.59 2062.28 1196.43 2059.94 1208.3 2056.25C1232.06 2048.87 1263.95 2036.08 1296.48 2014.44Z" stroke="black" stroke-width="3"/>
<path d="M1314.77 2094.91C1347.3 2073.26 1374.34 2046.84 1393.26 2025.81C1402.71 2015.3 1410.13 2006.15 1415.18 1999.62C1417.52 1996.6 1419.35 1994.15 1420.64 1992.38C1418.25 1992.93 1414.79 1993.74 1410.45 1994.85C1401.64 1997.11 1389.2 2000.56 1374.73 2005.38C1345.77 2015.01 1308.72 2030.05 1276.2 2051.68C1243.69 2073.31 1221.85 2097.46 1208.13 2116.18C1201.27 2125.55 1196.45 2133.55 1193.34 2139.21C1191.84 2141.94 1190.74 2144.13 1190.01 2145.65C1190.03 2145.65 1190.05 2145.65 1190.07 2145.64C1191.89 2145.34 1194.58 2144.87 1198.01 2144.16C1204.88 2142.75 1214.71 2140.42 1226.59 2136.73C1250.35 2129.34 1282.24 2116.55 1314.77 2094.91Z" stroke="black" stroke-width="3"/>
<path d="M1261.86 1933.9C1233.22 1949.2 1207.82 1954.46 1189.61 1955.9C1180.5 1956.62 1173.19 1956.38 1168.16 1955.97C1165.86 1955.78 1164.04 1955.56 1162.75 1955.37C1163.57 1954.25 1164.77 1952.66 1166.35 1950.69C1169.7 1946.52 1174.78 1940.62 1181.64 1933.76C1195.38 1920.05 1216.3 1902.49 1244.98 1887.16C1273.68 1871.83 1304.74 1861.61 1328.66 1855.23C1340.61 1852.03 1350.76 1849.81 1357.93 1848.37C1360.9 1847.78 1363.36 1847.32 1365.22 1846.99C1363.8 1848.64 1361.83 1850.89 1359.38 1853.61C1353.92 1859.66 1346.05 1868.04 1336.37 1877.39C1317.02 1896.09 1290.52 1918.58 1261.86 1933.9Z" stroke="black" stroke-width="3"/>
<path d="M1265.61 1851.55C1289.25 1840.98 1306.1 1826.94 1317.03 1815.54C1322.49 1809.84 1326.48 1804.81 1329.09 1801.21C1330.06 1799.87 1330.84 1798.73 1331.44 1797.83C1330.16 1797.89 1328.47 1797.99 1326.42 1798.15C1321.41 1798.54 1314.22 1799.28 1305.55 1800.68C1288.2 1803.49 1264.93 1808.95 1241.23 1819.54C1217.53 1830.14 1197.85 1843.87 1184.1 1854.97C1177.22 1860.52 1171.83 1865.4 1168.16 1868.89C1166.92 1870.07 1165.88 1871.09 1165.05 1871.92C1166.6 1871.89 1168.63 1871.84 1171.06 1871.74C1177.13 1871.48 1185.71 1870.92 1195.77 1869.69C1215.92 1867.23 1241.95 1862.13 1265.61 1851.55Z" stroke="black" stroke-width="3"/>
<path d="M1450.44 2257C1501.21 2235.58 1538.86 2209.22 1563.8 2188.22C1576.28 2177.72 1585.57 2168.56 1591.75 2162.03C1594.73 2158.87 1596.99 2156.33 1598.52 2154.55C1598.08 2154.61 1597.61 2154.67 1597.1 2154.74C1593.72 2155.21 1588.76 2155.92 1582.5 2156.91C1569.96 2158.89 1552.19 2161.98 1531.24 2166.41C1489.33 2175.27 1434.74 2189.49 1383.93 2210.92C1333.13 2232.34 1295.72 2256.92 1271.02 2276.14C1258.67 2285.74 1249.49 2294.01 1243.41 2299.86C1240.57 2302.6 1238.4 2304.81 1236.91 2306.39C1237.34 2306.35 1237.8 2306.32 1238.3 2306.28C1241.66 2306.01 1246.57 2305.58 1252.79 2304.92C1265.22 2303.62 1282.86 2301.43 1303.68 2297.9C1345.34 2290.83 1399.66 2278.42 1450.44 2257Z" stroke="black" stroke-width="3"/>
</g>
<defs>
<clipPath id="clip0">
<rect width="4000" height="2499.77" fill="white"/>
</clipPath>
</defs>
</svg>
