<svg width="835" height="1656" viewBox="0 0 835 1656" fill="none" xmlns="http://www.w3.org/2000/svg">
<path d="M406.698 156C406.698 156 487.295 419.753 484.198 522C480.072 658.236 384.603 797.705 383.698 934C382.778 1072.45 464.358 1218.97 484.198 1356C495.558 1434.46 484.198 1559 484.198 1559" stroke="black" stroke-width="10"/>
<path d="M446.2 69C417.446 108.767 418.2 191.5 418.2 191.5C418.2 191.5 496.338 189.843 527.7 138C554.382 93.8933 562.7 3 562.7 3C562.7 3 476.839 26.6267 446.2 69Z" fill="black" stroke="black" stroke-width="3"/>
<path d="M545.563 184.81C499.028 201.185 439.199 268.557 439.199 268.557C439.199 268.557 488.117 310.175 545.045 285.459C593.477 264.432 664.791 195.444 664.791 195.444C664.791 195.444 595.148 167.361 545.563 184.81Z" fill="black" stroke="black" stroke-width="3"/>
<path d="M325.556 321.755C285.422 293.516 259.2 215.045 259.2 215.045C259.2 215.045 333.62 191.172 380.152 229.98C419.74 262.997 457.197 346.23 457.197 346.23C457.197 346.23 368.321 351.844 325.556 321.755Z" fill="black" stroke="black" stroke-width="3"/>
<path d="M323.698 504.293C276.122 486.861 204.698 417.247 204.698 417.247C204.698 417.247 322.59 391.795 376.698 417.247C422.732 438.9 482.319 504.293 482.319 504.293C482.319 504.293 374.392 522.868 323.698 504.293Z" fill="black" stroke="black" stroke-width="3"/>
<path d="M365.698 679.564C421.256 662.295 472.202 599.312 472.202 599.312C472.202 599.312 350.681 554.798 287.698 580.564C179.198 624.952 142.698 679.564 142.698 679.564C142.698 679.564 244.198 717.331 365.698 679.564Z" fill="black" stroke="black" stroke-width="3"/>
<path d="M620.698 758.5C701.198 737 792.125 689.397 792.125 689.397C792.125 689.397 721.334 647.623 638.174 643.974C497.698 637.81 437.215 715.414 437.215 715.414C437.215 715.414 501.333 790.38 620.698 758.5Z" fill="black" stroke="black" stroke-width="3"/>
<path d="M620.698 758.5C701.198 737 792.125 689.397 792.125 689.397C792.125 689.397 721.334 647.623 638.174 643.974C497.698 637.81 437.215 715.414 437.215 715.414C437.215 715.414 501.333 790.38 620.698 758.5Z" fill="black" stroke="black" stroke-width="3"/>
<path d="M258.698 867C338.198 861 403.429 807.397 403.429 807.397C403.429 807.397 300.373 725.803 221.198 751.5C164.198 770 71.198 820 71.198 820C71.198 820 135.5 876.298 258.698 867Z" fill="black" stroke="black" stroke-width="3"/>
<path d="M631.198 593.739C686.756 576.469 786.198 479.239 786.198 479.239C786.198 479.239 663.182 441.972 600.198 467.739C546.614 489.66 478.198 578.99 478.198 578.99C478.198 578.99 571.999 612.14 631.198 593.739Z" fill="black" stroke="black" stroke-width="3"/>
<path d="M628.051 417.849C582.068 449.518 480.137 460.438 480.137 460.438C480.137 460.438 474.099 389.304 534.68 353.574C586.221 323.177 697.259 302.88 697.259 302.88C697.259 302.88 677.049 384.104 628.051 417.849Z" fill="black" stroke="black" stroke-width="3"/>
<path d="M318.002 1545.5C398.502 1524 489.429 1476.4 489.429 1476.4C489.429 1476.4 418.638 1434.62 335.478 1430.97C195.002 1424.81 134.519 1502.41 134.519 1502.41C134.519 1502.41 198.637 1577.38 318.002 1545.5Z" fill="black" stroke="black" stroke-width="3"/>
<path d="M212.002 1050.5C296.198 1050.5 383.429 978.397 383.429 978.397C383.429 978.397 295.163 922.149 212.002 918.5C128.841 914.851 3.19803 1007.5 3.19803 1007.5C3.19803 1007.5 61.0873 1050.5 212.002 1050.5Z" fill="black" stroke="black" stroke-width="3"/>
<path d="M570.344 926.874C489.616 950.787 385.498 906.429 385.498 906.429C385.498 906.429 454.155 827.428 532.854 800.31C611.554 773.192 758.337 826.342 758.337 826.342C758.337 826.342 715.044 884.012 570.344 926.874Z" fill="black" stroke="black" stroke-width="3"/>
<path d="M308.974 1387.23C392.133 1374.06 467.011 1289.19 467.011 1289.19C467.011 1289.19 371.032 1247.45 288.325 1256.85C205.617 1266.26 96.0139 1377.42 96.0139 1377.42C96.0139 1377.42 159.917 1410.83 308.974 1387.23Z" fill="black" stroke="black" stroke-width="3"/>
<path d="M652.103 1384.88C784.875 1364.67 832.305 1254.57 832.305 1254.57C832.305 1254.57 722.72 1248.33 627.529 1274.04C532.338 1299.75 489.198 1421 489.198 1421C489.198 1421 502.908 1407.6 652.103 1384.88Z" fill="black" stroke="black" stroke-width="3"/>
<path d="M244.698 1226.74C345.698 1195.34 414.198 1112.24 414.198 1112.24C414.198 1112.24 331.698 1059.23 181.198 1094C102.258 1112.24 12.698 1226.74 12.698 1226.74C12.698 1226.74 143.698 1258.13 244.698 1226.74Z" fill="black" stroke="black" stroke-width="3"/>
<path d="M643.698 1066C711.198 1019.15 808.698 963.346 808.698 963.346C808.698 963.346 688.698 937.353 576.198 963.346C497.258 981.585 407.198 1077.85 407.198 1077.85C407.198 1077.85 576.198 1112.85 643.698 1066Z" fill="black" stroke="black" stroke-width="3"/>
<path d="M693.698 1225.11C777.698 1187 812.198 1122.46 812.198 1122.46C812.198 1122.46 738.698 1096.47 626.198 1122.46C547.258 1140.7 457.198 1236.96 457.198 1236.96C457.198 1236.96 609.698 1263.22 693.698 1225.11Z" fill="black" stroke="black" stroke-width="3"/>
</svg>
