<svg width="1176" height="2963" viewBox="0 0 1176 2963" fill="none" xmlns="http://www.w3.org/2000/svg">
<path d="M746.255 24.4554C1158.28 661.529 24.1894 1108.27 848.468 2951.45" stroke="black" stroke-width="10"/>
<path d="M794.076 26.1396C805.049 11.579 801.106 -7.432e-06 801.106 -7.432e-06C801.106 -7.432e-06 780.153 12.0147 769.18 26.5754C758.207 41.136 761.368 52.7287 761.368 52.7287C761.368 52.7287 783.103 40.7002 794.076 26.1396Z" fill="black"/>
<path d="M821.504 55.5796C836.5 37.7765 832.323 21.9466 832.323 21.9466C832.323 21.9466 804.826 35.0664 789.829 52.8696C774.833 70.6727 778.015 86.4175 778.015 86.4175C778.015 86.4175 806.507 73.3828 821.504 55.5796Z" fill="black"/>
<path d="M835.803 63.1254C860.636 45.2058 880.083 52.2355 880.083 52.2355C880.083 52.2355 859.311 87.0059 834.479 104.926C809.646 122.845 790.157 117.128 790.157 117.128C790.157 117.128 810.971 81.0451 835.803 63.1254Z" fill="black"/>
<path d="M862.126 102.626C894.921 78.4296 923.974 77.4671 923.974 77.4671C923.974 77.4671 896.251 124.013 863.455 148.21C830.66 172.406 805.213 165.09 805.213 165.09C805.213 165.09 829.33 126.822 862.126 102.626Z" fill="black"/>
<path d="M738.578 141.374C698.316 135.055 672.1 147.617 672.1 147.617C672.1 147.617 718.184 176.102 758.447 182.422C798.709 188.741 817.903 170.501 817.903 170.501C817.903 170.501 778.84 147.694 738.578 141.374Z" fill="black"/>
<path d="M762.346 105.534C792.162 112.518 799.615 131.808 799.615 131.808C799.615 131.808 759.746 138.942 729.93 131.957C700.115 124.972 691.643 106.513 691.643 106.513C691.643 106.513 732.531 98.5486 762.346 105.534Z" fill="black"/>
<path d="M732.031 70.0097C708.973 73.2052 701.485 87.7643 701.485 87.7643C701.485 87.7643 730.699 96.4135 753.756 93.2179C776.813 90.0224 784.984 76.1923 784.984 76.1923C784.984 76.1923 755.088 66.8142 732.031 70.0097Z" fill="black"/>
<path d="M724.731 57.1672C706.698 54.4731 701.395 43.4505 701.395 43.4505C701.395 43.4505 724.761 37.3341 742.793 40.0281C760.825 42.7222 766.696 53.2066 766.696 53.2066C766.696 53.2066 742.763 59.8613 724.731 57.1672Z" fill="black"/>
<path d="M932.005 185.154C973.414 153.284 976.896 113.389 976.896 113.389C976.896 113.389 932.465 125.411 891.056 157.281C849.647 189.151 826.941 228.8 826.941 228.8C826.941 228.8 890.596 217.024 932.005 185.154Z" fill="black"/>
<path d="M945.922 268.84C998.231 229.594 1023.89 171.911 1023.89 171.911C1023.89 171.911 938.239 203.063 885.929 242.308C833.619 281.554 834.461 314.032 834.461 314.032C834.461 314.032 893.612 308.085 945.922 268.84Z" fill="black"/>
<path d="M982.498 352.966C1047.85 309.484 1067.79 252.38 1067.79 252.38C1067.79 252.38 1005.79 267.421 940.436 310.903C875.086 354.385 831.134 409.844 831.134 409.844C831.134 409.844 917.149 396.448 982.498 352.966Z" fill="black"/>
<path d="M973.354 449.894C1045.71 402.477 1076.65 345.972 1076.65 345.972C1076.65 345.972 950.615 393.333 878.255 440.75C805.894 488.167 814.608 517.685 814.608 517.685C814.608 517.685 900.994 497.311 973.354 449.894Z" fill="black"/>
<path d="M984.681 556.795C1075.68 510.674 1110.02 456.203 1110.02 456.203C1110.02 456.203 1003.2 474.013 912.204 520.133C821.203 566.254 780.481 623.222 780.481 623.222C780.481 623.222 893.68 602.916 984.681 556.795Z" fill="black"/>
<path d="M987.61 661.431C1096.53 642.485 1159.45 596.823 1159.45 596.823C1159.45 596.823 1042.39 584.167 933.472 603.114C824.556 622.06 765.032 665.433 765.032 665.433C765.032 665.433 878.694 680.377 987.61 661.431Z" fill="black"/>
<path d="M978.495 775.427C1097.5 756.833 1159.45 700.513 1159.45 700.513C1159.45 700.513 1031.44 687.476 912.432 706.069C793.427 724.663 728.498 767.847 728.498 767.847C728.498 767.847 859.49 794.02 978.495 775.427Z" fill="black"/>
<path d="M938.176 996.161C1074.44 978.17 1145.14 922.155 1145.14 922.155C1145.14 922.155 998.39 908.464 862.128 926.455C725.866 944.446 651.689 987.307 651.689 987.307C651.689 987.307 801.914 1014.15 938.176 996.161Z" fill="black"/>
<path d="M834.011 1476.47C968.921 1450.19 1036.07 1389.96 1036.07 1389.96C1036.07 1389.96 888.758 1385.26 753.849 1411.53C618.939 1437.81 547.517 1485.12 547.517 1485.12C547.517 1485.12 699.101 1502.74 834.011 1476.47Z" fill="black"/>
<path d="M924.26 1105.36C1074.85 1072.04 1160.53 1009.32 1160.53 1009.32C1160.53 1009.32 1015.33 1006.86 864.738 1040.19C714.145 1073.51 615.184 1129.99 615.184 1129.99C615.184 1129.99 773.667 1138.68 924.26 1105.36Z" fill="black"/>
<path d="M865.737 1354.08C1016.33 1320.76 1102 1258.04 1102 1258.04C1102 1258.04 956.807 1255.59 806.215 1288.91C655.622 1322.23 556.661 1378.71 556.661 1378.71C556.661 1378.71 715.144 1387.4 865.737 1354.08Z" fill="black"/>
<path d="M909.849 1237.64C1073.44 1209.17 1172.73 1144.33 1172.73 1144.33C1172.73 1144.33 1016.39 1137.2 852.795 1165.67C689.2 1194.13 580.297 1247.4 580.297 1247.4C580.297 1247.4 746.254 1266.1 909.849 1237.64Z" fill="black"/>
<path d="M263.924 1190.97C105.444 1141.4 15.4727 1064.15 15.4727 1064.15C15.4727 1064.15 198.17 1076.99 356.651 1126.56C515.131 1176.13 589.382 1243.67 589.382 1243.67C589.382 1243.67 422.405 1240.54 263.924 1190.97Z" fill="black"/>
<path d="M348.511 1072.48C213.567 1004.73 126.446 917.004 126.446 917.004C126.446 917.004 252.095 933.491 387.038 1001.24C521.981 1068.99 615.118 1162.35 615.118 1162.35C615.118 1162.35 483.454 1140.23 348.511 1072.48Z" fill="black"/>
<path d="M300.508 1341.52C149.741 1333.2 34.8666 1287.49 34.8666 1287.49C34.8666 1287.49 156.669 1252.51 307.436 1260.83C458.203 1269.16 580.842 1317.64 580.842 1317.64C580.842 1317.64 451.275 1349.85 300.508 1341.52Z" fill="black"/>
<path d="M434.019 975.555C561.021 1028.11 650.256 1014.95 650.256 1014.95C650.256 1014.95 576.924 945.023 449.921 892.472C322.919 839.922 190.34 824.644 190.34 824.644C190.34 824.644 307.017 923.005 434.019 975.555Z" fill="black"/>
<path d="M353.6 1589.4C482.288 1577.84 551.6 1525.23 551.6 1525.23C551.6 1525.23 460.615 1496.75 331.927 1508.32C203.24 1519.88 85.5819 1567.11 85.5819 1567.11C85.5819 1567.11 224.913 1600.96 353.6 1589.4Z" fill="black"/>
<path d="M350.225 1460.2C487.478 1452.95 562.355 1402.66 562.355 1402.66C562.355 1402.66 466.063 1371.12 328.81 1378.36C191.556 1385.61 65.3149 1428.9 65.3149 1428.9C65.3149 1428.9 212.971 1467.44 350.225 1460.2Z" fill="black"/>
<path d="M898.201 891.913C772.682 908.791 694.565 872.718 694.565 872.718C694.565 872.718 820.54 822.784 946.059 805.906C1071.58 789.028 1149.11 811.597 1149.11 811.597C1149.11 811.597 1023.72 875.035 898.201 891.913Z" fill="black"/>
<path d="M444.955 852.708C332.796 808.797 284.501 740.404 284.501 740.404C284.501 740.404 367.625 753.481 491.985 782.742C616.346 812.003 690.667 899.417 690.667 899.417C690.667 899.417 557.115 896.618 444.955 852.708Z" fill="black"/>
<path d="M539.245 746.589C434.711 706.779 378.38 608.685 378.38 608.685C378.38 608.685 493.187 634.832 590.001 688.206C686.814 741.579 728.974 801.968 728.974 801.968C728.974 801.968 643.78 786.4 539.245 746.589Z" fill="black"/>
<path d="M638.678 561.453C720.649 605.729 798.549 613.577 798.549 613.577C798.549 613.577 757.228 554.522 675.256 510.246C593.284 465.97 501.703 453.239 501.703 453.239C501.703 453.239 556.706 517.177 638.678 561.453Z" fill="black"/>
<path d="M702.688 398.686C637.338 355.203 594.151 292.613 594.151 292.613C594.151 292.613 698.998 330.001 764.348 373.484C829.697 416.966 830.802 450.077 830.802 450.077C830.802 450.077 768.037 442.168 702.688 398.686Z" fill="black"/>
<path d="M684.399 479.156C619.05 435.674 575.862 373.084 575.862 373.084C575.862 373.084 659.284 389.953 724.634 433.435C789.983 476.918 812.514 530.547 812.514 530.547C812.514 530.547 749.749 522.638 684.399 479.156Z" fill="black"/>
<path d="M737.436 318.218C795.111 349.041 839.851 339.449 839.851 339.449C839.851 339.449 813.4 299.663 755.725 268.84C698.049 238.017 630.989 227.829 630.989 227.829C630.989 227.829 679.76 287.396 737.436 318.218Z" fill="black"/>
<path d="M733.778 235.921C686.074 214.598 665.779 179.227 665.779 179.227C665.779 179.227 711.678 179.85 759.382 201.173C807.087 222.496 838.533 256.443 838.533 256.443C838.533 256.443 781.483 257.243 733.778 235.921Z" fill="black"/>
<rect width="21.946" height="15.0386" transform="matrix(-0.927184 -0.374607 -0.374607 0.927184 758.826 680.768)" fill="#E5E5E5"/>
<rect width="21.946" height="16.5154" transform="matrix(-0.997564 0.0697565 0.0697565 0.997564 739.941 673.012)" fill="#E5E5E5"/>
<path d="M548.976 641.379C447.114 598.417 397.88 535.572 397.88 535.572C397.88 535.572 514.791 549.575 616.654 592.537C718.516 635.498 766.757 691.149 766.757 691.149C766.757 691.149 650.839 684.34 548.976 641.379Z" fill="black"/>
</svg>
