<svg width="566" height="1562" viewBox="0 0 566 1562" fill="none" xmlns="http://www.w3.org/2000/svg">
<path d="M349.275 1.69653C301.769 235.155 282.321 713.667 282.321 901.596C282.321 1536.14 349.275 1556.5 349.275 1556.5" stroke="black" stroke-width="10"/>
<path d="M465.416 106.21C465.416 124.463 457.717 137.754 445.485 146.532C433.195 155.353 416.227 159.681 397.693 159.681C379.16 159.681 362.889 155.353 351.29 146.556C339.747 137.801 332.685 124.514 332.685 106.21C332.685 88.0517 345.047 66.3574 362.303 49.1022C379.558 31.847 401.252 19.4843 419.41 19.4843C437.279 19.4843 448.752 31.5114 455.833 48.6153C462.917 65.729 465.416 87.5631 465.416 106.21Z" fill="black" stroke="black" stroke-width="3"/>
<path d="M465.416 419.138C465.416 440.099 455.933 455.407 440.798 465.536C425.599 475.707 404.635 480.686 381.772 480.686C358.909 480.686 338.798 475.707 324.447 465.558C310.162 455.455 301.466 440.153 301.466 419.138C301.466 398.268 316.702 373.343 337.96 353.521C359.198 333.717 385.977 319.451 408.484 319.451C430.723 319.451 444.909 333.418 453.617 353.033C462.343 372.686 465.416 397.747 465.416 419.138Z" fill="black" stroke="black" stroke-width="3"/>
<path d="M415.916 676.587C395.917 687.902 376.031 686.872 357.942 677.482C339.783 668.056 323.395 650.171 310.712 627.753C298.028 605.335 291.61 582.91 293.333 563.33C295.049 543.833 304.841 527.036 324.887 515.694C334.816 510.076 347.831 507.612 362.271 507.846C376.695 508.079 392.436 511.004 407.728 516.057C438.38 526.187 466.87 544.744 479.382 566.859C491.766 588.747 486.269 610.251 472.396 629.367C458.492 648.525 436.303 665.053 415.916 676.587Z" fill="black" stroke="black" stroke-width="3"/>
<path d="M274.433 674.367C265.271 695.439 248.769 706.585 228.671 709.972C208.496 713.372 184.644 708.951 161.024 698.681C137.403 688.41 118.781 674.363 108.374 657.689C98.0111 641.085 95.7221 621.777 104.906 600.655C109.455 590.193 118.366 580.393 130.039 571.889C141.699 563.395 156.031 556.257 171.284 551.091C201.86 540.734 235.782 538.408 259.083 548.54C282.146 558.568 290.697 579.05 291.122 602.665C291.547 626.333 283.773 652.886 274.433 674.367Z" fill="black" stroke="black" stroke-width="3"/>
<path d="M296.772 850.166C281.942 828.986 281.043 806.523 289.766 785.134C298.518 763.673 316.985 743.259 340.922 726.498C364.859 709.737 389.471 699.988 411.735 699.705C433.915 699.423 453.881 708.526 468.743 729.751C476.112 740.275 480.233 754.612 481.462 770.838C482.689 787.048 481.021 805.036 476.909 822.757C468.67 858.269 450.712 892.349 427.058 908.912C403.614 925.328 378.76 921.567 355.787 908.164C332.765 894.732 311.861 871.716 296.772 850.166Z" fill="black" stroke="black" stroke-width="3"/>
<path d="M225.88 905.094C206.817 922.562 184.664 926.385 162.319 920.529C139.899 914.653 117.25 899.009 97.5077 877.464C77.7657 855.92 64.8869 832.791 61.7002 810.754C58.5256 788.8 64.9451 767.817 84.0487 750.312C93.5202 741.633 107.197 735.675 123.124 732.339C139.035 729.006 157.087 728.313 175.193 730.076C211.477 733.61 247.609 746.966 267.118 768.256C286.453 789.356 285.968 814.488 275.678 839.014C265.367 863.592 245.276 887.321 225.88 905.094Z" fill="black" stroke="black" stroke-width="3"/>
<path d="M462.477 1128.62C441.096 1148.21 416.571 1152.83 392.06 1146.83C367.474 1140.8 342.837 1124.06 321.52 1100.8C300.204 1077.54 286.463 1052.4 283.376 1028.25C280.299 1004.18 287.781 980.973 309.201 961.345C330.516 941.814 370.134 934.15 410.046 937.334C449.931 940.516 489.462 954.482 510.538 977.483C531.434 1000.29 530.425 1027.92 518.605 1055.08C506.768 1082.29 484.176 1108.73 462.477 1128.62Z" fill="black" stroke="black" stroke-width="3"/>
<path d="M218.16 1138.12C196.779 1157.71 172.254 1162.33 147.744 1156.33C123.158 1150.3 98.5201 1133.56 77.2039 1110.3C55.8878 1087.04 42.1467 1061.9 39.0595 1037.75C35.9825 1013.69 43.4642 990.474 64.8849 970.846C86.1992 951.315 125.818 943.651 165.729 946.835C205.614 950.017 245.146 963.983 266.222 986.984C287.117 1009.79 286.109 1037.42 274.288 1064.58C262.451 1091.79 239.859 1118.23 218.16 1138.12Z" fill="black" stroke="black" stroke-width="3"/>
<path d="M265.276 504.926C252.371 521.444 235.474 527.668 217.311 526.332C199.072 524.989 179.487 516.006 161.471 501.93C143.455 487.854 130.672 471.55 125.612 454.716C120.576 437.961 123.144 420.549 136.082 403.989C148.931 387.543 176.283 377.282 205.237 374.749C234.166 372.219 264.051 377.464 281.787 391.321C299.311 405.012 301.891 424.752 296.677 445.57C291.453 466.429 278.446 488.07 265.276 504.926Z" fill="black" stroke="black" stroke-width="3"/>
<path d="M200.034 228.344C212.483 214.994 227.178 210.525 242.11 212.447C257.115 214.378 272.476 222.784 286.031 235.424C299.585 248.064 308.533 262.326 311.017 276.671C313.488 290.945 309.591 305.479 297.108 318.866C284.724 332.146 260.887 339.581 236.499 340.433C212.112 341.285 187.814 335.531 174.534 323.147C161.465 310.96 161.277 294.34 167.764 277.002C174.254 259.654 187.317 241.981 200.034 228.344Z" fill="black" stroke="black" stroke-width="3"/>
<path d="M440.221 279.702C431.652 295.818 418.614 303.939 403.693 305.947C388.701 307.965 371.687 303.821 355.322 295.12C338.958 286.419 326.624 274.959 320.513 261.746C314.431 248.597 314.433 233.55 323.026 217.388C331.551 201.355 352.652 188.004 375.988 180.87C399.324 173.735 424.283 173.004 440.316 181.529C456.093 189.918 460.576 205.923 458.799 224.35C457.02 242.786 448.975 263.238 440.221 279.702Z" fill="black" stroke="black" stroke-width="3"/>
<path d="M310.055 83.5811C324.341 94.9442 329.949 109.244 329.205 124.28C328.457 139.39 321.282 155.363 309.744 169.868C298.206 184.373 284.691 194.412 270.585 198.013C256.549 201.596 241.753 198.853 227.428 187.458C213.218 176.154 203.935 152.974 201.173 128.728C198.411 104.483 202.24 79.8085 213.544 65.5979C224.668 51.6133 241.222 50.1218 259.016 55.2278C276.819 60.3368 295.463 71.9733 310.055 83.5811Z" fill="black" stroke="black" stroke-width="3"/>
</svg>
