<svg width="417" height="1148" viewBox="0 0 417 1148" fill="none" xmlns="http://www.w3.org/2000/svg">
<path d="M257.328 1C222.328 173 208 525.544 208 664C208 1131.5 257.328 1146.5 257.328 1146.5" stroke="black" stroke-width="3"/>
<path d="M342.5 78C342.5 91.32 336.89 100.993 327.981 107.387C319.013 113.823 306.601 117 293 117C279.4 117 267.507 113.824 259.051 107.41C250.652 101.04 245.5 91.3709 245.5 78C245.5 64.7755 254.523 48.8876 267.205 36.2053C279.888 23.5231 295.776 14.5 309 14.5C321.936 14.5 330.282 23.1875 335.469 35.7184C340.661 48.2591 342.5 64.2869 342.5 78Z" stroke="black" stroke-width="3"/>
<path d="M342.5 308.55C342.5 323.853 335.586 335.011 324.538 342.405C313.425 349.842 298.065 353.5 281.27 353.5C264.475 353.5 249.748 349.842 239.264 342.427C228.846 335.059 222.5 323.906 222.5 308.55C222.5 293.338 233.628 275.072 249.261 260.495C264.875 245.936 284.511 235.5 300.95 235.5C317.121 235.5 327.461 245.637 333.841 260.007C340.238 274.415 342.5 292.817 342.5 308.55Z" stroke="black" stroke-width="3"/>
<path d="M306.232 497.881C291.624 506.146 277.115 505.396 263.895 498.534C250.606 491.636 238.581 478.527 229.26 462.052C219.939 445.577 215.246 429.137 216.506 414.818C217.759 400.582 224.9 388.323 239.555 380.031C246.788 375.938 256.3 374.129 266.896 374.3C277.477 374.471 289.035 376.617 300.269 380.33C322.807 387.778 343.691 401.406 352.841 417.577C361.862 433.523 357.884 449.196 347.718 463.203C337.521 477.254 321.227 489.397 306.232 497.881Z" stroke="black" stroke-width="3"/>
<path d="M201.826 496.432C195.134 511.824 183.095 519.957 168.408 522.432C153.643 524.92 136.15 521.688 118.792 514.14C101.433 506.592 87.7903 496.287 80.1794 484.093C72.613 471.97 70.9374 457.881 77.6518 442.439C80.9657 434.818 87.4727 427.648 96.0385 421.408C104.592 415.177 115.113 409.936 126.32 406.14C148.802 398.524 173.682 396.839 190.722 404.248C207.523 411.554 213.778 426.465 214.089 443.77C214.401 461.128 208.696 480.632 201.826 496.432Z" stroke="black" stroke-width="3"/>
<path d="M218.97 625.883C208.128 610.399 207.47 593.993 213.85 578.346C220.261 562.628 233.803 547.642 251.4 535.321C268.998 522.999 287.054 515.859 303.351 515.652C319.563 515.446 334.149 522.091 345.023 537.62C350.397 545.295 353.421 555.782 354.323 567.694C355.224 579.59 354 592.803 350.978 605.826C344.918 631.944 331.722 656.943 314.408 669.067C297.304 681.043 279.168 678.325 262.325 668.498C245.433 658.642 230.071 641.736 218.97 625.883Z" stroke="black" stroke-width="3"/>
<path d="M166.15 666.286C152.214 679.056 136.034 681.851 119.689 677.567C103.268 673.263 86.6428 661.792 72.1298 645.954C57.6167 630.116 48.1809 613.146 45.8483 597.016C43.5279 580.969 48.2126 565.64 62.1895 552.833C69.0977 546.503 79.0997 542.136 90.7923 539.687C102.469 537.241 115.728 536.73 129.035 538.026C155.72 540.625 182.228 550.445 196.508 566.029C210.614 581.423 210.286 599.758 202.742 617.74C195.176 635.774 180.419 653.211 166.15 666.286Z" stroke="black" stroke-width="3"/>
<path d="M340.463 830.965C324.814 845.305 306.883 848.683 288.944 844.289C270.93 839.876 252.842 827.598 237.171 810.496C221.5 793.394 211.429 774.943 209.169 757.262C206.918 739.661 212.382 722.687 228.071 708.311C243.653 694.033 272.704 688.381 302.07 690.724C331.409 693.064 360.416 703.336 375.848 720.176C391.098 736.819 390.393 756.993 381.72 776.924C373.03 796.894 356.429 816.334 340.463 830.965Z" stroke="black" stroke-width="3"/>
<path d="M160.463 837.965C144.814 852.305 126.883 855.683 108.944 851.289C90.9297 846.876 72.8424 834.598 57.1711 817.496C41.4997 800.394 31.4295 781.943 29.1687 764.262C26.9183 746.661 32.3822 729.687 48.0707 715.311C63.6527 701.033 92.7038 695.381 122.07 697.724C151.409 700.064 180.416 710.336 195.848 727.176C211.098 743.819 210.393 763.993 201.72 783.924C193.03 803.894 176.429 823.334 160.463 837.965Z" stroke="black" stroke-width="3"/>
<path d="M195.131 371.511C185.709 383.57 173.391 388.106 160.133 387.131C146.798 386.149 132.441 379.575 119.207 369.235C105.972 358.895 96.6195 346.946 92.9228 334.648C89.2496 322.428 91.115 309.733 100.569 297.632C109.935 285.644 129.95 278.102 151.243 276.24C172.51 274.38 194.409 278.246 207.363 288.366C220.106 298.322 222.013 312.676 218.193 327.928C214.364 343.22 204.817 359.113 195.131 371.511Z" stroke="black" stroke-width="3"/>
<path d="M147.664 168.251C156.748 158.51 167.448 155.262 178.324 156.661C189.272 158.07 200.517 164.212 210.464 173.488C220.41 182.763 226.942 193.197 228.752 203.654C230.55 214.041 227.724 224.626 218.605 234.405C209.586 244.077 192.151 249.543 174.227 250.169C156.302 250.795 138.529 246.558 128.857 237.539C119.397 228.717 119.217 216.672 123.97 203.969C128.725 191.257 138.311 178.281 147.664 168.251Z" stroke="black" stroke-width="3"/>
<path d="M323.984 205.635C317.731 217.395 308.236 223.302 297.368 224.765C286.428 226.238 273.977 223.216 261.969 216.831C249.96 210.446 240.951 202.058 236.496 192.425C232.071 182.858 232.061 171.902 238.338 160.096C244.547 148.419 259.972 138.627 277.124 133.383C294.276 128.14 312.54 127.632 324.217 133.84C335.638 139.913 338.929 151.502 337.626 165.001C336.323 178.512 330.422 193.527 323.984 205.635Z" stroke="black" stroke-width="3"/>
<path d="M228.187 61.6374C238.612 69.9293 242.689 80.3417 242.147 91.2939C241.601 102.319 236.361 114.01 227.894 124.655C219.428 135.298 209.539 142.628 199.256 145.253C189.042 147.861 178.268 145.874 167.803 137.55C157.454 129.318 150.637 112.366 148.606 94.5458C146.576 76.7257 149.405 58.6746 157.637 48.3251C165.69 38.2015 177.685 37.0778 190.721 40.8187C203.767 44.5624 217.455 53.1008 228.187 61.6374Z" stroke="black" stroke-width="3"/>
</svg>
