<svg width="835" height="1656" viewBox="0 0 835 1656" fill="none" xmlns="http://www.w3.org/2000/svg">
<path d="M406.5 156C406.5 156 487.096 419.753 484 522C479.874 658.236 384.405 797.705 383.5 934C382.58 1072.45 464.16 1218.97 484 1356C495.36 1434.46 484 1559 484 1559" stroke="black" stroke-width="3"/>
<path d="M446.002 69C417.248 108.767 418.002 191.5 418.002 191.5C418.002 191.5 496.14 189.843 527.502 138C554.184 93.8933 562.502 3 562.502 3C562.502 3 476.641 26.6267 446.002 69Z" stroke="black" stroke-width="3"/>
<path d="M545.365 184.81C498.83 201.185 439.001 268.557 439.001 268.557C439.001 268.557 487.919 310.175 544.847 285.459C593.279 264.432 664.593 195.444 664.593 195.444C664.593 195.444 594.95 167.361 545.365 184.81Z" stroke="black" stroke-width="3"/>
<path d="M325.358 321.755C285.224 293.516 259.002 215.045 259.002 215.045C259.002 215.045 333.422 191.172 379.954 229.98C419.542 262.997 456.999 346.23 456.999 346.23C456.999 346.23 368.123 351.844 325.358 321.755Z" stroke="black" stroke-width="3"/>
<path d="M323.5 504.293C275.924 486.861 204.5 417.247 204.5 417.247C204.5 417.247 322.392 391.795 376.5 417.247C422.534 438.901 482.121 504.293 482.121 504.293C482.121 504.293 374.194 522.868 323.5 504.293Z" stroke="black" stroke-width="3"/>
<path d="M365.5 679.564C421.058 662.295 472.005 599.312 472.005 599.312C472.005 599.312 350.483 554.798 287.5 580.564C179 624.952 142.5 679.564 142.5 679.564C142.5 679.564 244 717.331 365.5 679.564Z" stroke="black" stroke-width="3"/>
<path d="M620.5 758.5C701 737 791.927 689.397 791.927 689.397C791.927 689.397 721.136 647.623 637.976 643.974C497.5 637.809 437.017 715.414 437.017 715.414C437.017 715.414 501.135 790.38 620.5 758.5Z" stroke="black" stroke-width="3"/>
<path d="M620.5 758.5C701 737 791.927 689.397 791.927 689.397C791.927 689.397 721.136 647.623 637.976 643.974C497.5 637.809 437.017 715.414 437.017 715.414C437.017 715.414 501.135 790.38 620.5 758.5Z" stroke="black" stroke-width="3"/>
<path d="M258.5 867C338 861 403.231 807.397 403.231 807.397C403.231 807.397 300.175 725.803 221 751.5C164 770 71 820 71 820C71 820 135.302 876.298 258.5 867Z" stroke="black" stroke-width="3"/>
<path d="M631 593.739C686.558 576.469 786 479.239 786 479.239C786 479.239 662.984 441.972 600 467.739C546.416 489.66 478 578.99 478 578.99C478 578.99 571.801 612.14 631 593.739Z" stroke="black" stroke-width="3"/>
<path d="M627.853 417.849C581.87 449.518 479.939 460.438 479.939 460.438C479.939 460.438 473.901 389.304 534.482 353.574C586.023 323.177 697.061 302.88 697.061 302.88C697.061 302.88 676.851 384.104 627.853 417.849Z" stroke="black" stroke-width="3"/>
<path d="M317.804 1545.5C398.304 1524 489.231 1476.4 489.231 1476.4C489.231 1476.4 418.44 1434.62 335.28 1430.97C194.804 1424.81 134.321 1502.41 134.321 1502.41C134.321 1502.41 198.439 1577.38 317.804 1545.5Z" stroke="black" stroke-width="3"/>
<path d="M211.804 1050.5C296 1050.5 383.231 978.397 383.231 978.397C383.231 978.397 294.965 922.149 211.804 918.5C128.643 914.851 3.00006 1007.5 3.00006 1007.5C3.00006 1007.5 60.8893 1050.5 211.804 1050.5Z" stroke="black" stroke-width="3"/>
<path d="M570.146 926.874C489.418 950.787 385.3 906.429 385.3 906.429C385.3 906.429 453.957 827.428 532.656 800.31C611.356 773.192 758.139 826.341 758.139 826.341C758.139 826.341 714.846 884.012 570.146 926.874Z" stroke="black" stroke-width="3"/>
<path d="M308.776 1387.23C391.935 1374.06 466.813 1289.19 466.813 1289.19C466.813 1289.19 370.834 1247.45 288.127 1256.85C205.419 1266.26 95.8159 1377.42 95.8159 1377.42C95.8159 1377.42 159.719 1410.83 308.776 1387.23Z" stroke="black" stroke-width="3"/>
<path d="M651.905 1384.88C784.677 1364.67 832.107 1254.57 832.107 1254.57C832.107 1254.57 722.522 1248.33 627.331 1274.04C532.14 1299.75 489 1421 489 1421C489 1421 502.71 1407.6 651.905 1384.88Z" stroke="black" stroke-width="3"/>
<path d="M244.5 1226.74C345.5 1195.34 414 1112.24 414 1112.24C414 1112.24 331.5 1059.23 181 1094C102.06 1112.24 12.5 1226.74 12.5 1226.74C12.5 1226.74 143.5 1258.13 244.5 1226.74Z" stroke="black" stroke-width="3"/>
<path d="M643.5 1066C711 1019.15 808.5 963.346 808.5 963.346C808.5 963.346 688.5 937.353 576 963.346C497.06 981.585 407 1077.85 407 1077.85C407 1077.85 576 1112.85 643.5 1066Z" stroke="black" stroke-width="3"/>
<path d="M693.5 1225.11C777.5 1187 812 1122.46 812 1122.46C812 1122.46 738.5 1096.47 626 1122.46C547.06 1140.7 457 1236.96 457 1236.96C457 1236.96 609.5 1263.22 693.5 1225.11Z" stroke="black" stroke-width="3"/>
</svg>
