<?xml version="1.0" standalone="no"?>
<!DOCTYPE svg PUBLIC "-//W3C//DTD SVG 20010904//EN"
 "http://www.w3.org/TR/2001/REC-SVG-20010904/DTD/svg10.dtd">
<svg version="1.0" xmlns="http://www.w3.org/2000/svg"
 width="512.000000pt" height="512.000000pt" viewBox="0 0 512.000000 512.000000"
 preserveAspectRatio="xMidYMid meet">
<metadata>
Created by potrace 1.11, written by Peter Selinger 2001-2013
</metadata>
<g transform="translate(0.000000,512.000000) scale(0.100000,-0.100000)"
fill="#000000" stroke="none">
<path d="M907 4467 c3 -4 -3 -17 -13 -28 -20 -23 -12 -26 10 -3 11 10 16 11
16 3 0 -6 -8 -17 -17 -24 -15 -11 -17 -36 -18 -209 -1 -177 -3 -198 -19 -214
-11 -9 -16 -12 -12 -6 4 9 -14 12 -65 11 -64 -1 -70 -2 -65 -20 3 -13 0 -17
-9 -13 -8 3 -17 0 -21 -6 -5 -7 -2 -8 6 -3 10 6 12 4 7 -9 -4 -9 -3 -15 1 -12
4 2 8 -58 8 -134 1 -113 -1 -140 -13 -144 -8 -3 -11 -10 -8 -16 8 -12 -5 -13
-24 -1 -12 8 -10 12 12 22 27 12 37 29 17 29 -5 0 -10 -4 -10 -10 0 -5 -5 -10
-11 -10 -5 0 -7 5 -4 10 3 6 1 10 -5 10 -7 0 -9 -7 -6 -16 4 -11 2 -15 -7 -11
-7 3 -13 -3 -13 -13 0 -10 3 -17 7 -15 10 7 50 -26 43 -36 -3 -6 -11 -3 -18 7
-20 27 -35 8 -31 -41 l4 -44 -199 0 c-110 0 -205 -3 -211 -7 -8 -5 -9 -3 -4 5
6 10 3 11 -12 3 -10 -6 -27 -10 -37 -9 -11 1 -20 -5 -21 -15 -2 -11 2 -15 11
-11 8 3 12 8 10 12 -3 4 4 7 14 7 10 0 16 -5 13 -10 -4 -5 0 -7 8 -4 11 4 14
-7 14 -57 0 -44 -4 -61 -12 -58 -7 3 -10 -5 -9 -22 2 -14 -3 -32 -10 -40 -11
-10 -11 -14 -1 -18 6 -2 17 5 24 17 11 20 11 19 10 -6 -1 -14 -5 -24 -9 -21
-5 2 -8 0 -8 -6 0 -5 5 -13 10 -16 7 -4 7 -12 0 -25 -13 -25 -13 -33 3 -24 9
6 9 5 0 -7 -10 -12 -10 -18 0 -28 9 -10 8 -11 -8 -5 -11 4 -17 4 -13 -1 4 -4
3 -16 -2 -26 -8 -14 -5 -21 11 -32 13 -9 16 -17 10 -22 -6 -3 -11 -11 -11 -16
0 -6 4 -8 9 -5 10 7 9 -20 -2 -30 -4 -4 -1 -14 6 -23 11 -14 10 -15 -7 -1 -18
14 -19 13 -13 -3 4 -10 7 -21 7 -23 0 -3 4 -3 8 0 4 2 8 -4 8 -14 0 -10 -4
-16 -8 -14 -4 3 -8 0 -8 -5 0 -6 4 -11 8 -11 5 0 9 -7 9 -15 0 -8 -4 -12 -9
-9 -10 6 -11 -10 -1 -20 4 -3 8 -17 10 -29 2 -17 1 -19 -6 -7 -5 8 -7 18 -5
22 8 13 -10 9 -32 -6 -17 -13 -21 -13 -21 -1 0 8 4 12 9 9 5 -4 9 0 7 7 -3 29
1 41 14 36 9 -3 14 4 14 23 0 28 -22 36 -40 15 -9 -10 -6 2 9 39 6 15 4 17 -7
11 -12 -8 -12 -6 0 8 11 14 11 17 0 17 -11 0 -11 2 1 9 8 6 18 7 22 5 4 -3 8
-1 8 5 0 5 3 18 6 28 5 16 4 16 -10 -1 -9 -11 -17 -15 -17 -8 -1 7 -2 17 -3
24 0 6 -6 13 -11 15 -7 2 -10 -76 -11 -227 0 -126 3 -230 6 -230 4 0 7 6 7 13
0 6 4 21 8 32 5 16 5 17 -4 5 -9 -13 -11 -13 -11 3 0 9 4 17 10 17 5 0 7 7 4
15 -6 14 5 19 34 16 10 -2 10 2 0 18 -14 22 -30 28 -26 10 2 -6 -4 -14 -12
-16 -9 -3 -11 -1 -5 4 14 12 17 33 4 33 -6 0 -1 9 12 20 13 10 19 19 14 20 -6
0 -16 -5 -23 -12 -7 -7 -12 -8 -12 -2 0 5 9 15 19 21 15 10 20 9 25 -2 3 -8
-1 -21 -9 -29 -11 -11 -12 -15 -2 -19 6 -2 17 5 24 17 11 20 11 19 10 -6 -1
-14 -5 -24 -9 -21 -5 2 -8 0 -8 -6 0 -5 5 -13 10 -16 7 -4 7 -12 0 -25 -12
-22 -13 -33 -2 -27 4 3 7 -9 7 -27 0 -19 -5 -33 -12 -34 -7 -1 -20 -3 -28 -4
-9 -1 -14 -6 -12 -12 3 -6 11 -9 18 -8 8 2 18 4 24 5 5 1 9 -11 10 -28 0 -23
-5 -30 -19 -30 -11 0 -21 -5 -23 -12 -3 -7 6 -10 22 -9 20 3 23 1 14 -10 -6
-8 -7 -14 -2 -14 5 0 10 -7 10 -15 0 -8 -4 -12 -9 -9 -4 3 -8 1 -8 -5 0 -5 5
-13 11 -16 7 -5 4 -14 -8 -28 -14 -15 -14 -19 -3 -15 12 4 15 -4 16 -39 0 -24
-3 -38 -7 -31 -4 6 -5 16 -3 20 3 4 1 8 -4 8 -16 0 -21 -13 -12 -31 7 -12 6
-22 -5 -33 -11 -11 -12 -15 -2 -19 6 -2 17 5 24 17 11 20 11 19 10 -6 -1 -14
-5 -24 -9 -21 -5 2 -8 0 -8 -6 0 -5 5 -13 10 -16 7 -4 7 -12 0 -25 -13 -25
-13 -33 2 -24 10 6 10 5 1 -7 -10 -12 -10 -18 0 -28 9 -10 8 -11 -8 -5 -11 4
-17 4 -13 -1 4 -4 3 -16 -2 -25 -7 -13 -5 -22 7 -31 14 -12 16 -12 11 2 -3 9
-3 21 1 28 4 6 8 -13 8 -44 0 -31 -3 -52 -6 -48 -10 13 -50 12 -45 -2 4 -9 35
-12 110 -11 98 1 109 -2 105 -27 -1 -5 3 -5 9 -2 14 9 9 -27 -5 -38 -6 -5 -4
-7 4 -5 17 5 24 38 11 53 -6 8 2 11 25 12 33 1 34 0 32 -41 0 -22 -6 -44 -11
-48 -8 -5 -8 -8 0 -8 6 0 12 -25 13 -61 2 -48 -1 -59 -11 -53 -9 6 -9 3 1 -10
11 -13 28 -17 75 -15 98 2 109 1 103 -15 -4 -9 -1 -13 6 -10 8 3 13 -4 13 -16
0 -11 -5 -19 -11 -17 -5 3 -10 -9 -10 -27 0 -23 6 -34 23 -41 23 -10 25 -26 2
-33 -7 -3 -10 0 -6 6 3 5 -1 13 -9 16 -12 4 -13 2 -6 -13 6 -11 21 -18 37 -19
14 0 22 3 18 7 -9 6 -14 27 -16 61 0 8 -5 21 -11 28 -11 14 4 17 19 2 7 -7 9
-1 8 18 -2 44 -4 48 -13 34 -6 -10 -10 -10 -20 1 -9 12 -8 16 3 20 9 4 18 2
21 -4 4 -5 10 -7 14 -5 3 3 7 -53 7 -124 0 -71 -3 -127 -8 -124 -5 3 -6 10 -3
15 4 5 2 9 -3 9 -6 0 -9 -11 -8 -24 0 -13 6 -22 11 -20 7 3 11 -24 11 -71 0
-46 -4 -75 -10 -75 -6 0 -4 -5 4 -10 8 -5 15 -17 15 -27 0 -16 10 -18 80 -19
44 0 86 4 94 10 11 8 13 8 8 -1 -6 -9 16 -11 82 -10 78 2 88 4 78 17 -10 13
-8 12 8 -1 26 -20 82 -24 102 -7 12 9 15 9 9 1 -5 -10 6 -13 44 -13 38 0 49 3
44 13 -5 8 -3 8 9 -2 9 -7 30 -11 47 -9 32 5 63 -17 43 -30 -5 -4 -9 -29 -8
-57 2 -71 -3 -84 -28 -77 -20 5 -21 4 -7 -14 14 -18 14 -18 -5 -3 -17 14 -50
16 -207 16 -103 0 -185 -4 -182 -8 3 -5 12 -9 20 -9 8 0 12 -5 9 -10 -4 -7
-13 -7 -26 0 -11 6 -25 8 -31 4 -7 -5 -9 -2 -5 9 4 11 2 14 -9 10 -13 -5 -12
-8 3 -26 17 -20 17 -20 -2 -13 -15 5 -17 4 -9 -4 9 -9 17 -9 32 -1 14 8 24 7
38 -4 11 -8 14 -15 8 -15 -7 0 -10 -23 -9 -61 1 -35 -1 -55 -6 -47 -5 7 -9 11
-10 8 0 -3 -2 -16 -5 -29 -3 -18 -1 -21 9 -13 10 8 12 2 12 -28 0 -21 -3 -36
-6 -34 -4 2 -9 -3 -13 -11 -3 -8 -1 -17 4 -20 4 -3 10 1 13 7 2 7 4 -2 3 -20
0 -17 -4 -32 -9 -32 -4 0 -5 -6 0 -12 11 -18 13 -39 3 -33 -4 3 -10 -2 -14
-10 -3 -8 -1 -17 4 -20 4 -3 10 1 13 7 2 7 3 -8 2 -34 -1 -27 -5 -51 -8 -55
-10 -10 -8 -25 2 -19 13 8 8 -19 -7 -37 -8 -9 -9 -18 -3 -21 5 -3 11 0 14 6 2
7 3 -8 3 -33 -1 -28 -6 -46 -13 -46 -7 0 -10 4 -7 9 3 4 -2 5 -10 2 -10 -4
-16 -1 -16 7 0 11 -3 11 -10 -1 -5 -8 -10 -10 -10 -5 0 6 5 16 12 23 9 9 9 12
-1 12 -7 0 -9 5 -5 11 4 8 9 7 15 -2 6 -9 7 -2 4 19 -3 19 -1 32 5 32 6 0 8 5
5 10 -4 6 -10 8 -15 5 -5 -3 -12 0 -16 6 -4 8 -3 9 4 5 7 -4 12 -2 12 3 0 6
-5 11 -11 11 -5 0 -7 5 -3 11 5 8 8 8 14 0 5 -9 10 -7 20 4 11 13 10 15 -4 9
-10 -4 -16 -1 -16 7 0 11 -3 11 -10 -1 -5 -8 -10 -10 -10 -5 0 6 5 16 12 23 9
9 9 12 -1 12 -7 0 -9 5 -5 11 4 8 9 7 15 -2 6 -10 8 -7 6 8 0 12 -5 19 -11 16
-5 -3 -6 -1 -2 6 4 6 12 9 17 6 5 -4 9 -1 9 5 0 7 -7 9 -16 6 -8 -3 -12 -2 -9
3 3 5 1 12 -5 16 -6 4 -3 16 8 33 12 18 13 24 3 18 -10 -7 -12 -5 -6 4 6 9 4
11 -5 5 -8 -5 -11 -4 -6 3 4 6 14 8 24 5 14 -5 15 -3 5 8 -17 17 -17 43 0 36
22 -8 17 32 -5 44 -16 9 -19 8 -13 -3 5 -7 4 -10 0 -5 -12 11 -14 47 -2 40 6
-3 7 -1 3 5 -4 7 -2 10 6 9 7 -2 10 -2 6 0 -5 3 -8 9 -8 15 0 7 5 7 13 -1 8
-6 17 -8 20 -4 4 3 -1 12 -11 19 -11 8 -19 9 -23 2 -4 -7 -9 -6 -13 1 -4 6 -2
11 5 11 8 0 7 5 -2 17 -12 14 -12 16 0 8 11 -6 13 -4 8 9 -4 10 -7 20 -7 22 0
2 -3 4 -8 4 -6 0 -9 -616 -3 -654 0 -5 8 -3 17 5 13 10 17 10 24 -2 7 -10 9
-9 8 6 -1 12 -9 21 -19 21 -10 0 -15 -5 -12 -10 3 -5 1 -6 -6 -2 -9 6 -9 11
-1 21 7 8 9 19 5 25 -4 7 7 4 25 -5 26 -13 29 -19 19 -31 -9 -11 -9 -14 0 -14
7 0 10 -4 7 -8 -3 -5 6 -19 19 -30 19 -16 25 -18 25 -7 0 8 -8 19 -17 24 -10
6 -13 11 -7 11 24 0 38 -29 26 -55 -7 -15 -8 -25 -2 -25 6 0 10 5 10 10 0 6 5
10 11 10 5 0 8 -4 5 -8 -6 -10 590 -10 600 1 10 10 26 9 20 -1 -3 -5 1 -9 9
-9 8 0 16 6 19 13 3 7 0 11 -7 8 -8 -3 -13 4 -13 16 0 12 5 19 12 16 8 -3 12
20 11 85 0 77 -3 89 -16 84 -14 -5 -14 -4 0 7 12 10 15 35 16 110 0 70 -3 96
-11 91 -7 -4 -6 -1 1 9 7 8 10 17 7 21 -16 16 49 23 208 22 97 -1 175 2 172 7
-3 4 0 8 5 8 6 0 11 -4 11 -8 0 -4 56 -8 125 -8 120 0 125 0 119 19 -3 11 -2
17 3 14 4 -3 8 32 7 78 0 46 3 82 8 79 4 -3 8 0 8 7 0 7 3 10 6 7 3 -4 0 -16
-6 -28 -7 -12 -8 -20 -3 -17 4 3 14 -1 20 -8 10 -11 9 -15 -7 -20 -24 -7 -26
-21 -5 -23 8 -1 22 -3 30 -4 16 -1 19 -10 9 -21 -4 -3 -15 -2 -25 3 -12 7 -20
7 -24 0 -4 -6 -3 -10 2 -9 21 4 24 -2 12 -18 -13 -16 -12 -17 3 -5 9 8 22 11
28 7 6 -4 10 -3 9 2 -1 4 0 10 1 13 1 3 3 17 4 31 1 18 -2 25 -10 22 -8 -3
-11 3 -9 14 2 10 4 20 4 23 1 3 5 -1 10 -9 7 -10 9 -7 8 12 -1 14 -5 23 -8 21
-4 -2 -10 3 -13 12 -4 11 -2 15 7 11 8 -3 14 1 14 9 0 7 -3 11 -7 9 -4 -2 -7
9 -7 25 0 16 3 27 7 25 4 -2 7 2 7 10 0 8 -5 15 -10 15 -5 0 -4 6 2 14 16 19
-5 32 -25 16 -12 -11 -14 -9 -12 11 2 17 -2 23 -12 22 -12 -2 -15 10 -15 57
-1 33 2 55 6 49 4 -8 8 -7 13 2 3 9 5 6 5 -6 -2 -35 1 -45 12 -45 8 0 7 6 -2
17 -12 14 -12 16 1 11 8 -3 14 -12 14 -21 -1 -9 4 -18 10 -20 8 -3 11 8 9 32
l-2 36 96 -3 c78 -3 94 -1 88 10 -6 10 -5 11 6 1 7 -7 23 -13 35 -13 19 0 22
4 18 27 -3 15 -2 25 1 21 4 -3 8 -14 9 -25 2 -15 14 -18 80 -21 46 -2 74 -7
71 -13 -4 -5 -11 -6 -17 -3 -7 4 -8 2 -4 -5 4 -6 11 -9 16 -6 5 3 9 -81 9
-192 0 -109 2 -209 4 -223 1 -14 0 -27 -4 -30 -4 -3 55 -6 132 -6 95 -1 139 2
140 10 1 6 1 24 1 41 -1 19 2 25 7 16 6 -9 11 -10 15 -2 5 7 16 1 31 -17 16
-19 20 -29 12 -34 -17 -11 -27 -10 -27 3 0 5 5 7 10 4 14 -9 13 8 -2 23 -14
14 -32 16 -23 2 3 -5 1 -18 -4 -29 -10 -17 -6 -18 49 -17 35 0 58 5 56 11 -2
6 -12 9 -22 8 -18 -1 -18 -1 1 13 11 8 19 22 17 30 -2 11 3 9 17 -5 12 -12 28
-21 36 -21 22 0 18 8 -12 24 l-28 14 27 -1 c14 -1 24 -5 21 -9 -5 -10 11 -10
21 -1 3 4 15 7 25 8 13 1 17 -3 13 -14 -5 -14 -3 -14 11 -2 9 7 17 9 17 3 0
-17 -28 -22 -40 -7 -13 15 -30 11 -30 -6 0 -6 4 -8 9 -5 5 3 14 0 20 -8 9 -10
8 -15 -3 -19 -10 -4 -13 -1 -10 8 4 11 -1 13 -22 9 -16 -3 -32 -11 -37 -17 -6
-8 -7 -6 -3 6 3 9 1 17 -4 17 -15 0 -19 -15 -10 -30 8 -12 13 -13 30 -2 11 6
23 12 27 12 5 0 3 -4 -4 -8 -7 -4 28 -8 76 -8 65 0 88 3 84 12 -2 7 1 15 8 20
8 4 10 3 5 -5 -8 -13 12 -44 23 -37 4 3 13 -4 20 -16 10 -16 10 -19 -1 -12
-29 19 -33 10 -34 -83 0 -52 3 -88 8 -81 4 7 8 11 9 8 0 -3 2 -13 4 -23 2 -11
-1 -17 -8 -14 -8 3 -12 -15 -13 -59 0 -47 2 -59 10 -48 9 12 11 9 12 -16 1
-24 -1 -28 -12 -19 -10 9 -12 6 -9 -11 5 -25 15 -40 15 -22 0 6 12 18 26 25
17 9 23 17 15 21 -6 4 -11 2 -11 -4 0 -6 -5 -8 -11 -4 -8 4 -7 9 2 15 12 7 11
9 -1 9 -9 1 -5 6 10 15 14 8 20 14 13 15 -13 0 -12 17 2 40 7 13 6 13 -7 2
-14 -11 -18 -10 -27 7 -8 13 -8 22 -1 26 6 4 9 3 8 -2 -3 -9 5 -13 25 -13 8 1
7 4 -3 13 -14 11 -16 19 -11 45 1 4 6 0 12 -8 9 -13 10 -12 5 3 -3 9 -9 24
-12 32 -3 8 -2 15 3 15 5 0 9 19 10 42 1 29 -1 38 -7 28 -6 -8 -10 -10 -10 -5
0 6 5 16 11 22 8 8 6 18 -6 36 -15 24 -15 25 2 23 17 -3 18 -18 18 -204 1
-185 2 -203 19 -215 19 -14 15 -38 -7 -36 -9 0 -9 2 1 6 6 2 12 9 12 14 0 16
-15 10 -28 -12 -8 -12 -9 -18 -3 -14 6 3 11 2 11 -2 0 -5 151 -9 335 -9 237 1
332 4 323 11 -31 25 -59 63 -46 62 35 -1 58 4 58 14 0 5 -5 7 -12 3 -7 -5 -8
-3 -3 5 5 10 10 10 19 1 8 -8 7 -15 -6 -24 -15 -11 -14 -13 13 -13 19 0 25 3
17 9 -10 6 -10 8 2 8 12 0 15 16 17 73 1 42 -4 78 -10 86 -8 9 -8 12 -1 8 14
-8 15 56 0 65 -17 12 -28 9 -20 -4 5 -7 3 -8 -6 -3 -10 6 -10 11 3 20 9 7 13
16 9 20 -4 5 -1 5 6 1 7 -4 10 -12 7 -17 -4 -5 -2 -9 3 -9 5 0 9 51 9 115 0
63 -5 115 -9 115 -5 0 -6 -5 -2 -12 5 -7 3 -8 -6 -3 -10 6 -10 10 2 19 17 13
21 127 4 138 -8 5 -7 8 1 8 7 0 10 17 9 47 l-2 48 -77 1 c-53 1 -74 -2 -70
-10 5 -8 3 -8 -8 0 -21 16 -82 18 -73 2 6 -10 4 -10 -7 -2 -19 14 -61 16 -53
2 5 -7 2 -8 -7 -2 -22 14 -80 15 -72 1 5 -9 3 -9 -8 -1 -8 7 -33 11 -56 10
-40 -1 -42 1 -45 29 -2 17 -1 54 0 83 3 46 6 52 26 52 12 0 28 6 35 13 11 10
12 9 6 -1 -5 -11 4 -13 46 -10 30 2 60 8 68 12 9 6 12 5 7 -2 -4 -7 21 -10 83
-9 78 2 88 4 78 17 -10 13 -8 12 8 -1 26 -20 82 -24 102 -7 13 10 15 10 9 0
-6 -11 17 -12 120 -10 103 3 128 6 131 18 4 13 3 13 -6 0 -6 -8 -11 -13 -12
-10 0 3 -2 16 -5 29 -3 18 -1 21 8 13 10 -8 13 -1 15 29 0 24 -3 39 -10 39 -7
0 -6 4 2 9 12 8 11 12 -3 27 -17 17 -17 18 0 31 18 14 18 15 1 24 -17 10 -17
12 -2 35 11 18 12 24 3 24 -9 0 -9 3 -2 8 14 10 15 142 0 142 -6 0 -4 5 4 10
12 8 13 13 2 30 -7 11 -9 20 -5 19 5 -1 11 0 16 1 4 1 49 2 101 2 71 1 93 4
89 14 -3 8 2 11 14 9 10 -2 20 -4 23 -4 3 -1 -2 -6 -10 -12 -13 -9 -13 -10 0
-6 12 3 15 25 14 120 l0 117 93 1 c111 2 109 2 120 13 5 5 3 6 -4 2 -9 -5 -11
-2 -6 9 4 13 8 14 14 4 4 -7 6 -16 3 -20 -2 -4 0 -10 6 -14 13 -8 12 -11 14
113 1 56 -2 102 -7 102 -4 0 -5 -4 -2 -10 3 -5 1 -10 -5 -10 -7 0 -9 7 -6 16
3 9 6 18 6 20 0 3 5 2 10 -1 6 -3 10 -1 10 4 0 6 -6 11 -12 11 -9 0 -9 3 -2 8
12 8 14 282 1 282 -4 0 -5 -4 -2 -10 3 -5 1 -10 -5 -10 -7 0 -9 7 -6 16 3 9 6
18 6 20 0 3 5 2 10 -1 6 -3 10 -1 10 4 0 6 -6 11 -12 11 -9 0 -9 3 -2 8 12 8
14 282 1 282 -4 0 -5 -4 -2 -10 3 -5 1 -10 -5 -10 -7 0 -9 7 -6 16 3 9 6 18 6
20 0 3 4 2 10 -1 6 -3 10 -1 10 4 0 6 -6 11 -12 11 -9 0 -9 3 -2 8 12 8 14
282 1 282 -4 0 -5 -4 -2 -10 3 -5 1 -10 -5 -10 -7 0 -9 7 -6 16 3 9 6 18 6 20
0 3 5 2 10 -1 6 -3 10 -1 10 4 0 6 -6 11 -12 11 -9 0 -10 3 -2 8 6 4 11 50 10
118 0 94 -2 111 -15 111 -9 0 -22 -4 -28 -10 -9 -6 -17 -6 -26 2 -9 7 -82 11
-209 11 -176 1 -196 3 -200 18 -2 9 -3 86 -2 170 1 83 -2 152 -7 152 -5 0 -6
-8 -3 -17 5 -15 4 -16 -5 -3 -8 11 -6 18 7 28 14 11 15 14 3 22 -8 4 -16 16
-17 24 -1 9 2 14 7 10 5 -3 7 -10 4 -15 -4 -5 -2 -9 3 -9 6 0 9 21 8 48 l-2
47 -49 1 c-28 0 -56 -4 -64 -10 -11 -8 -13 -8 -8 0 4 7 -8 11 -33 12 -41 2
-47 -10 -20 -44 14 -18 13 -18 -7 0 -13 10 -20 23 -17 28 3 5 -3 12 -15 15
-23 6 -24 7 -23 116 1 53 -3 77 -11 77 -9 0 -9 2 -1 8 8 5 11 53 10 142 l-1
135 -356 0 c-197 0 -361 -3 -365 -7 -4 -4 -2 -14 5 -22 9 -11 9 -15 -1 -19
-11 -4 -10 -7 0 -15 11 -7 10 -11 -4 -16 -12 -5 -23 0 -35 15 -12 16 -18 19
-24 9 -6 -9 -4 -11 5 -5 8 5 11 3 8 -6 -3 -8 -10 -13 -15 -12 -5 1 -10 -5 -10
-13 0 -7 4 -14 9 -14 5 0 7 -4 3 -9 -3 -5 -1 -12 5 -16 5 -3 10 -14 10 -23 0
-14 -1 -14 -13 2 -12 16 -13 16 -13 -3 0 -11 4 -17 8 -15 4 3 8 1 8 -5 0 -5
-4 -12 -10 -16 -5 -3 -7 -12 -4 -19 3 -8 0 -17 -5 -21 -6 -3 -8 -11 -5 -17 4
-7 0 -7 -12 0 -27 13 -184 12 -184 -2 0 -7 -3 -7 -8 -1 -10 14 -85 15 -94 1
-5 -6 -8 -7 -8 -1 0 15 -50 17 -50 2 0 -8 -3 -8 -8 -2 -8 13 -113 15 -106 3 3
-4 0 -8 -5 -8 -6 0 -11 4 -11 8 0 4 -10 8 -22 9 -22 2 -22 1 -4 -13 11 -8 14
-14 7 -14 -7 0 -10 -4 -6 -9 3 -5 1 -12 -5 -16 -6 -4 -7 -12 -4 -18 4 -7 -2
-4 -12 6 -18 17 -18 19 -1 31 13 10 14 15 5 23 -20 14 -68 15 -68 0 0 -7 -3
-8 -8 -2 -10 14 -32 17 -32 5 0 -5 6 -10 13 -10 6 0 4 -5 -6 -11 -15 -9 -16
-13 -5 -26 8 -10 9 -18 3 -20 -6 -2 -9 -41 -9 -95 1 -57 -3 -99 -10 -107 -7
-9 -7 -12 0 -8 7 4 11 -26 12 -92 1 -70 -2 -98 -11 -99 -7 0 -94 -1 -195 -2
-141 -2 -186 1 -199 11 -9 8 -14 9 -11 4 4 -6 -6 -10 -23 -10 -16 -1 -29 2
-30 5 0 3 -2 26 -3 51 -3 43 -1 47 21 47 19 0 21 -3 12 -14 -6 -8 -15 -11 -20
-8 -5 3 -9 0 -9 -5 0 -6 4 -11 9 -11 11 0 9 -19 -3 -40 -7 -12 -6 -13 5 -2 17
16 34 16 23 -1 -5 -7 -2 -5 8 5 9 11 18 14 21 8 3 -6 4 -5 3 2 -2 8 -13 12
-27 10 -23 -4 -23 -3 -4 11 11 9 23 14 26 11 12 -7 3 44 -11 62 -13 16 -13 17
0 12 11 -4 16 0 16 12 0 10 -4 16 -8 14 -10 -6 -11 10 -1 20 10 10 10 66 0 59
-5 -3 -6 -11 -3 -18 6 -16 -17 -27 -41 -19 -14 5 -15 4 -4 -4 10 -7 10 -14 2
-30 -13 -24 -5 -53 13 -46 7 3 19 -2 26 -11 8 -9 8 -15 2 -15 -6 0 -14 5 -18
11 -4 8 -9 7 -15 -2 -7 -11 -9 -11 -9 -1 0 7 -4 11 -8 8 -4 -3 -8 49 -8 114 0
65 3 117 7 114 4 -2 9 -1 12 3 2 5 2 1 -1 -7 -2 -8 -5 -27 -7 -42 -1 -22 1
-25 11 -17 7 6 18 8 24 4 5 -3 10 -1 10 5 0 6 4 9 8 6 4 -2 8 8 7 24 0 15 -3
26 -6 24 -4 -2 -10 3 -13 12 -4 11 -2 15 7 11 8 -3 14 1 14 8 0 15 -18 15 -29
1 -3 -5 -15 -11 -26 -13 -16 -2 -20 2 -17 22 1 15 -4 29 -14 35 -9 5 -11 10
-6 10 6 0 11 8 12 18 1 16 -10 18 -135 18 -89 1 -140 -3 -144 -10 -5 -7 -8 -7
-8 0 0 6 -26 11 -62 11 -47 1 -65 -3 -75 -15 -12 -16 -14 -16 -27 1 -7 9 -20
17 -29 17 -20 0 -42 -36 -27 -45 5 -3 10 -1 10 4 0 6 10 11 23 10 21 0 21 -1
-3 -11 -14 -6 -20 -12 -13 -15 7 -2 22 1 35 8 21 11 22 11 9 -4 -17 -21 -39
-22 -62 -1 -14 13 -16 21 -8 35 6 13 6 19 -1 19 -5 0 -10 -6 -10 -12 0 -9 -3
-10 -8 -2 -4 6 -28 10 -54 8 l-48 -2 0 59 c0 35 -4 59 -11 59 -5 0 -7 -5 -3
-12 5 -7 3 -8 -6 -3 -10 6 -10 11 3 20 13 9 16 25 14 65 -3 51 -5 54 -31 56
-15 0 -29 -3 -32 -8 -3 -4 -10 -8 -15 -8 -6 0 -7 5 -4 10 3 6 -4 10 -16 10
-19 0 -20 -2 -8 -17 13 -17 12 -17 -6 -2 -17 14 -49 16 -200 16 -121 0 -182
-3 -187 -11 -6 -8 -8 -8 -8 0 0 8 -31 12 -95 12 -63 0 -93 -4 -88 -11 4 -6 1
-7 -8 -1 -18 11 -79 13 -72 1z m48 -11 c-6 17 -6 17 5 1 12 -19 5 -41 -11 -32
-5 4 -9 1 -9 -4 0 -6 4 -11 9 -11 5 0 8 -16 8 -34 -1 -22 -5 -32 -12 -27 -5 4
-20 6 -32 5 -13 0 -23 3 -23 7 0 5 4 9 9 9 6 0 8 9 6 19 -2 11 3 22 12 25 11
5 13 14 8 33 -6 27 -6 27 15 8 21 -19 21 -19 15 1z m95 4 c0 -5 -5 -10 -11
-10 -5 0 -7 5 -4 10 3 6 8 10 11 10 2 0 4 -4 4 -10z m616 -32 c1 -37 -5 -46
-20 -30 -10 9 -30 10 -36 0 -3 -4 -11 2 -18 12 -10 16 -10 20 0 18 7 -2 12 2
13 7 1 20 14 31 37 31 20 0 23 -5 24 -38z m1979 32 c3 -5 1 -10 -4 -10 -6 0
-11 5 -11 10 0 6 2 10 4 10 3 0 8 -4 11 -10z m245 -6 c-6 -6 -7 -14 -3 -17 3
-4 2 -7 -4 -7 -6 0 -13 8 -15 18 -4 12 1 18 13 18 12 0 15 -4 9 -12z m83 10
c-6 -3 -10 -17 -7 -32 3 -19 2 -23 -5 -13 -7 11 -8 29 -2 49 1 1 7 2 14 1 9 0
9 -2 0 -5z m39 -12 c-3 -10 -1 -13 6 -8 7 4 12 5 12 2 0 -15 -20 -14 -29 2 -7
14 -6 19 4 19 7 0 11 -7 7 -15z m214 5 c4 -4 2 -7 -4 -7 -7 0 -12 -5 -12 -11
0 -5 4 -8 9 -4 6 3 8 -4 6 -16 -5 -24 -15 -38 -15 -21 0 7 -4 12 -10 12 -5 0
-7 -7 -3 -16 4 -12 -2 -10 -21 7 -14 12 -22 25 -17 28 4 3 7 13 6 22 -2 11 5
15 26 14 16 -1 32 -4 35 -8z m-2962 -10 c-3 -8 -11 -14 -19 -14 -21 0 -19 15
3 20 9 3 18 5 19 6 1 0 0 -5 -3 -12z m59 0 c4 3 7 2 7 -4 0 -6 -8 -13 -18 -15
-12 -4 -18 1 -18 13 0 12 4 15 12 9 6 -6 14 -7 17 -3z m117 -2 c0 -2 -6 -5
-13 -8 -8 -3 -14 1 -14 8 0 7 6 11 14 8 7 -3 13 -6 13 -8z m66 -4 c0 -16 -3
-17 -14 -9 -12 10 -7 19 13 28 1 0 1 -9 1 -19z m2241 0 c-1 -12 -5 -17 -12
-12 -5 4 -23 7 -38 6 -15 -1 -30 1 -32 5 -2 4 14 6 35 5 22 -1 40 2 40 7 0 4
2 8 4 8 3 0 4 -9 3 -19z m56 6 c4 3 7 2 7 -4 0 -6 -8 -13 -18 -15 -12 -4 -18
1 -18 13 0 12 4 15 12 9 6 -6 14 -7 17 -3z m340 -2 c-3 -9 -8 -14 -10 -11 -3
3 -2 9 2 15 9 16 15 13 8 -4z m-2673 -5 c0 -5 -4 -10 -10 -10 -5 0 -10 5 -10
10 0 6 5 10 10 10 6 0 10 -4 10 -10z m2610 -5 c0 -2 -6 -5 -13 -8 -8 -3 -14 1
-14 8 0 7 6 11 14 8 7 -3 13 -6 13 -8z m-434 -4 c-4 -5 0 -11 6 -14 7 -3 3 -4
-9 -4 -17 1 -19 4 -11 14 12 15 22 18 14 4z m-2433 -16 c-3 -9 -8 -14 -10 -11
-3 3 -2 9 2 15 9 16 15 13 8 -4z m2361 3 c-3 -4 -9 -8 -15 -8 -5 0 -9 4 -9 8
0 5 7 9 15 9 8 0 12 -4 9 -9z m521 2 c-3 -5 -12 -10 -18 -10 -7 0 -6 4 3 10
19 12 23 12 15 0z m-150 -10 c-3 -5 -12 -10 -18 -10 -7 0 -6 4 3 10 19 12 23
12 15 0z m-438 -27 c5 3 8 -27 8 -66 l0 -72 -31 -1 c-35 -1 -37 12 -11 63 13
25 14 32 3 36 -7 3 -12 16 -11 29 3 32 3 32 20 18 8 -6 18 -9 22 -7z m-1869
-22 c-7 -9 -14 -18 -16 -21 -3 -3 -1 6 3 19 5 18 4 22 -5 16 -8 -5 -11 -4 -6
3 4 6 13 9 22 5 12 -4 12 -8 2 -22z m2560 -4 c6 -5 12 -14 12 -20 0 -7 -5 -4
-11 6 -6 9 -14 15 -19 12 -5 -3 -11 -1 -14 4 -7 11 13 9 32 -2z m-3247 -26 c3
-1 6 -8 6 -15 0 -11 -5 -12 -18 -5 -24 12 -38 11 -16 -2 14 -8 16 -14 6 -25
-14 -17 2 -19 18 -3 9 9 11 7 9 -5 -1 -10 -9 -22 -17 -27 -12 -7 -7 -13 11
-11 3 0 6 -8 6 -18 0 -10 -3 -18 -6 -18 -18 2 -23 -4 -10 -12 23 -14 20 -72
-5 -90 -25 -18 -31 -47 -10 -47 9 0 14 6 11 13 -3 7 1 17 8 23 9 8 12 -2 11
-42 -1 -29 -5 -50 -10 -47 -6 3 -8 11 -7 19 2 7 -1 10 -7 6 -6 -3 -9 0 -5 8 3
8 -2 14 -11 14 -18 0 -18 -2 -6 -26 7 -13 6 -18 -3 -18 -15 0 -17 63 -3 85 5
7 3 12 -5 12 -10 0 -10 2 1 9 9 6 11 15 6 27 -14 34 -15 46 -1 35 13 -11 26
-5 26 11 0 5 -4 7 -9 4 -5 -3 -15 1 -22 10 -10 12 -10 15 1 12 7 -2 15 3 17
10 3 7 -1 11 -7 10 -7 -2 -15 4 -17 12 -4 13 -3 13 6 0 6 -8 11 -13 12 -10 0
3 2 13 4 23 2 13 -1 17 -11 13 -11 -4 -12 -2 -4 14 12 23 13 33 1 26 -7 -5 -8
23 -2 30 1 1 35 -3 52 -5z m679 -11 c0 -5 -5 -10 -11 -10 -5 0 -7 5 -4 10 3 6
8 10 11 10 2 0 4 -4 4 -10z m20 -20 c0 -5 -8 -10 -17 -10 -15 0 -16 2 -3 10
19 12 20 12 20 0z m2560 1 c0 -5 -8 -15 -17 -22 -16 -12 -17 -12 -6 2 7 9 10
19 6 22 -3 4 -1 7 5 7 7 0 12 -4 12 -9z m-2543 -23 c-3 -8 -6 -5 -6 6 -1 11 2
17 5 13 3 -3 4 -12 1 -19z m-17 -18 c0 -5 -2 -10 -4 -10 -3 0 -8 5 -11 10 -3
6 -1 10 4 10 6 0 11 -4 11 -10z m2556 -29 c-4 -6 -13 -11 -19 -11 -8 0 -7 3 2
9 8 5 10 14 6 22 -6 11 -5 11 5 2 7 -6 9 -16 6 -22z m-2261 -11 c8 -13 -5 -13
-25 0 -13 8 -13 10 2 10 9 0 20 -4 23 -10z m65 -1 c13 -9 13 -10 0 -6 -8 2
-24 0 -35 -6 -18 -9 -19 -9 -6 6 16 20 21 20 41 6z m60 7 c0 -3 -4 -8 -10 -11
-5 -3 -10 -1 -10 4 0 6 5 11 10 11 6 0 10 -2 10 -4z m36 -12 c-4 -11 -2 -15 7
-11 8 3 20 2 26 -3 9 -5 4 -7 -13 -7 -28 0 -41 11 -31 27 10 16 18 12 11 -6z
m49 6 c3 -5 2 -10 -4 -10 -5 0 -13 5 -16 10 -3 6 -2 10 4 10 5 0 13 -4 16 -10z
m35 0 c0 -5 -5 -10 -11 -10 -5 0 -7 5 -4 10 3 6 8 10 11 10 2 0 4 -4 4 -10z
m75 1 c3 -5 0 -13 -6 -17 -7 -4 -9 -3 -5 4 3 6 -3 12 -16 15 -23 4 -23 4 -1 6
12 0 24 -3 28 -8z m615 -1 c0 8 3 11 6 7 3 -3 3 -10 0 -16 -8 -12 -36 -3 -36
11 0 6 6 5 15 -2 12 -10 15 -10 15 0z m145 0 c3 -5 13 -7 23 -4 14 5 14 4 3
-4 -10 -7 -21 -7 -34 0 -16 8 -19 7 -14 -4 9 -26 -8 -39 -22 -17 -7 12 -8 18
-3 15 6 -3 12 1 16 9 6 17 22 20 31 5z m112 -27 c18 -16 16 -28 -1 -14 -11 10
-17 8 -25 -6 -6 -10 -11 -13 -11 -7 0 5 5 15 12 22 9 9 7 13 -5 18 -9 3 -17
11 -17 16 0 10 18 -1 47 -29z m78 19 c-3 -3 -11 0 -18 7 -9 10 -8 11 6 5 10
-3 15 -9 12 -12z m55 14 c0 -3 -4 -8 -10 -11 -5 -3 -10 -1 -10 4 0 6 5 11 10
11 6 0 10 -2 10 -4z m60 -40 c10 -4 9 -5 -4 -3 -10 1 -25 13 -34 27 l-14 25
18 -21 c11 -12 26 -24 34 -28z m15 34 c-3 -5 -14 -10 -23 -10 -15 0 -15 2 -2
10 20 13 33 13 25 0z m56 -4 c-9 -10 -8 -16 4 -26 8 -7 15 -17 15 -23 0 -6 -7
-2 -15 10 -10 14 -22 19 -35 16 -12 -3 -20 0 -20 6 0 7 4 10 9 7 4 -3 17 1 27
9 24 18 30 19 15 1z m-1691 -6 c0 -5 -2 -10 -4 -10 -3 0 -8 5 -11 10 -3 6 -1
10 4 10 6 0 11 -4 11 -10z m30 -5 c-8 -9 -9 -15 -2 -15 6 0 14 5 17 10 3 6 11
10 16 10 6 0 -4 -12 -21 -27 l-32 -26 -26 28 c-23 23 -24 25 -4 14 12 -8 22
-17 22 -21 0 -5 5 -8 10 -8 6 0 10 6 9 13 -3 24 1 37 12 37 8 0 8 -5 -1 -15z
m468 -11 c0 -17 -3 -22 -8 -13 -5 6 -6 18 -3 26 8 19 11 16 11 -13z m80 0 c0
-17 -3 -22 -8 -13 -5 6 -6 18 -3 26 8 19 11 16 11 -13z m-358 6 c8 -5 11 -10
5 -10 -5 0 -17 5 -25 10 -8 5 -10 10 -5 10 6 0 17 -5 25 -10z m139 -34 c0 -6
-3 -5 -6 2 -4 10 -8 10 -19 1 -10 -8 -14 -8 -14 0 0 6 5 11 11 11 5 0 7 5 4
11 -5 7 -15 4 -32 -6 -14 -10 -23 -12 -19 -7 3 6 3 12 -1 15 -5 2 -3 3 3 1 6
-1 17 2 25 6 15 10 50 -15 48 -34z m31 0 c0 -6 -7 -1 -15 10 -8 10 -15 23 -15
28 0 6 7 1 15 -10 8 -10 15 -23 15 -28z m150 14 c0 -4 -7 -11 -16 -14 -14 -5
-15 -4 -4 9 8 10 9 15 1 15 -6 0 -11 5 -11 11 0 8 5 8 15 -1 8 -7 15 -16 15
-20z m602 12 c-7 -2 -9 -8 -6 -14 4 -6 -2 -5 -15 1 -25 14 -28 23 -4 14 11 -4
14 -3 9 5 -5 8 -1 10 10 5 11 -4 13 -8 6 -11z m240 0 c-7 -2 -9 -8 -6 -14 4
-6 -2 -5 -15 1 -25 14 -28 23 -4 14 11 -4 14 -3 9 5 -5 8 -1 10 10 5 11 -4 13
-8 6 -11z m87 8 c-6 -5 -18 -6 -26 -3 -19 8 -16 11 13 11 17 0 22 -3 13 -8z
m90 -34 c0 -6 -3 -5 -6 2 -4 10 -8 10 -19 1 -10 -8 -14 -8 -14 0 0 6 5 11 11
11 5 0 8 4 5 9 -4 5 -18 5 -35 -2 -17 -6 -28 -14 -26 -17 2 -4 -2 -7 -10 -7
-22 0 -7 16 28 31 27 11 34 11 50 -2 9 -8 17 -20 16 -26z m21 9 c0 -5 -5 -3
-10 5 -5 8 -10 20 -10 25 0 6 5 3 10 -5 5 -8 10 -19 10 -25z m140 24 c0 -5 4
-8 8 -5 4 2 8 -4 8 -15 0 -24 0 -24 -20 6 -9 14 -12 25 -6 25 5 0 10 -5 10
-11z m774 -5 c3 -8 2 -12 -4 -9 -6 3 -10 10 -10 16 0 14 7 11 14 -7z m-2424
-19 c-7 -8 -17 -15 -22 -15 -11 0 14 29 26 30 5 0 3 -7 -4 -15z m140 5 c13 -8
13 -10 -2 -10 -9 0 -20 5 -23 10 -8 13 5 13 25 0z m58 -11 c3 -11 2 -11 -7 1
-10 13 -12 13 -21 0 -5 -8 -10 -10 -10 -4 0 27 31 30 38 3z m895 6 c-3 -9 -8
-14 -10 -11 -3 3 -2 9 2 15 9 16 15 13 8 -4z m84 8 c-9 -2 -14 -9 -11 -15 4
-7 2 -8 -5 -4 -15 10 -4 26 17 25 15 -1 15 -2 -1 -6z m65 -15 c-7 -7 -12 -8
-12 -2 0 6 3 14 7 17 3 4 9 5 12 2 2 -3 -1 -11 -7 -17z m-887 2 c3 -6 -1 -7
-9 -4 -18 7 -21 14 -7 14 6 0 13 -4 16 -10z m35 6 c0 -3 -4 -8 -10 -11 -5 -3
-10 -1 -10 4 0 6 5 11 10 11 6 0 10 -2 10 -4z m1220 -6 c0 -5 -2 -10 -4 -10
-3 0 -8 5 -11 10 -3 6 -1 10 4 10 6 0 11 -4 11 -10z m835 -18 c-3 -3 -11 0
-18 7 -9 10 -8 11 6 5 10 -3 15 -9 12 -12z m-41 -13 c-4 -8 1 -9 17 -4 23 7
23 7 4 -8 -14 -11 -22 -12 -27 -4 -7 11 -2 27 8 27 3 0 2 -5 -2 -11z m-1800
-61 c-5 -8 -44 -11 -44 -3 0 2 5 16 12 30 l12 26 12 -23 c7 -12 10 -26 8 -30z
m1846 0 c0 -4 -4 -8 -9 -8 -6 0 -12 4 -15 8 -3 5 1 9 9 9 8 0 15 -4 15 -9z
m-46 -19 c-4 -8 1 -9 17 -4 23 7 23 7 4 -8 -14 -11 -22 -12 -27 -4 -7 11 -2
27 8 27 3 0 2 -5 -2 -11z m42 -41 c4 -7 3 -8 -4 -4 -7 4 -12 2 -12 -5 0 -7 -3
-10 -6 -6 -6 5 3 27 11 27 2 0 7 -5 11 -12z m240 -59 c1 -16 -1 -28 -5 -27
-19 2 -31 -3 -26 -12 3 -5 1 -10 -4 -10 -6 0 -11 5 -11 11 0 5 -4 7 -10 4 -5
-3 -7 0 -4 8 3 8 0 18 -6 22 -18 11 6 31 37 31 24 0 29 -4 29 -27z m-3659 8
c0 -8 -6 -14 -14 -14 -9 0 -10 4 -2 14 6 7 12 13 14 13 1 0 2 -6 2 -13z m1573
-12 c-7 -8 -17 -15 -22 -15 -6 0 -5 7 2 15 7 8 17 15 22 15 6 0 5 -7 -2 -15z
m-1530 -9 c0 -2 -7 -7 -16 -10 -8 -3 -12 -2 -9 4 6 10 25 14 25 6z m1525 -26
c-3 -5 -13 -10 -21 -10 -8 0 -14 5 -14 10 0 6 9 10 21 10 11 0 17 -4 14 -10z
m2043 -46 c-3 -14 -5 -12 -10 9 -3 19 -2 25 4 19 6 -6 8 -18 6 -28z m26 -4
c-6 -6 -10 -3 -10 10 0 13 4 16 10 10 7 -7 7 -13 0 -20z m-2064 -25 c-7 -8
-17 -15 -22 -15 -6 0 -5 7 2 15 7 8 17 15 22 15 6 0 5 -7 -2 -15z m2050 -31
c0 -3 -7 -1 -15 6 -8 7 -15 17 -15 22 0 5 7 3 15 -6 8 -8 15 -18 15 -22z m15
25 c11 -16 1 -19 -13 -3 -7 8 -8 14 -3 14 5 0 13 -5 16 -11z m25 -39 c0 -5
-10 -14 -21 -21 -13 -6 -19 -7 -15 -1 3 6 0 13 -6 16 -7 3 -2 3 11 0 16 -4 21
-3 17 5 -4 6 -2 11 3 11 6 0 11 -4 11 -10z m-40 -51 c0 -4 -5 -11 -11 -15 -7
-4 -10 -1 -7 7 3 8 1 23 -4 34 -9 20 -9 20 6 1 9 -11 16 -23 16 -27z m32 -16
c-6 -3 -10 -8 -8 -12 3 -4 -4 -7 -15 -7 -19 0 -18 1 3 17 12 10 25 15 28 12 3
-3 -1 -8 -8 -10z m-2 -43 c8 -5 11 -12 7 -17 -5 -4 -11 -3 -15 3 -4 6 -14 14
-22 17 -13 5 -13 5 0 6 8 0 22 -3 30 -9z m-10 -35 c7 -8 11 -16 9 -16 -2 -1
-17 -3 -34 -5 -22 -2 -26 -1 -15 6 8 5 11 10 7 10 -11 0 2 20 12 20 5 0 14 -7
21 -15z m-3734 -68 c-1 -60 -2 -62 -27 -62 -19 -1 -25 3 -21 14 3 8 1 12 -4 9
-5 -4 -10 9 -10 28 -1 19 3 34 8 34 5 0 7 -4 4 -9 -7 -11 17 -21 31 -13 6 4 9
19 8 35 -2 15 0 27 5 27 4 0 7 -28 6 -63z m3754 35 c0 -5 -11 -15 -25 -22 -13
-7 -22 -18 -18 -23 3 -6 1 -7 -5 -4 -5 4 -8 16 -5 28 4 13 8 16 13 9 5 -8 11
-6 20 5 14 17 20 19 20 7z m-32 -66 c-10 -7 -14 -17 -10 -21 4 -5 1 -5 -7 0
-12 7 -11 10 4 22 24 17 36 17 13 -1z m28 -18 c4 -7 3 -8 -4 -4 -7 4 -12 2
-12 -5 0 -7 -3 -10 -6 -6 -6 5 3 27 11 27 2 0 7 -5 11 -12z m469 -38 c-3 -5
-2 -10 3 -10 5 0 9 -15 9 -32 0 -18 -2 -27 -5 -20 -2 6 -9 9 -14 6 -7 -4 -8
-2 -4 4 7 12 -6 17 -17 6 -8 -8 3 -35 12 -30 4 3 12 -4 19 -15 7 -10 10 -19 7
-19 -10 0 -42 34 -54 57 -10 20 -9 22 5 16 12 -4 15 -3 10 6 -5 7 0 18 10 26
23 17 27 18 19 5z m-13 -115 c16 -14 24 -25 18 -25 -10 0 -9 -4 0 -15 9 -10 9
-15 1 -15 -6 0 -11 5 -11 10 0 6 -5 10 -10 10 -6 0 -10 -6 -9 -12 3 -25 -1
-38 -12 -38 -8 0 -7 6 2 17 12 15 12 16 -5 9 -19 -7 -19 -6 -2 13 17 18 17 20
-1 30 -10 6 -13 11 -6 11 6 0 15 -4 18 -10 3 -5 12 -10 18 -10 7 1 -1 12 -18
25 -16 14 -26 25 -21 25 4 0 21 -11 38 -25z m23 -75 c3 -5 1 -10 -4 -10 -6 0
-11 5 -11 10 0 6 2 10 4 10 3 0 8 -4 11 -10z m-45 -34 c0 -8 -4 -17 -8 -20 -4
-2 -8 4 -8 15 0 10 4 19 8 19 4 0 8 -6 8 -14z m30 3 c0 -6 -11 -24 -25 -41
-30 -35 -34 -27 -5 9 11 14 17 29 14 34 -3 5 0 9 5 9 6 0 11 -5 11 -11z m20
-77 c3 -3 -4 -2 -15 2 -16 5 -21 1 -22 -14 -1 -11 2 -20 8 -20 5 0 9 5 9 10 0
6 5 10 12 10 8 0 6 -6 -5 -17 -16 -16 -18 -16 -40 5 -17 18 -18 22 -4 16 10
-3 17 -3 16 2 -1 5 -1 15 0 23 1 13 6 11 41 -17z m-45 -61 c-6 -5 -25 10 -25
20 0 5 6 4 14 -3 8 -7 12 -15 11 -17z m-4668 0 c0 -11 -5 -18 -9 -15 -4 3 -5
11 -1 19 7 21 12 19 10 -4z m4703 -1 c0 -5 -2 -10 -4 -10 -3 0 -8 5 -11 10 -3
6 -1 10 4 10 6 0 11 -4 11 -10z m-26 -25 c-7 -17 11 -21 19 -5 3 6 4 5 3 -2
-4 -19 -30 -16 -34 5 -2 9 1 17 7 17 6 0 8 -7 5 -15z m20 -36 c10 9 16 10 16
2 0 -6 -2 -11 -4 -11 -2 0 -11 -3 -19 -6 -15 -5 -47 20 -47 38 0 6 8 0 19 -13
16 -20 21 -21 35 -10z m-2 -36 c7 2 9 2 5 -1 -4 -2 -3 -10 4 -18 8 -10 8 -14
0 -14 -6 0 -11 5 -11 10 0 6 -5 10 -10 10 -6 0 -10 -6 -9 -12 3 -25 -1 -38
-12 -38 -8 0 -7 6 2 17 12 15 12 16 -5 9 -20 -7 -20 -7 0 15 15 17 15 21 3 17
-9 -4 -16 -1 -16 7 0 10 5 11 18 4 10 -5 24 -7 31 -6z m13 -53 c3 -5 1 -10 -4
-10 -6 0 -11 5 -11 10 0 6 2 10 4 10 3 0 8 -4 11 -10z m-45 -34 c0 -8 -4 -17
-8 -20 -4 -2 -8 4 -8 15 0 10 4 19 8 19 4 0 8 -6 8 -14z m30 3 c0 -6 -11 -24
-25 -41 -30 -35 -34 -27 -5 9 11 14 17 29 14 34 -3 5 0 9 5 9 6 0 11 -5 11
-11z m20 -77 c3 -3 -4 -2 -15 2 -16 5 -21 1 -22 -14 -1 -11 2 -20 8 -20 5 0 9
5 9 10 0 6 5 10 12 10 8 0 6 -6 -5 -17 -16 -16 -18 -16 -40 5 -17 18 -18 22
-4 16 10 -3 17 -3 16 2 -1 5 -1 15 0 23 1 13 6 11 41 -17z m-45 -61 c-6 -5
-25 10 -25 20 0 5 6 4 14 -3 8 -7 12 -15 11 -17z m35 -1 c0 -5 -2 -10 -4 -10
-3 0 -8 5 -11 10 -3 6 -1 10 4 10 6 0 11 -4 11 -10z m-26 -25 c-7 -17 11 -21
19 -5 3 6 4 5 3 -2 -4 -19 -30 -16 -34 5 -2 9 1 17 7 17 6 0 8 -7 5 -15z m20
-36 c10 9 16 10 16 2 0 -6 -2 -11 -4 -11 -2 0 -11 -3 -19 -6 -15 -5 -47 20
-47 38 0 6 8 0 19 -13 16 -20 21 -21 35 -10z m-2 -36 c7 2 9 2 5 -1 -4 -2 -3
-10 4 -18 8 -10 8 -14 0 -14 -6 0 -11 5 -11 10 0 6 -5 10 -10 10 -6 0 -10 -6
-9 -12 3 -25 -1 -38 -12 -38 -8 0 -7 6 2 17 12 15 12 16 -5 9 -20 -7 -20 -7 0
15 15 17 15 21 3 17 -9 -4 -16 -1 -16 7 0 10 5 11 18 4 10 -5 24 -7 31 -6z
m13 -53 c3 -5 1 -10 -4 -10 -6 0 -11 5 -11 10 0 6 2 10 4 10 3 0 8 -4 11 -10z
m-45 -34 c0 -8 -4 -17 -8 -20 -4 -2 -8 4 -8 15 0 10 4 19 8 19 4 0 8 -6 8 -14z
m30 3 c0 -6 -11 -24 -25 -41 -30 -35 -34 -27 -5 9 11 14 17 29 14 34 -3 5 0 9
5 9 6 0 11 -5 11 -11z m20 -77 c3 -3 -4 -2 -15 2 -16 5 -21 1 -22 -14 -1 -11
2 -20 8 -20 5 0 9 5 9 10 0 6 5 10 12 10 8 0 6 -6 -5 -17 -16 -16 -18 -16 -40
5 -17 18 -18 22 -4 16 10 -3 17 -3 16 2 -1 5 -1 15 0 23 1 13 6 11 41 -17z
m-45 -61 c-6 -5 -25 10 -25 20 0 5 6 4 14 -3 8 -7 12 -15 11 -17z m35 -1 c0
-5 -2 -10 -4 -10 -3 0 -8 5 -11 10 -3 6 -1 10 4 10 6 0 11 -4 11 -10z m-26
-25 c-7 -17 11 -21 19 -5 3 6 4 5 3 -2 -4 -19 -30 -16 -34 5 -2 9 1 17 7 17 6
0 8 -7 5 -15z m20 -36 c10 9 16 10 16 2 0 -6 -2 -11 -4 -11 -2 0 -11 -3 -19
-6 -15 -5 -47 20 -47 38 0 6 8 0 19 -13 16 -20 21 -21 35 -10z m-2 -36 c7 2 9
2 5 -1 -4 -2 -3 -10 4 -18 8 -10 8 -14 0 -14 -6 0 -11 5 -11 10 0 6 -5 10 -10
10 -6 0 -10 -6 -9 -12 3 -25 -1 -38 -12 -38 -8 0 -7 6 2 17 12 15 12 16 -5 9
-20 -7 -20 -7 0 15 15 17 15 21 3 17 -9 -4 -16 -1 -16 7 0 10 5 11 18 4 10 -5
24 -7 31 -6z m13 -53 c3 -5 1 -10 -4 -10 -6 0 -11 5 -11 10 0 6 2 10 4 10 3 0
8 -4 11 -10z m-45 -34 c0 -8 -4 -17 -8 -20 -4 -2 -8 4 -8 15 0 10 4 19 8 19 4
0 8 -6 8 -14z m30 3 c0 -6 -11 -24 -25 -41 -30 -35 -34 -27 -5 9 11 14 17 29
14 34 -3 5 0 9 5 9 6 0 11 -5 11 -11z m20 -77 c3 -3 -6 -1 -19 3 -16 5 -21 4
-17 -4 4 -6 2 -11 -3 -11 -13 0 -13 3 -5 24 6 16 10 15 44 -12z m-10 -22 c0
-5 -5 -10 -11 -10 -5 0 -7 5 -4 10 3 6 8 10 11 10 2 0 4 -4 4 -10z m-35 -9
c-3 -5 3 -12 12 -14 10 -3 6 -4 -8 -4 -18 1 -25 6 -22 14 3 7 9 13 15 13 5 0
7 -4 3 -9z m35 -42 c-13 -8 -13 -10 0 -19 13 -9 13 -10 0 -11 -8 -1 -18 -1
-21 -1 -4 1 -10 -10 -13 -23 -4 -14 -12 -25 -18 -25 -9 0 -9 3 0 12 14 14 16
32 4 24 -5 -3 -8 7 -7 21 0 15 7 28 15 31 9 2 11 0 5 -5 -5 -4 -11 -14 -12
-20 -5 -22 14 -14 32 13 9 14 19 23 23 19 4 -3 0 -10 -8 -16z m-250 -101 c0
-4 -4 -8 -9 -8 -6 0 -12 4 -15 8 -3 5 1 9 9 9 8 0 15 -4 15 -9z m9 -46 c9 -20
9 -27 -1 -33 -6 -4 -16 -5 -20 -3 -4 3 -8 3 -8 0 0 -2 -3 -13 -7 -23 -6 -15
-4 -16 9 -5 13 10 18 9 29 -5 12 -16 12 -17 -2 -6 -9 7 -19 10 -22 6 -10 -9
-9 -25 1 -19 4 2 14 0 22 -5 13 -8 13 -10 0 -19 -11 -7 -18 -5 -26 5 -10 14
-12 14 -18 0 -4 -11 -2 -14 6 -9 7 5 9 2 5 -9 -5 -13 -2 -15 17 -7 16 6 23 5
23 -5 0 -7 -11 -11 -29 -10 -22 2 -28 -1 -24 -12 3 -8 1 -11 -5 -8 -5 4 -8 12
-6 18 2 7 0 20 -5 31 -7 12 -7 16 0 12 6 -3 9 24 8 73 -1 77 -1 78 20 69 12
-6 27 -22 33 -36z m-254 -201 c-3 -6 -11 -9 -16 -6 -5 4 -9 -4 -9 -16 0 -21 1
-21 18 -6 10 10 23 17 28 17 5 0 1 -5 -8 -11 -9 -5 -15 -16 -12 -24 4 -8 9
-13 13 -11 4 3 7 -4 7 -15 0 -19 -1 -19 -13 -3 -7 10 -13 21 -13 26 0 4 -6 7
-12 6 -8 -2 -13 7 -13 22 0 15 5 24 13 23 6 -2 12 2 12 9 0 6 3 9 6 5 3 -3 3
-11 -1 -16z m-3745 -23 c0 -4 -7 -8 -15 -8 -8 0 -15 4 -15 8 0 5 7 9 15 9 8 0
15 -4 15 -9z m-25 -58 c2 -21 -10 -27 -19 -11 -7 11 4 44 12 36 3 -3 6 -14 7
-25z m3747 -2 c-7 -7 -12 -8 -12 -2 0 14 12 26 19 19 2 -3 -1 -11 -7 -17z m38
-24 c11 -13 10 -16 -8 -21 -12 -3 -22 -9 -22 -14 0 -5 -4 -9 -10 -9 -21 0 -9
20 15 26 14 3 22 10 19 16 -3 5 -13 7 -21 4 -8 -3 -11 -1 -8 4 9 14 21 12 35
-6z m0 -49 c7 -9 8 -15 2 -15 -5 0 -12 7 -16 15 -3 8 -4 15 -2 15 2 0 9 -7 16
-15z m-20 -13 c0 -5 -6 -16 -13 -27 -11 -14 -16 -15 -22 -5 -5 8 -4 11 3 6 6
-3 13 3 17 14 6 20 15 27 15 12z m4 -46 c-3 -9 -10 -16 -15 -16 -5 0 -4 9 3
20 14 22 21 20 12 -4z m-32 -68 c-6 -6 -7 0 -4 19 5 21 7 23 10 9 2 -10 0 -22
-6 -28z m32 12 c-6 -6 -10 -3 -10 10 0 13 4 16 10 10 7 -7 7 -13 0 -20z m-14
-41 c-7 -11 -14 -19 -16 -16 -7 7 7 37 17 37 6 0 5 -9 -1 -21z m14 -24 c-5
-21 -3 -24 12 -19 16 6 17 5 7 -7 -18 -18 -37 2 -28 30 9 30 17 26 9 -4z m-14
-46 c0 -6 7 -9 15 -6 8 4 17 2 20 -4 4 -5 3 -8 -2 -7 -17 4 -53 -14 -47 -24 4
-7 9 -6 14 2 5 9 9 9 14 1 4 -6 1 -11 -6 -11 -9 0 -9 -3 2 -10 9 -6 10 -10 3
-10 -6 0 -15 5 -19 11 -4 8 -9 7 -16 -2 -7 -11 -8 -9 -4 5 5 13 2 17 -9 13 -8
-4 -17 -1 -21 5 -4 6 -3 8 3 5 6 -4 16 0 23 8 7 8 17 12 23 8 6 -3 7 -1 3 5
-4 6 -14 9 -24 6 -14 -5 -15 -4 -2 5 19 14 30 14 30 0z m-3340 -3 c0 -2 -8
-10 -17 -17 -16 -13 -17 -12 -4 4 13 16 21 21 21 13z m120 0 c0 -2 -8 -10 -17
-17 -16 -13 -17 -12 -4 4 13 16 21 21 21 13z m1481 -13 c13 -16 12 -17 -3 -4
-17 13 -22 21 -14 21 2 0 10 -8 17 -17z m1159 13 c0 -2 -8 -10 -17 -17 -16
-13 -17 -12 -4 4 13 16 21 21 21 13z m280 0 c0 -2 -8 -10 -17 -17 -16 -13 -17
-12 -4 4 13 16 21 21 21 13z m120 0 c0 -2 -8 -10 -17 -17 -16 -13 -17 -12 -4
4 13 16 21 21 21 13z m-3403 -23 c0 -9 -4 -10 -14 -2 -7 6 -13 12 -13 14 0 1
6 2 13 2 8 0 14 -6 14 -14z m198 -1 c-3 -3 -11 0 -18 7 -9 10 -8 11 6 5 10 -3
15 -9 12 -12z m124 -16 c-3 -3 -11 5 -18 17 -13 21 -12 21 5 5 10 -10 16 -20
13 -22z m1401 30 c0 -2 -7 -7 -16 -10 -8 -3 -12 -2 -9 4 6 10 25 14 25 6z m38
-16 c-7 -10 -14 -17 -17 -15 -4 4 18 35 25 35 2 0 -1 -9 -8 -20z m162 16 c0
-2 -7 -7 -16 -10 -8 -3 -12 -2 -9 4 6 10 25 14 25 6z m1039 -30 c-3 -3 -11 5
-18 17 -13 21 -12 21 5 5 10 -10 16 -20 13 -22z m276 16 c-3 -3 -11 0 -18 7
-9 10 -8 11 6 5 10 -3 15 -9 12 -12z m124 -16 c-3 -3 -11 5 -18 17 -13 21 -12
21 5 5 10 -10 16 -20 13 -22z m-3285 -5 c-2 -3 -12 3 -22 13 -16 17 -16 18 5
5 12 -7 20 -15 17 -18z m182 10 c0 -16 -3 -17 -14 -9 -12 10 -7 19 13 28 1 0
1 -9 1 -19z m124 15 c0 -2 -8 -10 -17 -17 -16 -13 -17 -12 -4 4 13 16 21 21
21 13z m1275 -6 c-3 -5 -12 -10 -18 -10 -7 0 -6 4 3 10 19 12 23 12 15 0z
m1459 -19 c-2 -3 -12 3 -22 13 -16 17 -16 18 5 5 12 -7 20 -15 17 -18z m182
10 c0 -16 -3 -17 -14 -9 -12 10 -7 19 13 28 1 0 1 -9 1 -19z m124 15 c0 -2 -8
-10 -17 -17 -16 -13 -17 -12 -4 4 13 16 21 21 21 13z m-3455 -16 c3 -6 -1 -7
-9 -4 -18 7 -21 14 -7 14 6 0 13 -4 16 -10z m65 6 c0 -2 -8 -10 -17 -17 -16
-13 -17 -12 -4 4 13 16 21 21 21 13z m129 1 c-2 -1 -13 -9 -24 -17 -19 -14
-19 -14 -6 3 7 9 18 17 24 17 6 0 8 -1 6 -3z m318 -4 c-4 -3 -3 -11 3 -17 6
-8 3 -12 -9 -12 -12 0 -17 6 -13 18 2 10 9 18 15 18 6 0 7 -3 4 -7z m1143 -6
c0 -5 -6 -7 -12 -4 -7 2 -21 0 -30 -5 -13 -6 -16 -5 -12 5 5 14 54 18 54 4z
m216 1 c3 -4 -1 -5 -10 -4 -8 1 -18 5 -22 8 -3 4 1 5 10 4 8 -1 18 -5 22 -8z
m1363 9 c-2 -1 -13 -9 -24 -17 -19 -14 -19 -14 -6 3 7 9 18 17 24 17 6 0 8 -1
6 -3z m281 -28 c0 -5 -5 -9 -12 -9 -6 0 -8 3 -5 7 4 3 1 13 -6 22 -11 14 -10
14 6 2 9 -7 17 -17 17 -22z m-3081 8 c8 -10 7 -14 -2 -14 -8 0 -14 6 -14 14 0
7 1 13 2 13 2 0 8 -6 14 -13z m1280 0 c8 -10 7 -14 -2 -14 -8 0 -14 6 -14 14
0 7 1 13 2 13 2 0 8 -6 14 -13z m1395 5 c2 -4 -4 -8 -14 -8 -10 0 -16 4 -14 8
3 4 9 8 14 8 5 0 11 -4 14 -8z m365 -5 c8 -10 7 -14 -2 -14 -8 0 -14 6 -14 14
0 7 1 13 2 13 2 0 8 -6 14 -13z m-1524 -15 c-3 -3 -11 0 -18 7 -9 10 -8 11 6
5 10 -3 15 -9 12 -12z m-1335 -22 c0 -5 -5 -10 -11 -10 -5 0 -7 5 -4 10 3 6 8
10 11 10 2 0 4 -4 4 -10z m955 0 c3 -5 2 -10 -4 -10 -5 0 -13 5 -16 10 -3 6
-2 10 4 10 5 0 13 -4 16 -10z m-952 -37 c-3 -7 -9 -13 -15 -13 -5 0 -7 4 -3 9
3 5 -3 12 -12 14 -10 3 -6 4 8 4 18 -1 25 -6 22 -14z m-38 -11 c-3 -3 -11 0
-18 7 -9 10 -8 11 6 5 10 -3 15 -9 12 -12z m5 -24 c0 6 5 12 11 12 5 0 7 -4 4
-10 -3 -5 -2 -10 4 -10 5 0 11 6 14 13 2 6 4 0 3 -15 -1 -24 -3 -25 -17 -12
-15 14 -17 12 -14 -14 1 -16 5 -33 8 -39 3 -5 0 -10 -8 -10 -8 0 -11 5 -8 10
4 7 -1 8 -13 4 -18 -7 -18 -6 -1 7 9 7 17 19 16 27 0 10 -2 11 -6 2 -2 -7 -9
-13 -15 -13 -7 0 -6 5 1 14 6 7 9 22 5 32 -5 16 -4 16 5 4 7 -10 11 -11 11 -2z
m947 -58 c0 -18 -4 -26 -8 -19 -4 7 -6 1 -6 -14 1 -14 5 -23 10 -20 4 2 7 -1
7 -6 0 -6 -6 -11 -12 -11 -9 0 -8 -4 2 -10 20 -13 30 -12 30 1 0 5 -3 8 -7 6
-5 -3 -9 6 -9 19 -1 13 2 22 6 19 4 -3 7 3 6 12 0 9 6 18 14 20 9 3 11 1 5 -4
-6 -4 -11 -26 -12 -48 -1 -22 -2 -49 -3 -60 -1 -11 0 -27 2 -35 2 -8 -1 -16
-7 -17 -5 -2 -10 7 -10 20 0 14 -5 21 -15 20 -13 -2 -16 11 -16 72 0 41 3 72
8 69 4 -3 8 0 8 5 0 6 2 11 3 11 2 0 4 -14 4 -30z m-912 0 c3 -5 1 -10 -4 -10
-6 0 -11 5 -11 10 0 6 2 10 4 10 3 0 8 -4 11 -10z m-220 -40 c3 -6 -1 -7 -9
-4 -18 7 -21 14 -7 14 6 0 13 -4 16 -10z m3011 -31 c0 -38 -5 -47 -20 -31 -11
10 -30 9 -38 -2 -3 -5 -5 8 -3 30 2 21 4 39 4 39 1 0 14 1 29 1 26 1 28 -1 28
-37z m-2910 9 c12 -14 13 -18 3 -10 -9 6 -18 10 -21 7 -2 -3 -5 2 -5 10 0 19
0 19 23 -7z m-226 -2 c0 -2 -8 -10 -17 -17 -16 -13 -17 -12 -4 4 13 16 21 21
21 13z m271 -23 c13 -16 12 -17 -3 -4 -17 13 -22 21 -14 21 2 0 10 -8 17 -17z
m2484 -1 c-3 -3 -11 0 -18 7 -9 10 -8 11 6 5 10 -3 15 -9 12 -12z m360 -31 c3
-5 2 -12 -3 -15 -5 -3 -9 1 -9 9 0 17 3 19 12 6z m-34 -24 c-10 -9 -11 -8 -5
6 3 10 9 15 12 12 3 -3 0 -11 -7 -18z m15 -16 c-4 -5 0 -11 6 -14 7 -2 9 -8 5
-13 -9 -10 -28 16 -21 28 3 4 7 8 10 8 3 0 3 -4 0 -9z m-1811 -61 c3 -6 -1 -7
-9 -4 -18 7 -21 14 -7 14 6 0 13 -4 16 -10z m1841 -16 c18 -15 18 -15 -3 -5
-28 14 -36 14 -27 -1 4 -7 3 -8 -5 -4 -11 7 -6 26 8 26 4 0 16 -7 27 -16z
m-3306 -26 c0 6 5 12 10 12 16 0 12 -14 -8 -26 -15 -10 -18 -8 -20 10 -1 16 1
18 8 6 7 -10 10 -11 10 -2z m813 -25 c11 0 16 4 14 11 -3 8 3 12 16 11 12 -1
22 -8 22 -16 0 -8 -8 -13 -17 -13 -20 2 -23 -7 -8 -22 6 -6 -5 -9 -30 -9 -25
0 -36 3 -30 9 12 12 13 29 2 22 -4 -2 -8 4 -8 15 0 16 3 17 11 7 5 -7 18 -14
28 -15z m100 12 c-2 -7 3 -12 12 -12 10 0 14 6 10 16 -5 11 -1 11 14 -3 19
-18 19 -46 -1 -46 -6 0 -5 6 2 15 11 13 9 15 -10 12 -13 -2 -29 -12 -36 -22
-8 -10 -14 -14 -14 -7 0 6 -8 9 -17 6 -13 -4 -14 -3 -5 3 7 6 14 19 14 29 1
11 9 20 19 20 9 0 15 -5 12 -11z m80 -2 c-4 -10 -9 -11 -19 -2 -18 15 -18 15
5 15 11 0 17 -5 14 -13z m60 0 c-4 -9 0 -11 13 -7 11 3 15 2 8 -3 -6 -4 -13
-16 -17 -25 -7 -20 -27 -24 -27 -7 0 8 -5 8 -15 -1 -10 -9 -15 -9 -15 -1 0 6
5 11 10 11 6 0 10 5 10 11 0 5 -4 7 -10 4 -5 -3 -10 -2 -10 4 0 23 18 19 30
-7 7 -15 15 -22 17 -15 2 7 0 20 -6 31 -7 14 -7 19 4 19 7 0 11 -6 8 -14z m90
-1 c-4 -10 -9 -10 -22 0 -9 7 -17 13 -19 14 -2 1 8 1 21 0 15 0 23 -6 20 -14z
m59 -2 c-5 -13 -3 -13 11 -1 9 7 17 9 17 3 0 -17 -28 -22 -41 -6 -6 8 -14 12
-17 9 -3 -3 2 -13 12 -24 15 -16 15 -19 2 -24 -10 -4 -13 -1 -10 8 4 11 -1 13
-23 9 -15 -3 -29 -9 -31 -15 -2 -5 -8 -9 -14 -9 -7 0 -6 5 1 14 10 11 8 17 -6
25 -10 6 -15 11 -10 11 4 0 17 -6 28 -12 18 -11 23 -10 35 7 16 25 55 29 46 5z
m48 -15 c-7 -8 -8 -15 -2 -15 14 0 35 27 28 38 -3 5 1 9 8 9 8 0 12 -6 9 -14
-4 -9 0 -11 13 -7 11 3 15 2 8 -3 -6 -4 -13 -16 -17 -25 -6 -18 -27 -25 -27
-10 0 5 -14 8 -32 7 -29 -2 -30 -1 -12 12 10 8 17 22 16 31 -3 13 -1 14 9 5
10 -10 10 -15 -1 -28z m134 29 c9 -3 16 -11 16 -16 0 -6 -6 -5 -15 2 -12 10
-18 10 -30 0 -9 -8 -15 -8 -15 -2 0 6 6 13 13 15 6 3 13 6 14 6 1 1 8 -2 17
-5z m576 -4 c0 -5 -5 -10 -11 -10 -5 0 -7 5 -4 10 3 6 8 10 11 10 2 0 4 -4 4
-10z m35 0 c3 -5 1 -10 -4 -10 -6 0 -11 5 -11 10 0 6 2 10 4 10 3 0 8 -4 11
-10z m48 -7 c-5 -13 4 -15 47 -15 46 0 52 2 46 18 -3 8 -2 12 4 9 18 -11 11
-24 -20 -40 -22 -12 -35 -13 -49 -5 -29 15 -35 12 -20 -7 13 -16 12 -17 -3 -4
-15 11 -21 11 -33 1 -10 -9 -15 -9 -15 -1 0 6 6 11 13 12 9 0 9 2 -1 6 -7 3
-20 -3 -28 -13 -13 -18 -15 -18 -28 -1 -7 9 -19 17 -27 17 -11 0 -11 -2 1 -10
8 -5 11 -10 5 -10 -5 0 -16 4 -24 9 -20 13 13 20 77 17 48 -2 51 -1 37 13 -13
15 -12 17 4 17 11 0 17 -6 14 -13z m37 7 c0 -5 -5 -10 -11 -10 -5 0 -7 5 -4
10 3 6 8 10 11 10 2 0 4 -4 4 -10z m35 -8 c-3 -3 -11 0 -18 7 -9 10 -8 11 6 5
10 -3 15 -9 12 -12z m127 -2 c-5 -13 -3 -13 11 -1 9 7 17 9 17 3 0 -18 -28
-21 -44 -3 -14 15 -14 17 3 17 13 0 17 -5 13 -16z m222 8 c-7 -11 3 -10 26 2
13 7 21 5 31 -8 13 -16 12 -16 -4 -3 -16 13 -19 13 -17 0 5 -29 0 -41 -14 -36
-8 3 -17 1 -19 -6 -3 -9 -8 -9 -20 1 -9 8 -22 11 -29 7 -7 -4 -4 1 6 9 14 12
23 13 33 5 9 -9 13 -8 13 0 0 6 -7 14 -15 17 -19 8 -19 21 0 21 8 0 12 -4 9
-9z m811 -19 c-4 -5 -12 -9 -18 -8 -9 0 -8 2 1 6 6 2 9 10 6 15 -4 7 -2 8 5 4
6 -4 9 -12 6 -17z m-1891 -7 c2 -4 -4 -8 -14 -8 -10 0 -16 4 -14 8 3 4 9 8 14
8 5 0 11 -4 14 -8z m1906 -12 c-12 -23 -16 -24 -26 -8 -4 6 -3 8 3 5 6 -4 13
0 17 8 3 8 8 15 11 15 3 0 1 -9 -5 -20z m-2307 -5 c-3 -9 -8 -14 -10 -11 -3 3
-2 9 2 15 9 16 15 13 8 -4z m105 1 c-7 -8 -15 -12 -17 -11 -5 6 10 25 20 25 5
0 4 -6 -3 -14z m252 3 c0 -5 -4 -7 -10 -4 -5 3 -10 1 -10 -6 0 -7 -3 -10 -6
-6 -8 7 4 27 17 27 5 0 9 -5 9 -11z m810 -7 c0 -4 -10 -9 -22 -9 -18 -2 -20 0
-8 7 18 12 30 13 30 2z m-767 -9 c-7 -2 -19 -2 -25 0 -7 3 -2 5 12 5 14 0 19
-2 13 -5z m-662 -35 c-10 -11 -11 -9 -5 6 6 15 4 17 -6 11 -9 -6 -11 -4 -5 4
5 9 10 10 18 2 8 -8 7 -14 -2 -23z m2576 25 c-4 -3 1 -12 11 -20 15 -13 15
-13 -6 -3 -19 9 -23 30 -5 30 4 0 3 -3 0 -7z m-22 -23 c3 -6 -1 -7 -9 -4 -18
7 -21 14 -7 14 6 0 13 -4 16 -10z m-690 -22 c4 4 2 -3 -4 -15 -8 -17 -9 -29
-1 -43 8 -14 8 -26 0 -40 -6 -11 -8 -25 -5 -30 11 -18 -5 -32 -21 -19 -15 12
-20 34 -5 25 5 -3 11 1 14 9 4 8 1 12 -7 9 -8 -3 -12 5 -12 26 0 23 3 30 15
26 13 -4 13 -3 -1 6 -15 11 -15 13 0 25 9 7 13 13 7 12 -20 -3 -26 1 -20 11 5
8 11 8 19 1 7 -6 16 -7 21 -3z m725 -10 c10 -21 10 -21 -3 -6 -8 10 -18 14
-22 10 -5 -4 -5 -1 -1 6 10 17 14 15 26 -10z m-17 -21 c4 3 7 4 7 0 0 -18 -21
-14 -30 5 -10 21 -10 21 3 6 8 -10 17 -15 20 -11z m7 -42 c0 -2 -6 -7 -12 -11
-7 -4 -10 -4 -6 1 4 4 0 14 -10 22 -15 13 -15 13 6 3 12 -6 22 -13 22 -15z
m18 0 c-3 -3 -9 2 -12 12 -6 14 -5 15 5 6 7 -7 10 -15 7 -18z m-42 -27 c4 -7
3 -8 -4 -4 -7 4 -12 2 -12 -5 0 -7 -3 -10 -6 -6 -6 5 3 27 11 27 2 0 7 -5 11
-12z m-2546 -13 c-14 -17 -30 -20 -30 -4 0 5 4 8 9 4 5 -3 12 -1 16 5 3 5 9
10 12 10 3 0 0 -7 -7 -15z m2545 -36 c-4 -5 -12 -9 -18 -8 -9 0 -8 2 1 6 6 2
9 10 6 15 -4 7 -2 8 5 4 6 -4 9 -12 6 -17z m15 -19 c-12 -23 -16 -24 -26 -8
-4 6 -3 8 3 5 6 -4 13 0 17 8 3 8 8 15 11 15 3 0 1 -9 -5 -20z m-3297 -35 c4
-8 3 -16 -1 -19 -4 -3 -9 4 -9 15 -2 23 3 25 10 4z m3304 8 c-4 -3 1 -12 11
-20 15 -13 15 -13 -6 -3 -19 9 -23 30 -5 30 4 0 3 -3 0 -7z m-2561 -51 c-2 -9
-8 -17 -15 -18 -6 -1 -7 0 -2 2 5 3 7 17 5 32 -3 19 -2 23 5 13 5 -7 8 -21 7
-29z m2539 28 c3 -6 -1 -7 -9 -4 -18 7 -21 14 -7 14 6 0 13 -4 16 -10z m-698
-43 c0 -7 -8 -13 -17 -13 -11 0 -16 9 -15 27 0 25 2 26 16 13 9 -8 16 -20 16
-27z m733 11 c10 -21 10 -21 -3 -6 -8 10 -18 14 -22 10 -5 -4 -5 -1 -1 6 10
17 14 15 26 -10z m-15 -20 c4 4 2 -3 -4 -15 -13 -26 -17 -28 -27 -11 -4 7 -3
8 4 4 15 -9 15 -1 1 27 -9 20 -9 20 4 5 8 -10 18 -14 22 -10z m-2559 -44 c1
-9 0 -13 -4 -10 -3 4 -7 14 -8 22 -1 9 0 13 4 10 3 -4 7 -14 8 -22z m-25 -11
c13 -16 12 -17 -3 -4 -17 13 -22 21 -14 21 2 0 10 -8 17 -17z m2599 7 c0 -5
-5 -10 -11 -10 -5 0 -7 5 -4 10 3 6 8 10 11 10 2 0 4 -4 4 -10z m-2576 -35
c-5 -11 -1 -14 12 -9 18 5 18 5 1 -6 -9 -6 -22 -8 -27 -5 -6 3 -10 1 -10 -5 0
-6 -5 -8 -11 -4 -8 5 -8 1 0 -14 14 -27 14 -29 -3 -29 -13 0 -14 9 -7 60 0 5
5 6 10 3 5 -3 14 1 21 9 16 19 21 19 14 0z m-596 -15 c-2 -18 4 -23 12 -10 5
8 24 15 44 15 19 1 32 -3 30 -7 -6 -10 10 -11 20 -1 10 10 46 11 40 1 -8 -12
10 -10 26 5 12 10 12 9 1 -5 -14 -19 -12 -22 13 -12 9 3 14 9 12 13 -2 3 8 7
22 8 25 1 25 0 7 -10 -11 -7 -21 -20 -21 -29 -2 -20 4 -22 26 -8 13 9 13 10 0
10 -10 1 -7 5 8 13 12 7 20 15 18 18 -13 12 54 2 70 -11 16 -14 17 -13 11 4
-6 16 -5 17 8 6 11 -9 15 -9 15 -1 0 7 9 5 26 -5 14 -9 23 -23 20 -30 -3 -8 2
-12 15 -11 10 1 19 4 19 8 0 4 3 16 6 26 5 16 4 16 -10 -1 -14 -17 -21 -11
-13 12 4 12 51 8 69 -6 17 -14 14 -42 -4 -42 -6 0 -5 6 2 15 7 8 8 15 2 15
-11 0 -34 -25 -28 -31 3 -2 -17 -4 -44 -4 -34 0 -46 3 -43 12 3 7 9 10 14 7 5
-3 9 0 9 5 0 6 -2 11 -4 11 -2 0 -11 3 -19 6 -10 4 -15 -1 -14 -13 1 -11 -4
-18 -15 -17 -10 1 -18 -3 -18 -9 0 -6 -6 -2 -14 8 -13 18 -13 18 -24 -1 -7
-12 -12 -14 -12 -5 0 11 -3 11 -17 0 -16 -12 -17 -12 -6 2 7 9 10 19 6 22 -9
9 -23 9 -22 0 5 -31 -17 -37 -65 -17 -14 5 -17 4 -11 -5 6 -10 3 -11 -15 -1
-12 6 -19 18 -16 25 3 9 -2 13 -14 12 -11 -1 -21 -11 -25 -24 -4 -17 -12 -22
-34 -20 -16 1 -28 4 -26 7 2 3 -3 10 -10 17 -10 10 -14 9 -19 -2 -3 -8 0 -15
6 -15 6 0 9 -3 6 -6 -8 -7 -48 18 -48 30 0 4 7 3 15 -4 8 -7 15 -8 15 -2 0 5
-10 16 -21 24 -21 14 -21 14 -1 14 11 0 20 -3 20 -6z m535 -7 c-4 -10 -9 -11
-19 -2 -18 15 -18 15 5 15 11 0 17 -5 14 -13z m1981 1 c18 -18 18 -17 10 -38
-3 -9 -11 -16 -16 -16 -6 0 -4 7 3 16 11 14 10 19 -10 35 -13 11 -19 19 -13
19 6 0 18 -7 26 -16z m39 -1 c-4 -9 0 -11 11 -7 9 3 14 9 12 13 -2 3 8 6 24 6
16 1 26 -4 24 -10 -3 -6 5 -11 17 -12 18 -2 19 0 8 15 -11 14 -11 15 1 5 15
-14 34 -18 27 -5 -3 4 7 8 21 8 15 1 21 -1 14 -3 -6 -3 -10 -9 -7 -13 3 -5 12
-7 20 -4 8 4 13 9 11 13 -2 3 13 6 34 6 21 1 36 -3 34 -7 -6 -10 10 -11 20 -1
10 10 46 11 40 1 -8 -12 10 -10 26 5 12 10 12 9 1 -5 -14 -19 -12 -22 13 -12
9 3 14 9 12 13 -2 3 8 7 22 8 25 1 25 0 7 -10 -11 -7 -21 -20 -21 -29 -2 -20
4 -22 26 -8 13 9 13 10 0 10 -10 1 -7 5 8 13 12 7 21 15 18 18 -2 2 8 4 24 4
21 1 26 -3 22 -15 -4 -12 -2 -12 15 3 19 16 20 16 33 -8 9 -17 10 -29 3 -36
-6 -6 -9 -3 -9 12 1 12 -6 24 -14 27 -13 5 -13 3 -1 -11 9 -11 10 -17 2 -17
-6 0 -11 6 -11 13 -1 6 -10 1 -20 -12 -11 -13 -20 -18 -20 -11 0 9 -4 9 -17
-1 -16 -12 -17 -12 -6 2 7 9 10 19 6 22 -9 9 -23 9 -22 0 5 -31 -17 -37 -65
-17 -14 5 -17 4 -11 -5 6 -10 3 -11 -15 -1 -12 6 -19 18 -16 25 3 9 -2 13 -14
12 -11 -1 -21 -11 -25 -24 -3 -13 -13 -23 -22 -23 -14 0 -14 2 3 14 10 8 16
17 12 21 -3 4 -16 -3 -27 -14 -12 -12 -21 -16 -21 -10 0 8 -6 7 -17 -2 -16
-12 -17 -12 -6 2 7 9 10 19 6 22 -9 10 -25 9 -19 -1 2 -4 1 -14 -5 -22 -6 -11
-9 -11 -10 -2 -1 6 -2 17 -3 24 -2 19 -24 20 -22 1 0 -11 -5 -17 -16 -17 -10
1 -18 -1 -18 -5 0 -4 -7 -8 -16 -8 -15 0 -15 2 0 13 10 7 13 15 7 18 -5 4 -17
-4 -25 -16 -9 -12 -16 -16 -16 -9 0 11 -3 11 -17 0 -16 -12 -17 -12 -6 2 7 9
10 19 6 22 -9 10 -25 9 -19 -1 7 -12 -12 -38 -21 -28 -4 5 -2 11 4 13 10 3 9
10 -2 27 -13 19 -13 23 -1 23 8 0 12 -6 9 -14z m-1953 -23 c0 -5 -7 -10 -15
-10 -8 0 -15 5 -15 10 0 6 7 10 15 10 8 0 15 -4 15 -10z m-477 -13 c3 -8 -1
-14 -8 -14 -7 0 -11 6 -8 14 3 7 6 13 8 13 2 0 5 -6 8 -13z m400 -2 c-3 -9 -8
-14 -10 -11 -3 3 -2 9 2 15 9 16 15 13 8 -4z m2320 2 c3 -8 -1 -14 -8 -14 -7
0 -11 6 -8 14 3 7 6 13 8 13 2 0 5 -6 8 -13z m262 -7 c3 -5 1 -10 -4 -10 -6 0
-11 5 -11 10 0 6 2 10 4 10 3 0 8 -4 11 -10z"/>
<path d="M925 4400 c3 -6 0 -10 -7 -10 -10 0 -10 -2 1 -9 11 -7 11 -9 0 -14
-8 -3 -4 -4 8 -4 24 1 28 33 5 42 -7 2 -10 0 -7 -5z"/>
<path d="M1619 4454 c-1 -2 -2 -7 -3 -11 -1 -5 -5 -13 -9 -20 -4 -7 -1 -10 10
-8 10 1 23 -1 29 -6 7 -6 10 0 9 18 0 16 -7 27 -18 29 -9 1 -18 0 -18 -2z m28
-19 c0 -6 -6 -12 -12 -12 -6 0 -12 6 -12 12 0 6 6 12 12 12 6 0 12 -6 12 -12z"/>
<path d="M4179 4458 c-10 -41 -8 -46 16 -44 21 1 23 3 10 12 -8 6 -12 13 -9
16 3 4 1 9 -5 13 -6 3 -11 5 -12 3z"/>
<path d="M3480 4350 c8 -5 20 -10 25 -10 6 0 3 5 -5 10 -8 5 -19 10 -25 10 -5
0 -3 -5 5 -10z"/>
<path d="M3493 4325 c4 -5 -3 -20 -15 -33 -13 -14 -18 -22 -11 -18 6 3 14 2
18 -4 3 -5 1 -10 -6 -10 -7 0 -10 -3 -6 -6 3 -3 13 -2 22 4 16 8 16 9 0 16
-17 6 -17 8 -1 25 14 15 15 21 4 27 -7 4 -10 3 -5 -1z"/>
<path d="M924 4232 c4 -7 2 -21 -5 -30 -12 -15 -11 -15 6 0 16 15 17 20 6 30
-11 11 -13 10 -7 0z"/>
<path d="M933 4164 c-3 -9 -12 -13 -22 -10 -15 6 -15 5 0 -6 21 -17 23 -29 7
-40 -10 -8 -10 -9 2 -5 8 2 14 10 13 16 -2 6 1 11 5 11 4 0 8 11 8 25 0 29 -4
32 -13 9z"/>
<path d="M4405 3971 c-3 -2 0 -10 6 -17 12 -15 54 0 44 16 -5 9 -42 10 -50 1z
m45 -6 c0 -7 -30 -13 -34 -7 -3 4 4 9 15 9 10 1 19 0 19 -2z"/>
<path d="M4425 3650 c3 -5 11 -10 16 -10 6 0 7 5 4 10 -3 6 -11 10 -16 10 -6
0 -7 -4 -4 -10z"/>
<path d="M673 3563 c0 -7 3 -11 5 -8 3 3 12 -1 21 -8 14 -10 14 -10 4 4 -7 9
-11 18 -8 21 3 2 -1 5 -8 5 -8 0 -14 -6 -14 -14z"/>
<path d="M4915 3480 c-3 -5 1 -10 10 -10 9 0 13 5 10 10 -3 6 -8 10 -10 10 -2
0 -7 -4 -10 -10z"/>
<path d="M4660 2045 c0 -4 8 -18 17 -29 10 -12 11 -15 3 -8 -19 16 -27 15 -27
-3 0 -9 8 -13 21 -11 12 2 20 10 18 17 -4 17 -32 47 -32 34z"/>
<path d="M4175 1156 c1 -12 6 -20 11 -19 5 1 14 -3 19 -7 7 -6 11 1 10 19 0
21 -5 27 -21 27 -14 0 -20 -6 -19 -20z"/>
<path d="M1755 940 c-3 -5 -1 -10 4 -10 6 0 11 5 11 10 0 6 -2 10 -4 10 -3 0
-8 -4 -11 -10z"/>
<path d="M1710 915 c0 -8 5 -15 10 -15 6 0 10 7 10 15 0 8 -4 15 -10 15 -5 0
-10 -7 -10 -15z"/>
<path d="M1800 924 c0 -8 5 -12 10 -9 6 4 8 11 5 16 -9 14 -15 11 -15 -7z"/>
<path d="M2185 921 c-3 -5 -1 -12 5 -16 5 -3 10 1 10 9 0 18 -6 21 -15 7z"/>
<path d="M2870 910 c0 -5 5 -10 10 -10 6 0 10 5 10 10 0 6 -4 10 -10 10 -5 0
-10 -4 -10 -10z"/>
<path d="M3390 924 c0 -8 5 -12 10 -9 6 4 8 11 5 16 -9 14 -15 11 -15 -7z"/>
<path d="M3470 759 c0 -5 5 -7 10 -4 6 3 10 8 10 11 0 2 -4 4 -10 4 -5 0 -10
-5 -10 -11z"/>
<path d="M1070 459 c0 -5 11 -16 26 -25 19 -13 28 -14 37 -5 8 8 8 14 0 22
-14 14 -63 21 -63 8z"/>
<path d="M1323 462 c-8 -5 -7 -11 3 -19 15 -14 27 -3 16 14 -4 7 -13 9 -19 5z"/>
<path d="M1350 462 c0 -5 7 -15 15 -22 8 -7 15 -8 15 -2 0 5 -7 15 -15 22 -8
7 -15 8 -15 2z"/>
<path d="M1510 455 c-7 -9 -11 -18 -8 -20 3 -3 11 1 18 10 7 9 11 18 8 20 -3
3 -11 -1 -18 -10z"/>
<path d="M1190 440 c0 -5 5 -10 10 -10 6 0 10 5 10 10 0 6 -4 10 -10 10 -5 0
-10 -4 -10 -10z"/>
<path d="M1230 440 c0 -5 5 -10 10 -10 6 0 10 5 10 10 0 6 -4 10 -10 10 -5 0
-10 -4 -10 -10z"/>
<path d="M1390 440 c0 -5 5 -10 10 -10 6 0 10 5 10 10 0 6 -4 10 -10 10 -5 0
-10 -4 -10 -10z"/>
<path d="M3643 462 c-8 -5 -7 -11 3 -19 15 -14 27 -3 16 14 -4 7 -13 9 -19 5z"/>
<path d="M3803 462 c-8 -5 -7 -10 1 -18 9 -8 17 -8 30 1 11 8 13 15 7 20 -6 3
-11 0 -11 -7 0 -10 -2 -10 -8 -1 -4 7 -13 9 -19 5z"/>
<path d="M4043 462 c-8 -5 -7 -11 3 -19 15 -14 27 -3 16 14 -4 7 -13 9 -19 5z"/>
<path d="M3710 440 c0 -5 5 -10 10 -10 6 0 10 5 10 10 0 6 -4 10 -10 10 -5 0
-10 -4 -10 -10z"/>
<path d="M3910 440 c0 -5 5 -10 10 -10 6 0 10 5 10 10 0 6 -4 10 -10 10 -5 0
-10 -4 -10 -10z"/>
<path d="M3950 440 c0 -5 5 -10 10 -10 6 0 10 5 10 10 0 6 -4 10 -10 10 -5 0
-10 -4 -10 -10z"/>
<path d="M3470 4471 c0 -7 -5 -9 -12 -5 -7 5 -8 3 -3 -5 5 -9 10 -10 18 -2 6
6 8 14 4 18 -4 3 -7 1 -7 -6z"/>
<path d="M3485 4440 c3 -5 8 -10 11 -10 2 0 4 5 4 10 0 6 -5 10 -11 10 -5 0
-7 -4 -4 -10z"/>
<path d="M1870 4230 c0 -5 5 -10 10 -10 6 0 10 5 10 10 0 6 -4 10 -10 10 -5 0
-10 -4 -10 -10z"/>
<path d="M2350 4203 c0 -6 8 -17 18 -24 16 -13 16 -13 2 6 -8 11 -16 22 -17
24 -2 2 -3 0 -3 -6z"/>
<path d="M2900 4189 c0 -5 5 -7 10 -4 6 3 10 8 10 11 0 2 -4 4 -10 4 -5 0 -10
-5 -10 -11z"/>
<path d="M2336 4162 c-3 -5 1 -9 9 -9 8 0 12 4 9 9 -3 4 -7 8 -9 8 -2 0 -6 -4
-9 -8z"/>
<path d="M2347 4035 c-16 -11 -16 -13 -2 -19 9 -3 13 -10 10 -16 -3 -5 -1 -10
4 -10 15 0 14 13 -1 29 -11 11 -10 13 3 8 20 -7 46 8 30 17 -6 4 -11 1 -11 -6
0 -9 -2 -10 -8 -1 -5 8 -12 8 -25 -2z"/>
<path d="M644 3959 c-3 -6 -1 -16 5 -22 9 -9 10 -7 5 7 -6 15 -4 17 6 11 9 -5
11 -4 6 3 -9 15 -13 15 -22 1z"/>
<path d="M2746 3958 c3 -5 10 -6 15 -3 13 9 11 12 -6 12 -8 0 -12 -4 -9 -9z"/>
<path d="M657 3905 c-17 -24 -17 -24 0 -18 17 6 17 5 2 -13 -16 -20 -15 -54 2
-54 6 0 5 9 -2 21 -9 18 -8 20 9 15 13 -5 22 -1 26 10 5 14 4 15 -8 5 -11 -9
-13 -7 -13 14 0 20 2 23 13 14 10 -8 14 -8 14 0 0 6 -5 11 -11 11 -5 0 -7 5
-4 10 13 21 -11 8 -28 -15z"/>
<path d="M2756 3922 c-3 -5 1 -9 9 -9 8 0 12 4 9 9 -3 4 -7 8 -9 8 -2 0 -6 -4
-9 -8z"/>
<path d="M2755 3891 c-3 -5 -2 -12 3 -15 5 -3 9 1 9 9 0 17 -3 19 -12 6z"/>
<path d="M2754 3846 c1 -8 5 -18 8 -22 4 -3 5 1 4 10 -1 8 -5 18 -8 22 -4 3
-5 -1 -4 -10z"/>
<path d="M680 3836 c0 -2 7 -9 15 -16 9 -7 15 -8 15 -2 0 5 -7 12 -15 16 -8 3
-15 4 -15 2z"/>
<path d="M644 3788 c0 -17 2 -17 12 -4 6 9 17 16 23 16 8 0 7 -5 -3 -16 -9 -8
-14 -19 -11 -24 3 -4 -2 -13 -10 -20 -15 -12 -10 -40 7 -40 7 0 6 5 -1 14 -9
11 -6 14 14 14 21 0 23 -3 14 -14 -9 -12 -9 -13 3 -9 16 6 21 65 6 65 -5 0 -7
-4 -4 -9 3 -5 -1 -14 -9 -21 -13 -11 -15 -9 -12 10 2 13 12 29 22 36 19 14 18
16 -25 19 -19 1 -26 -3 -26 -17z"/>
<path d="M4890 3520 c0 -5 5 -10 11 -10 5 0 7 5 4 10 -3 6 -8 10 -11 10 -2 0
-4 -4 -4 -10z"/>
<path d="M180 3477 c-12 -10 -15 -43 -16 -174 0 -93 3 -160 8 -157 5 4 7 12 4
19 -2 7 2 16 9 19 11 4 12 0 4 -21 -6 -17 -6 -30 1 -38 5 -6 6 -16 2 -20 -4
-5 -1 -5 6 -1 9 6 10 11 3 20 -6 7 -8 15 -6 18 3 3 7 14 9 24 2 11 6 25 8 33
1 7 -3 16 -11 19 -9 3 -11 0 -6 -8 5 -8 4 -11 -3 -6 -5 3 -13 0 -15 -6 -3 -8
-6 -6 -6 5 -1 9 3 17 9 17 5 0 7 7 4 15 -6 14 5 19 34 16 19 -3 -8 38 -31 45
-16 5 -15 7 5 24 15 12 18 19 9 20 -11 0 -11 3 -1 15 14 17 0 21 -16 5 -6 -6
-10 -2 -11 13 0 12 1 17 4 10 3 -9 10 -9 29 -1 18 9 21 14 13 25 -6 7 -7 13
-2 13 11 0 11 40 0 58 -10 15 -18 15 -37 -1z m35 -7 c4 -6 -1 -7 -11 -3 -13 5
-15 3 -8 -8 13 -21 14 -39 2 -39 -6 0 -5 -6 2 -15 8 -9 8 -15 2 -15 -15 0 -21
22 -11 42 6 10 5 19 -1 23 -11 7 -4 25 10 25 5 0 12 -4 15 -10z m-25 -134 c0
-3 -4 -8 -10 -11 -5 -3 -10 -1 -10 4 0 6 5 11 10 11 6 0 10 -2 10 -4z m5 -67
c-4 -5 -12 -9 -18 -8 -9 0 -8 2 1 6 6 2 9 10 6 15 -4 7 -2 8 5 4 6 -4 9 -12 6
-17z"/>
<path d="M195 3240 c-3 -5 1 -10 10 -10 9 0 13 5 10 10 -3 6 -8 10 -10 10 -2
0 -7 -4 -10 -10z"/>
<path d="M193 3043 c0 -17 12 -17 27 1 9 12 8 15 -8 13 -10 0 -19 -7 -19 -14z"/>
<path d="M190 3000 c0 -5 5 -10 10 -10 6 0 10 5 10 10 0 6 -4 10 -10 10 -5 0
-10 -4 -10 -10z"/>
<path d="M195 2921 c-3 -5 -1 -12 5 -16 5 -3 10 1 10 9 0 18 -6 21 -15 7z"/>
<path d="M195 2760 c-3 -5 1 -10 10 -10 9 0 13 5 10 10 -3 6 -8 10 -10 10 -2
0 -7 -4 -10 -10z"/>
<path d="M194 2720 c0 -11 5 -19 11 -17 5 2 10 10 10 17 0 7 -5 15 -10 17 -6
2 -11 -6 -11 -17z"/>
<path d="M196 2691 c-11 -4 -15 -10 -9 -14 5 -3 19 0 29 8 20 15 11 18 -20 6z"/>
<path d="M164 2420 c0 -131 4 -236 9 -233 5 3 6 11 3 18 -2 7 2 16 9 19 11 4
12 0 4 -20 -5 -14 -7 -30 -4 -35 4 -5 0 -6 -8 -3 -11 4 -14 -4 -13 -35 1 -21
4 -42 7 -46 4 -3 6 2 5 12 -1 12 6 18 21 18 33 0 38 13 15 38 -12 13 -20 26
-17 29 3 3 7 14 9 24 2 11 6 25 8 33 1 7 -3 16 -11 19 -9 3 -11 0 -6 -8 5 -8
4 -11 -3 -6 -5 3 -13 0 -15 -6 -3 -8 -6 -6 -6 5 -1 9 3 17 9 17 5 0 7 7 4 15
-6 14 5 19 34 16 19 -3 -8 38 -31 45 -16 5 -15 7 5 24 13 11 18 19 12 20 -6 0
-11 6 -11 13 0 6 -2 17 -3 22 -5 20 0 35 11 35 8 0 8 -5 -1 -15 -7 -8 -8 -15
-2 -15 5 0 15 6 21 13 8 11 5 16 -13 25 -19 8 -26 8 -29 -1 -2 -7 -4 0 -3 15
0 14 5 24 9 21 5 -3 8 1 6 8 -3 26 1 39 12 39 8 0 8 -4 0 -14 -9 -11 -9 -16 0
-21 8 -6 8 -10 -2 -16 -7 -4 -10 -11 -6 -15 4 -4 15 0 24 9 13 12 14 17 4 17
-9 0 -11 8 -8 23 4 12 2 29 -3 37 -9 13 -10 13 -10 0 -1 -12 -3 -11 -11 3 -8
13 -7 22 1 32 9 10 7 16 -7 24 -10 6 -13 11 -7 11 6 0 17 -7 24 -15 7 -8 18
-15 24 -15 6 0 4 5 -4 10 -8 5 -10 10 -4 10 6 0 11 7 11 15 0 11 -4 12 -14 3
-10 -8 -18 -7 -31 5 -16 15 -17 4 -18 -223z m26 -44 c0 -3 -4 -8 -10 -11 -5
-3 -10 -1 -10 4 0 6 5 11 10 11 6 0 10 -2 10 -4z m5 -67 c-4 -5 -12 -9 -18 -8
-9 0 -8 2 1 6 6 2 9 10 6 15 -4 7 -2 8 5 4 6 -4 9 -12 6 -17z m7 -167 c-7 -2
-10 -8 -7 -13 4 -5 0 -6 -8 -3 -23 8 -16 32 7 26 11 -3 15 -7 8 -10z"/>
<path d="M195 2280 c-3 -5 1 -10 10 -10 9 0 13 5 10 10 -3 6 -8 10 -10 10 -2
0 -7 -4 -10 -10z"/>
<path d="M451 2052 c-17 -31 -13 -40 5 -14 9 13 14 26 11 29 -3 2 -10 -4 -16
-15z"/>
<path d="M420 2000 c-9 -6 -10 -10 -3 -10 6 0 15 5 18 10 8 12 4 12 -15 0z"/>
<path d="M447 1919 c7 -7 15 -10 18 -7 3 3 -2 9 -12 12 -14 6 -15 5 -6 -5z"/>
<path d="M413 1873 c0 -10 4 -10 16 -1 9 7 18 13 20 15 2 1 -5 1 -16 0 -11 0
-20 -7 -20 -14z"/>
<path d="M645 1647 c1 -17 8 -22 30 -22 32 0 45 19 19 29 -14 5 -15 4 -5 -8 9
-11 7 -13 -14 -13 -19 0 -23 3 -15 12 8 9 7 14 -3 18 -9 3 -13 -2 -12 -16z"/>
<path d="M660 1603 c1 -18 18 -35 24 -24 4 6 2 11 -4 11 -6 0 -8 5 -5 10 3 6
1 10 -4 10 -6 0 -11 -3 -11 -7z"/>
<path d="M4466 1595 c-3 -8 -1 -15 4 -15 6 0 10 7 10 15 0 8 -2 15 -4 15 -2 0
-6 -7 -10 -15z"/>
<path d="M643 1570 c1 -11 3 -17 6 -15 2 3 15 -2 28 -10 13 -9 23 -11 23 -5 0
5 -4 10 -10 10 -5 0 -19 9 -29 19 -19 19 -20 19 -18 1z"/>
<path d="M645 1531 c-4 -7 0 -8 11 -4 12 4 15 3 10 -5 -4 -7 -2 -12 4 -12 14
0 8 22 -7 27 -6 2 -14 -1 -18 -6z"/>
<path d="M4465 1530 c3 -5 8 -10 11 -10 2 0 4 5 4 10 0 6 -5 10 -11 10 -5 0
-7 -4 -4 -10z"/>
<path d="M645 1487 c1 -17 8 -22 30 -22 32 0 45 19 19 29 -14 5 -15 4 -5 -8 9
-11 7 -13 -14 -13 -19 0 -23 3 -15 12 8 9 7 14 -3 18 -9 3 -13 -2 -12 -16z"/>
<path d="M690 1439 c0 -5 5 -7 10 -4 6 3 10 8 10 11 0 2 -4 4 -10 4 -5 0 -10
-5 -10 -11z"/>
<path d="M2770 1299 c0 -5 5 -7 10 -4 6 3 10 8 10 11 0 2 -4 4 -10 4 -5 0 -10
-5 -10 -11z"/>
<path d="M2350 1288 c1 -29 47 -62 47 -33 0 7 -6 11 -13 8 -7 -2 -11 3 -11 13
1 9 -4 19 -10 21 -7 3 -13 -1 -13 -9z"/>
<path d="M2770 1180 c0 -5 5 -10 11 -10 5 0 7 5 4 10 -3 6 -8 10 -11 10 -2 0
-4 -4 -4 -10z"/>
<path d="M924 1132 c-14 -9 -12 -48 4 -64 7 -7 12 -10 13 -7 0 2 2 12 4 22 2
9 -1 15 -6 11 -5 -3 -9 0 -9 5 0 6 6 11 13 11 9 0 8 3 -2 9 -11 7 -11 9 0 14
8 3 10 6 4 6 -5 0 -15 -3 -21 -7z"/>
<path d="M910 999 c0 -5 5 -7 10 -4 6 3 10 8 10 11 0 2 -4 4 -10 4 -5 0 -10
-5 -10 -11z"/>
<path d="M2360 925 c0 -2 6 -8 13 -14 10 -8 14 -7 14 2 0 8 -6 14 -14 14 -7 0
-13 -1 -13 -2z"/>
<path d="M930 881 c0 -20 -3 -26 -18 -37 -14 -10 -13 -13 6 -23 20 -11 39 -1
24 13 -10 11 -9 30 1 37 5 4 4 10 -2 13 -6 4 -11 2 -11 -3z m5 -51 c3 -6 -1
-7 -9 -4 -18 7 -21 14 -7 14 6 0 13 -4 16 -10z"/>
<path d="M924 772 c4 -7 3 -19 -4 -27 -14 -16 1 -27 20 -14 13 7 13 9 0 9 -12
0 -12 2 -2 9 10 6 9 11 -4 22 -13 10 -16 10 -10 1z"/>
<path d="M930 695 c-10 -12 -10 -19 -2 -27 9 -9 8 -16 -1 -27 -11 -14 -10 -14
6 -2 13 10 15 17 6 27 -9 11 -8 18 1 29 7 8 10 15 7 15 -2 0 -10 -7 -17 -15z"/>
<path d="M924 612 c4 -7 3 -19 -4 -27 -14 -16 1 -27 20 -14 13 7 13 9 0 9 -12
0 -12 2 -2 9 10 6 9 11 -4 22 -13 10 -16 10 -10 1z"/>
<path d="M3495 540 c3 -5 8 -10 11 -10 2 0 4 5 4 10 0 6 -5 10 -11 10 -5 0 -7
-4 -4 -10z"/>
<path d="M915 520 c-3 -5 -1 -10 4 -10 6 0 11 5 11 10 0 6 -2 10 -4 10 -3 0
-8 -4 -11 -10z"/>
<path d="M3480 490 c-8 -5 -11 -12 -7 -17 5 -4 12 -1 16 6 7 11 10 11 14 0 3
-9 6 -10 6 -2 1 17 -13 23 -29 13z"/>
<path d="M4150 461 c0 -6 11 -18 24 -26 19 -13 29 -14 45 -5 29 15 26 20 -10
16 -17 -2 -36 3 -45 11 -7 8 -14 10 -14 4z"/>
<path d="M886 443 c-6 -14 -5 -15 5 -6 7 7 10 15 7 18 -3 3 -9 -2 -12 -12z"/>
<path d="M948 453 c6 -2 10 -9 6 -14 -3 -5 0 -9 6 -9 7 0 10 -7 6 -15 -6 -17
9 -21 19 -4 8 12 -23 49 -39 48 -6 0 -6 -3 2 -6z"/>
<path d="M3462 444 c10 -10 20 -16 22 -13 3 3 -5 11 -17 18 -21 13 -21 12 -5
-5z"/>
<path d="M910 446 c0 -2 7 -7 16 -10 8 -3 12 -2 9 4 -6 10 -25 14 -25 6z"/>
<path d="M4220 410 c-9 -6 -10 -10 -3 -10 6 0 15 5 18 10 8 12 4 12 -15 0z"/>
</g>
</svg>
