<?xml version="1.0" standalone="no"?>
<!DOCTYPE svg PUBLIC "-//W3C//DTD SVG 20010904//EN"
 "http://www.w3.org/TR/2001/REC-SVG-20010904/DTD/svg10.dtd">
<svg version="1.0" xmlns="http://www.w3.org/2000/svg"
 width="1280.000000pt" height="1280.000000pt" viewBox="0 0 1280.000000 1280.000000"
 preserveAspectRatio="xMidYMid meet">
<metadata>
Created by potrace 1.11, written by Peter Selinger 2001-2013
</metadata>
<g transform="translate(0.000000,1280.000000) scale(0.100000,-0.100000)"
fill="#000000" stroke="none">
<path d="M1940 11180 l0 -700 -340 0 -340 0 0 -646 c0 -546 -2 -648 -14 -660
-12 -12 -110 -14 -630 -14 l-616 0 0 -1830 0 -1830 290 0 290 0 0 -390 0 -390
340 0 340 0 0 -600 0 -600 940 0 940 0 0 -330 0 -330 -666 0 c-563 0 -668 -2
-680 -14 -12 -12 -14 -155 -14 -970 l0 -956 1030 0 1030 0 0 630 0 630 940 0
940 0 0 630 0 630 680 0 680 0 0 -630 0 -630 940 0 940 0 0 -630 0 -630 1030
0 1030 0 0 956 c0 815 -2 958 -14 970 -12 12 -117 14 -680 14 l-666 0 0 330 0
330 940 0 940 0 0 600 0 600 340 0 340 0 0 390 0 390 290 0 290 0 0 1830 0
1830 -616 0 c-520 0 -618 2 -630 14 -12 12 -14 114 -14 660 l0 646 -340 0
-340 0 0 700 0 700 -850 0 -850 0 0 -320 0 -320 -1040 0 -1040 0 0 -730 0
-730 -680 0 -680 0 0 730 0 730 -1040 0 -1040 0 0 320 0 320 -850 0 -850 0 0
-700z m1280 -320 l0 -380 -420 0 -420 0 0 380 0 380 420 0 420 0 0 -380z
m7200 0 l0 -380 -420 0 -420 0 0 380 0 380 420 0 420 0 0 -380z m-5160 -820
l0 -660 1140 0 1140 0 0 660 0 660 460 0 460 0 0 -660 0 -660 330 0 330 0 0
-320 0 -320 276 0 c225 0 278 -3 290 -14 12 -12 14 -74 14 -360 l0 -346 330 0
330 0 0 -130 c0 -80 -4 -130 -10 -130 -7 0 -10 -257 -10 -750 l0 -750 550 0
550 0 0 1240 0 1240 410 0 410 0 0 -1390 0 -1390 -320 0 -320 0 0 -340 0 -340
-640 0 -640 0 0 -620 0 -620 -620 0 -620 0 0 -640 0 -640 -780 0 -780 0 0 660
0 660 -1140 0 -1140 0 0 -660 0 -660 -780 0 -780 0 0 640 0 640 -620 0 -620 0
0 620 0 620 -640 0 -640 0 0 340 0 340 -320 0 -320 0 0 1390 0 1390 410 0 410
0 0 -1240 0 -1240 550 0 550 0 0 750 c0 493 -3 750 -10 750 -6 0 -10 50 -10
130 l0 130 330 0 330 0 0 346 c0 286 2 348 14 360 12 11 65 14 290 14 l276 0
0 320 0 320 330 0 330 0 0 660 0 660 460 0 460 0 0 -660z m-2040 -370 l0 -310
-300 0 -300 0 0 -320 0 -320 -410 0 -410 0 0 630 0 630 710 0 710 0 0 -310z
m7780 -320 l0 -630 -410 0 -410 0 0 320 0 320 -300 0 -300 0 0 310 0 310 710
0 710 0 0 -630z m-7720 -7710 l0 -380 -460 0 -460 0 0 380 0 380 460 0 460 0
0 -380z m7160 0 l0 -380 -460 0 -460 0 0 380 0 380 460 0 460 0 0 -380z"/>
<path d="M3900 6370 l0 -870 560 0 560 0 0 870 0 870 -560 0 -560 0 0 -870z"/>
<path d="M7780 6370 l0 -870 560 0 560 0 0 870 0 870 -560 0 -560 0 0 -870z"/>
</g>
</svg>
