<svg width="4294" height="3059" viewBox="0 0 4294 3059" fill="none" xmlns="http://www.w3.org/2000/svg">
    <g opacity="0.8">
        <path d="M1392.7 743.317C2133.72 580.492 2155.01 1799.22 4170.12 1672.63" stroke="#F3F0EF" stroke-width="5"/>
        <path d="M1409.76 699.92C1405.02 692.48 1399.73 688.732 1395.7 686.835C1393.73 685.91 1392.05 685.42 1390.85 685.161C1390.96 685.693 1391.08 686.321 1391.23 687.031C1391.75 689.48 1392.53 692.908 1393.63 696.81C1395.82 704.642 1399.2 714.277 1403.98 721.78C1408.73 729.237 1413.96 733.18 1417.96 735.261C1419.84 736.243 1421.46 736.815 1422.63 737.143C1422.53 736.606 1422.41 735.978 1422.28 735.27C1421.78 732.751 1421.03 729.233 1419.97 725.239C1417.84 717.221 1414.53 707.412 1409.76 699.92Z" stroke="#F3F0EF" stroke-width="3"/>
        <path d="M1446.75 683.481C1441.19 673.606 1434.47 668.324 1429.21 665.505C1426.57 664.093 1424.28 663.294 1422.67 662.85C1422.45 662.789 1422.24 662.735 1422.04 662.687C1422.14 663.481 1422.26 664.493 1422.42 665.69C1422.85 668.825 1423.53 673.218 1424.57 678.238C1426.65 688.308 1430.13 700.788 1435.73 710.728C1441.3 720.621 1447.93 726.139 1453.11 729.184C1455.71 730.709 1457.95 731.618 1459.53 732.143C1459.7 732.201 1459.87 732.255 1460.03 732.304C1459.95 731.494 1459.84 730.466 1459.69 729.257C1459.31 726.037 1458.68 721.532 1457.69 716.4C1455.72 706.104 1452.34 693.409 1446.75 683.481Z" stroke="#F3F0EF" stroke-width="3"/>
        <path d="M1461.28 669.619C1457.32 655.137 1458.63 644.105 1460.89 636.734C1462.02 633.041 1463.39 630.255 1464.47 628.404C1464.73 627.959 1464.97 627.568 1465.19 627.232C1465.88 628.139 1466.85 629.417 1468.01 631.013C1470.49 634.419 1473.89 639.269 1477.53 645.036C1484.84 656.593 1493.09 671.737 1497.08 686.29C1501.05 700.792 1500.03 711.971 1498.06 719.484C1497.07 723.245 1495.85 726.099 1494.87 727.998C1494.66 728.41 1494.46 728.776 1494.28 729.098C1493.56 728.18 1492.56 726.896 1491.36 725.299C1488.77 721.846 1485.22 716.934 1481.42 711.106C1473.81 699.422 1465.26 684.16 1461.28 669.619Z" stroke="#F3F0EF" stroke-width="3"/>
        <path d="M1507.05 655.814C1501.52 636.415 1501.05 619.911 1501.96 608.274C1502.41 602.455 1503.21 597.854 1503.89 594.718C1504.05 593.982 1504.21 593.327 1504.35 592.755C1505.27 593.952 1506.49 595.582 1507.96 597.586C1511.3 602.141 1515.87 608.622 1520.78 616.323C1530.62 631.748 1541.8 651.968 1547.33 671.355C1552.84 690.69 1551.7 705.54 1549.22 715.511C1547.97 720.503 1546.39 724.284 1545.13 726.802C1544.75 727.57 1544.39 728.221 1544.09 728.752C1543.33 727.706 1542.26 726.211 1540.97 724.323C1538.24 720.359 1534.48 714.664 1530.38 707.749C1522.16 693.906 1512.59 675.236 1507.05 655.814Z" stroke="#F3F0EF" stroke-width="3"/>
        <path d="M1500.83 792.19C1490.92 809.762 1486.61 825.701 1484.78 837.228C1483.86 842.992 1483.57 847.653 1483.5 850.861C1483.48 851.614 1483.48 852.288 1483.48 852.876C1484.65 851.927 1486.23 850.628 1488.12 849.022C1492.43 845.372 1498.38 840.136 1504.96 833.795C1518.13 821.094 1533.72 804.042 1543.62 786.481C1553.5 768.968 1555.85 754.261 1555.76 743.986C1555.72 738.842 1555.07 734.797 1554.43 732.053C1554.24 731.217 1554.04 730.502 1553.87 729.914C1552.89 730.754 1551.5 731.959 1549.8 733.491C1546.22 736.709 1541.24 741.37 1535.64 747.136C1524.42 758.679 1510.75 774.599 1500.83 792.19Z" stroke="#F3F0EF" stroke-width="3"/>
        <path d="M1475.52 757.471C1483.85 744.977 1493.04 738.732 1500.09 735.6C1503.61 734.032 1506.62 733.239 1508.72 732.838C1509.23 732.742 1509.68 732.669 1510.08 732.613C1509.85 733.73 1509.51 735.295 1509.07 737.22C1508.13 741.328 1506.7 747.072 1504.74 753.607C1500.81 766.704 1494.79 782.868 1486.43 795.424C1478.09 807.935 1468.98 814.501 1462.02 817.942C1458.53 819.666 1455.57 820.611 1453.5 821.123C1453.05 821.234 1452.65 821.325 1452.29 821.399C1452.5 820.251 1452.82 818.657 1453.24 816.703C1454.14 812.478 1455.52 806.579 1457.43 799.89C1461.25 786.48 1467.16 770.016 1475.52 757.471Z" stroke="#F3F0EF" stroke-width="3"/>
        <path d="M1432.44 776.877C1429.97 787.937 1431.42 796.354 1433.45 801.973C1434.46 804.79 1435.63 806.914 1436.53 808.323C1436.65 808.515 1436.77 808.695 1436.88 808.86C1437.35 808.209 1437.93 807.374 1438.61 806.376C1440.4 803.762 1442.83 800.04 1445.42 795.615C1450.61 786.739 1456.37 775.134 1458.86 764.001C1461.34 752.92 1460.11 744.387 1458.29 738.656C1457.38 735.786 1456.33 733.61 1455.5 732.164C1455.41 732.003 1455.32 731.851 1455.24 731.709C1454.76 732.365 1454.15 733.202 1453.45 734.197C1451.58 736.847 1449.04 740.617 1446.33 745.09C1440.91 754.063 1434.93 765.757 1432.44 776.877Z" stroke="#F3F0EF" stroke-width="3"/>
        <path d="M1414.49 774.207C1410.21 781.922 1405.17 785.986 1401.25 788.125C1399.35 789.169 1397.7 789.761 1396.52 790.092C1396.59 789.554 1396.68 788.92 1396.78 788.203C1397.15 785.726 1397.73 782.257 1398.58 778.296C1400.28 770.344 1403.07 760.521 1407.38 752.74C1411.67 745.007 1416.66 740.752 1420.52 738.431C1422.34 737.336 1423.92 736.667 1425.06 736.267C1425 736.809 1424.92 737.444 1424.82 738.159C1424.49 740.702 1423.95 744.26 1423.14 748.311C1421.5 756.444 1418.79 766.437 1414.49 774.207Z" stroke="#F3F0EF" stroke-width="3"/>
        <path d="M1606.69 625.059C1599.1 600.365 1586.38 583.782 1575.57 573.378C1570.17 568.174 1565.25 564.515 1561.68 562.162C1560.17 561.162 1558.9 560.399 1557.95 559.853C1557.86 561.18 1557.77 563.06 1557.69 565.427C1557.53 570.469 1557.47 577.718 1557.89 586.524C1558.73 604.14 1561.48 627.953 1569.11 652.773C1576.73 677.592 1587.8 698.751 1596.98 713.71C1601.56 721.187 1605.66 727.108 1608.62 731.156C1609.65 732.567 1610.54 733.751 1611.26 734.693C1611.53 732.897 1611.87 730.426 1612.24 727.393C1613.05 720.667 1613.98 711.178 1614.42 700.136C1615.32 678.024 1614.29 649.796 1606.69 625.059Z" stroke="#F3F0EF" stroke-width="3"/>
        <path d="M1689.5 638.347C1680.34 607.191 1664.57 580.6 1651.06 561.782C1644.31 552.378 1638.14 544.926 1633.65 539.83C1631.75 537.671 1630.16 535.936 1628.95 534.654C1628.95 534.76 1628.95 534.868 1628.95 534.978C1628.97 537.585 1629.01 541.381 1629.11 546.134C1629.32 555.641 1629.8 568.97 1630.85 584.256C1632.94 614.851 1637.34 653.191 1646.52 684.403C1655.68 715.574 1667.86 733.688 1677.66 743.983C1682.56 749.133 1686.88 752.337 1689.94 754.245C1691.28 755.082 1692.39 755.671 1693.2 756.064C1693.25 755.814 1693.32 755.536 1693.38 755.233C1693.76 753.558 1694.27 751.089 1694.84 747.927C1695.96 741.603 1697.27 732.511 1698 721.466C1699.48 699.368 1698.65 669.499 1689.5 638.347Z" stroke="#F3F0EF" stroke-width="3"/>
        <path d="M1781.38 635.444C1772.51 597.453 1756.52 568.855 1742.76 549.76C1735.88 540.213 1729.55 533.044 1724.96 528.268C1722.77 525.99 1720.97 524.256 1719.69 523.07C1719.52 524.935 1719.29 527.668 1719.08 531.174C1718.64 538.274 1718.25 548.544 1718.41 561.197C1718.74 586.509 1721.28 621.342 1730.17 659.43C1739.06 697.521 1752.62 731.68 1763.96 756.323C1769.63 768.642 1774.75 778.576 1778.44 785.427C1780.05 788.409 1781.38 790.806 1782.38 792.561C1782.82 790.099 1783.43 786.542 1784.09 782.064C1785.46 772.908 1787.09 759.901 1788.17 744.512C1790.33 713.716 1790.25 673.458 1781.38 635.444Z" stroke="#F3F0EF" stroke-width="3"/>
        <path d="M1869.26 679.922C1859.76 637.9 1844.53 604.75 1831.69 582.114C1825.26 570.796 1819.43 562.11 1815.22 556.259C1813.58 553.982 1812.18 552.136 1811.09 550.73C1811.09 551.237 1811.1 551.787 1811.11 552.377C1811.15 556.218 1811.23 561.801 1811.39 568.765C1811.71 582.694 1812.33 602.144 1813.55 624.228C1815.99 668.42 1820.81 723.071 1830.32 765.135C1839.82 807.18 1852.18 828.548 1862.01 839.382C1866.91 844.793 1871.19 847.581 1874.18 849.014C1875.49 849.641 1876.56 850.012 1877.33 850.229C1877.4 849.623 1877.48 848.851 1877.58 847.921C1877.85 845.361 1878.21 841.605 1878.58 836.832C1879.33 827.286 1880.13 813.676 1880.33 797.433C1880.74 764.937 1878.76 721.957 1869.26 679.922Z" stroke="#F3F0EF" stroke-width="3"/>
        <path d="M1973.33 706.585C1967.68 656.054 1955.15 618.041 1944.04 592.683C1938.48 580.003 1933.28 570.485 1929.48 564.148C1927.79 561.326 1926.37 559.135 1925.32 557.576C1925.26 557.957 1925.18 558.369 1925.11 558.81C1924.56 561.904 1923.8 566.441 1922.92 572.204C1921.16 583.731 1918.92 600.157 1917.04 619.748C1913.28 658.941 1910.94 710.748 1916.59 761.301C1922.24 811.837 1934.81 851.572 1945.95 878.659C1951.52 892.203 1956.74 902.583 1960.56 909.57C1962.25 912.662 1963.67 915.089 1964.72 916.831C1964.78 916.462 1964.85 916.067 1964.91 915.647C1965.45 912.364 1966.21 907.559 1967.09 901.474C1968.84 889.303 1971.06 872.019 1972.93 851.569C1976.67 810.658 1978.98 757.138 1973.33 706.585Z" stroke="#F3F0EF" stroke-width="3"/>
        <path d="M2072.38 740.043C2082.55 685.867 2082.47 640.107 2079.84 607.903C2078.53 591.802 2076.58 579.091 2074.97 570.414C2074.23 566.447 2073.56 563.324 2073.05 561.105C2072.9 561.423 2072.73 561.76 2072.56 562.117C2071.08 565.198 2068.94 569.723 2066.31 575.494C2061.05 587.037 2053.81 603.561 2045.94 623.476C2030.2 663.317 2011.92 716.687 2001.75 770.883C1991.58 825.065 1991.43 869.832 1993.81 901.036C1995.01 916.638 1996.83 928.849 1998.36 937.15C1999.05 940.905 1999.68 943.859 2000.16 945.966C2000.32 945.652 2000.49 945.317 2000.67 944.963C2002.18 941.992 2004.35 937.623 2007.03 932.04C2012.38 920.873 2019.73 904.85 2027.72 885.436C2043.7 846.598 2062.21 794.231 2072.38 740.043Z" stroke="#F3F0EF" stroke-width="3"/>
        <path d="M2175.97 788.478C2188.06 729.677 2186.37 680.917 2181.65 646.876C2179.3 629.855 2176.19 616.514 2173.67 607.44C2172.41 602.902 2171.3 599.432 2170.51 597.101C2170.49 597.033 2170.47 596.967 2170.44 596.901C2170.16 597.483 2169.85 598.142 2169.5 598.876C2167.9 602.253 2165.58 607.211 2162.72 613.53C2157 626.17 2149.12 644.252 2140.48 666.019C2123.21 709.56 2102.92 767.801 2090.81 826.672C2078.71 885.529 2077.08 933.886 2078.47 967.511C2079.16 984.323 2080.61 997.453 2081.89 1006.37C2082.5 1010.64 2083.07 1013.95 2083.5 1016.23C2083.82 1015.69 2084.18 1015.08 2084.57 1014.42C2086.54 1011.09 2089.38 1006.21 2092.86 999.976C2099.83 987.512 2109.37 969.662 2119.67 948.131C2140.27 905.054 2163.88 847.3 2175.97 788.478Z" stroke="#F3F0EF" stroke-width="3"/>
        <path d="M2368.62 903.511C2384.01 836.71 2384.8 781.922 2381.74 743.856C2380.21 724.823 2377.72 709.97 2375.62 699.887C2374.57 694.845 2373.61 690.996 2372.92 688.413C2372.91 688.375 2372.9 688.338 2372.89 688.301C2372.56 688.995 2372.19 689.786 2371.78 690.672C2369.97 694.554 2367.34 700.252 2364.09 707.509C2357.6 722.023 2348.61 742.772 2338.66 767.703C2318.77 817.573 2295.03 884.143 2279.62 951.006C2264.21 1017.86 2260.04 1072.35 2259.73 1110.12C2259.57 1129 2260.38 1143.7 2261.22 1153.67C2261.62 1158.38 2262.02 1162.03 2262.34 1164.57C2262.7 1163.94 2263.11 1163.23 2263.55 1162.45C2265.73 1158.6 2268.89 1152.96 2272.77 1145.77C2280.53 1131.39 2291.2 1110.81 2302.83 1086.06C2326.11 1036.53 2353.22 970.331 2368.62 903.511Z" stroke="#F3F0EF" stroke-width="3"/>
        <path d="M2782.01 1169.38C2793.3 1101.76 2790.74 1047.03 2785.36 1009.22C2782.67 990.315 2779.28 975.641 2776.57 965.705C2775.21 960.737 2774.02 956.953 2773.17 954.417C2773.16 954.38 2773.15 954.344 2773.14 954.308C2772.85 955.02 2772.53 955.832 2772.17 956.742C2770.6 960.728 2768.33 966.575 2765.53 974.017C2759.93 988.9 2752.23 1010.16 2743.82 1035.65C2727.01 1086.64 2707.37 1154.54 2696.07 1222.22C2684.78 1289.88 2683.95 1344.53 2685.94 1382.25C2686.93 1401.1 2688.63 1415.73 2690.08 1425.63C2690.77 1430.3 2691.4 1433.92 2691.87 1436.44C2692.19 1435.79 2692.55 1435.06 2692.95 1434.25C2694.89 1430.28 2697.69 1424.45 2701.13 1417.04C2708 1402.21 2717.39 1381.02 2727.49 1355.6C2747.7 1304.75 2770.72 1237.01 2782.01 1169.38Z" stroke="#F3F0EF" stroke-width="3"/>
        <path d="M2466 954.917C2476.75 878.691 2474.95 815.078 2470.46 770.535C2468.22 748.264 2465.31 730.761 2462.96 718.835C2461.78 712.872 2460.75 708.303 2460.01 705.229C2460 705.197 2460 705.166 2459.99 705.135C2459.79 705.652 2459.58 706.214 2459.35 706.819C2457.86 710.804 2455.71 716.671 2453.05 724.19C2447.74 739.227 2440.43 760.87 2432.45 787.283C2416.48 840.114 2397.83 912.002 2387.08 988.264C2376.34 1064.52 2375.52 1130.73 2377.38 1177.87C2378.32 1201.44 2379.92 1220.23 2381.3 1233.14C2381.97 1239.47 2382.59 1244.38 2383.04 1247.74C2383.25 1247.24 2383.47 1246.7 2383.71 1246.13C2385.49 1241.87 2388.06 1235.6 2391.2 1227.6C2397.5 1211.6 2406.12 1188.68 2415.41 1160.99C2434 1105.59 2455.26 1031.15 2466 954.917Z" stroke="#F3F0EF" stroke-width="3"/>
        <path d="M2678.48 1096.84C2689.22 1020.61 2687.42 956.999 2682.94 912.456C2680.7 890.184 2677.78 872.682 2675.43 860.755C2674.26 854.792 2673.22 850.223 2672.48 847.149C2672.48 847.118 2672.47 847.087 2672.46 847.056C2672.27 847.573 2672.06 848.135 2671.83 848.74C2670.34 852.725 2668.18 858.592 2665.52 866.11C2660.21 881.148 2652.9 902.791 2644.92 929.204C2628.96 982.035 2610.31 1053.92 2599.56 1130.18C2588.81 1206.44 2587.99 1272.65 2589.86 1319.79C2590.79 1343.36 2592.4 1362.15 2593.77 1375.06C2594.44 1381.39 2595.06 1386.3 2595.51 1389.66C2595.72 1389.16 2595.95 1388.62 2596.19 1388.05C2597.96 1383.79 2600.53 1377.52 2603.68 1369.52C2609.97 1353.52 2618.59 1330.6 2627.88 1302.91C2646.47 1247.51 2667.73 1173.07 2678.48 1096.84Z" stroke="#F3F0EF" stroke-width="3"/>
        <path d="M2584.87 1014.67C2600.16 933.208 2601.32 863.603 2598.66 814.374C2597.34 789.76 2595.05 770.243 2593.1 756.886C2592.13 750.208 2591.24 745.07 2590.59 741.606C2590.56 741.45 2590.53 741.297 2590.5 741.147C2590.26 741.745 2589.99 742.4 2589.7 743.112C2587.96 747.359 2585.44 753.611 2582.33 761.625C2576.1 777.652 2567.47 800.725 2557.89 828.895C2538.71 885.239 2515.72 961.953 2500.42 1043.46C2485.13 1124.96 2480.41 1195.85 2479.53 1246.34C2479.08 1271.59 2479.6 1291.75 2480.22 1305.58C2480.53 1312.5 2480.87 1317.83 2481.13 1321.44C2481.13 1321.47 2481.13 1321.5 2481.14 1321.53C2481.41 1320.96 2481.72 1320.35 2482.04 1319.68C2484.16 1315.3 2487.23 1308.85 2491.01 1300.61C2498.57 1284.12 2508.97 1260.43 2520.33 1231.65C2543.05 1174.07 2569.58 1096.15 2584.87 1014.67Z" stroke="#F3F0EF" stroke-width="3"/>
        <path d="M2315.24 1602.7C2264.35 1668.13 2212.99 1715.13 2174.36 1745.76C2155.05 1761.07 2138.92 1772.29 2127.62 1779.68C2121.97 1783.38 2117.54 1786.12 2114.51 1787.93C2114.33 1788.03 2114.16 1788.14 2113.99 1788.24C2114.41 1787.34 2114.89 1786.31 2115.44 1785.15C2117.72 1780.35 2121.08 1773.33 2125.44 1764.51C2134.15 1746.85 2146.82 1721.95 2162.68 1692.95C2194.41 1634.94 2238.85 1560.59 2289.75 1495.13C2340.64 1429.69 2388.35 1385.53 2423.32 1357.74C2440.81 1343.85 2455.11 1334.04 2465.03 1327.72C2469.98 1324.55 2473.85 1322.26 2476.47 1320.76C2476.57 1320.7 2476.68 1320.64 2476.78 1320.59C2476.42 1321.45 2476.01 1322.45 2475.54 1323.58C2473.66 1328.08 2470.87 1334.65 2467.2 1342.94C2459.86 1359.53 2449.01 1383.01 2434.98 1410.59C2406.91 1465.76 2366.12 1537.26 2315.24 1602.7Z" stroke="#F3F0EF" stroke-width="3"/>
        <path d="M2234.04 1481.8C2178.77 1533.05 2123.01 1571.38 2081.06 1596.89C2060.09 1609.65 2042.57 1619.2 2030.31 1625.57C2024.17 1628.75 2019.35 1631.13 2016.07 1632.71C2015.76 1632.86 2015.48 1633 2015.2 1633.13C2015.37 1632.83 2015.55 1632.51 2015.74 1632.18C2017.57 1628.93 2020.32 1624.17 2023.96 1618.14C2031.25 1606.06 2042.12 1588.9 2056.45 1568.52C2085.11 1527.77 2127.58 1474.21 2182.85 1422.96C2238.11 1371.72 2295.72 1332.47 2339.51 1306.04C2361.41 1292.82 2379.85 1282.81 2392.81 1276.11C2399.29 1272.76 2404.4 1270.23 2407.89 1268.54C2408.21 1268.39 2408.51 1268.24 2408.81 1268.1C2408.63 1268.4 2408.44 1268.71 2408.24 1269.04C2406.2 1272.39 2403.17 1277.29 2399.17 1283.5C2391.19 1295.92 2379.4 1313.55 2364.14 1334.39C2333.63 1376.06 2289.31 1430.55 2234.04 1481.8Z" stroke="#F3F0EF" stroke-width="3"/>
        <path d="M2468.88 1621.48C2438.63 1690.52 2402.78 1747.9 2374.49 1788.03C2360.34 1808.09 2348.09 1823.84 2339.37 1834.56C2335.02 1839.92 2331.55 1844.03 2329.17 1846.8C2328.95 1847.05 2328.74 1847.29 2328.54 1847.52C2328.57 1847.18 2328.61 1846.82 2328.65 1846.44C2329.04 1842.73 2329.66 1837.26 2330.59 1830.28C2332.46 1816.3 2335.59 1796.22 2340.6 1771.82C2350.64 1723.02 2368.23 1656.97 2398.48 1587.94C2428.72 1518.91 2465.9 1459.95 2495.52 1418.24C2510.33 1397.39 2523.25 1380.86 2532.47 1369.54C2537.07 1363.88 2540.75 1359.53 2543.28 1356.59C2543.51 1356.32 2543.73 1356.06 2543.94 1355.82C2543.9 1356.16 2543.85 1356.52 2543.8 1356.9C2543.26 1360.79 2542.44 1366.5 2541.25 1373.78C2538.88 1388.35 2535.1 1409.22 2529.41 1434.42C2518.05 1484.8 2499.13 1552.44 2468.88 1621.48Z" stroke="#F3F0EF" stroke-width="3"/>
        <path d="M2173.12 1367.84C2219.85 1317.69 2247.93 1270.63 2264.31 1236.14C2272.51 1218.89 2277.78 1204.78 2281 1195C2282.61 1190.1 2283.7 1186.29 2284.4 1183.71C2284.47 1183.44 2284.54 1183.18 2284.6 1182.93C2284.25 1183.11 2283.86 1183.32 2283.44 1183.54C2280.78 1184.93 2276.87 1187.05 2271.88 1189.89C2261.9 1195.59 2247.61 1204.24 2230.39 1216.02C2195.95 1239.59 2149.82 1275.71 2103.06 1325.89C2056.3 1376.08 2017.74 1430.85 1990.87 1473.08C1977.44 1494.19 1966.94 1512.16 1959.79 1524.86C1956.21 1531.2 1953.48 1536.23 1951.64 1539.66C1951.51 1539.91 1951.38 1540.15 1951.26 1540.37C1951.7 1540.12 1952.17 1539.84 1952.66 1539.55C1956.48 1537.31 1962.03 1534 1968.98 1529.72C1982.9 1521.14 2002.42 1508.66 2024.88 1493.04C2069.8 1461.79 2126.37 1418.01 2173.12 1367.84Z" stroke="#F3F0EF" stroke-width="3"/>
        <path d="M2719.58 1658.76C2736.65 1596.64 2738.95 1544.82 2736.98 1508.55C2736 1490.42 2733.96 1476.17 2732.16 1466.47C2731.26 1461.62 2730.42 1457.9 2729.81 1455.41C2729.74 1455.12 2729.68 1454.85 2729.61 1454.6C2729.39 1454.9 2729.15 1455.23 2728.89 1455.58C2727.24 1457.87 2724.83 1461.28 2721.83 1465.77C2715.83 1474.73 2707.46 1488 2698.03 1505.15C2679.16 1539.45 2656.02 1589.3 2638.94 1651.46C2621.85 1713.63 2614.06 1776.36 2610.54 1823.56C2608.79 1847.16 2608.09 1866.87 2607.84 1880.68C2607.72 1887.58 2607.7 1893 2607.72 1896.7C2607.72 1896.98 2607.72 1897.25 2607.72 1897.51C2607.98 1897.11 2608.26 1896.69 2608.55 1896.24C2610.81 1892.76 2614.09 1887.65 2618.12 1881.12C2626.19 1868.07 2637.31 1849.38 2649.5 1826.79C2673.88 1781.6 2702.51 1720.9 2719.58 1658.76Z" stroke="#F3F0EF" stroke-width="3"/>
        <path d="M2597.4 1616.63C2617.99 1551.24 2623.07 1496.68 2623 1458.49C2622.97 1439.4 2621.66 1424.4 2620.35 1414.18C2619.7 1409.07 2619.05 1405.16 2618.56 1402.53C2618.51 1402.25 2618.46 1401.98 2618.41 1401.73C2618.17 1402.05 2617.91 1402.4 2617.62 1402.78C2615.82 1405.19 2613.2 1408.78 2609.92 1413.5C2603.37 1422.94 2594.19 1436.89 2583.73 1454.94C2562.79 1491.04 2536.71 1543.5 2516.1 1608.93C2495.5 1674.36 2484.28 1740.39 2478.21 1790.07C2475.17 1814.91 2473.43 1835.66 2472.44 1850.19C2471.95 1857.45 2471.64 1863.17 2471.46 1867.06C2471.45 1867.34 2471.44 1867.61 2471.43 1867.86C2471.71 1867.45 2472.02 1867 2472.34 1866.52C2474.82 1862.86 2478.4 1857.48 2482.83 1850.62C2491.7 1836.89 2503.95 1817.21 2517.49 1793.45C2544.58 1745.9 2576.8 1682.03 2597.4 1616.63Z" stroke="#F3F0EF" stroke-width="3"/>
        <path d="M2256.97 904.45C2242.94 966.01 2220.68 1011.86 2201.95 1042.31C2192.59 1057.54 2184.1 1068.91 2177.97 1076.47C2174.9 1080.25 2172.42 1083.07 2170.71 1084.95C2170.67 1084.99 2170.63 1085.04 2170.59 1085.08C2170.59 1084.39 2170.58 1083.6 2170.58 1082.73C2170.56 1078.79 2170.57 1073.03 2170.66 1065.72C2170.85 1051.11 2171.4 1030.34 2172.83 1005.71C2175.68 956.447 2182.05 891.797 2196.1 830.169C2210.14 768.554 2229.21 721.615 2244.75 690.094C2252.53 674.333 2259.42 662.427 2264.36 654.469C2266.72 650.678 2268.63 647.782 2269.99 645.793C2270.05 646.456 2270.12 647.197 2270.19 648.014C2270.56 652.064 2271.05 657.99 2271.56 665.489C2272.57 680.488 2273.63 701.774 2273.81 726.915C2274.17 777.21 2271.01 842.868 2256.97 904.45Z" stroke="#F3F0EF" stroke-width="3"/>
        <path d="M2061.86 1314.59C2021.79 1359.29 1981.58 1386.93 1951.42 1403.39C1936.33 1411.62 1923.76 1417.06 1914.97 1420.43C1910.57 1422.12 1907.12 1423.29 1904.78 1424.04C1904.77 1424.04 1904.76 1424.04 1904.76 1424.05C1904.77 1424.01 1904.79 1423.98 1904.81 1423.95C1906.08 1421.74 1907.97 1418.47 1910.46 1414.21C1915.44 1405.68 1922.83 1393.21 1932.43 1377.42C1951.63 1345.83 1979.7 1300.97 2015.16 1247.87C2050.5 1194.97 2095.04 1158.8 2130.77 1135.84C2148.63 1124.37 2164.28 1116.21 2175.45 1110.91C2181.04 1108.27 2185.51 1106.34 2188.58 1105.07C2189.12 1104.85 2189.62 1104.65 2190.07 1104.46C2189.79 1105.12 2189.48 1105.88 2189.12 1106.73C2187.62 1110.29 2185.38 1115.47 2182.44 1121.98C2176.56 1134.99 2167.89 1153.28 2156.71 1174.37C2134.34 1216.55 2101.95 1269.88 2061.86 1314.59Z" stroke="#F3F0EF" stroke-width="3"/>
        <path d="M1995.48 1189.12C1958.73 1230.88 1912.58 1256.36 1875.57 1271.41C1857.07 1278.93 1840.88 1283.83 1829.31 1286.86C1823.53 1288.37 1818.9 1289.41 1815.73 1290.07C1815.23 1290.18 1814.76 1290.27 1814.34 1290.36C1814.62 1289.94 1814.94 1289.48 1815.28 1288.97C1817.21 1286.15 1820.06 1282.04 1823.74 1276.87C1831.1 1266.54 1841.8 1252.01 1855.11 1235.24C1881.74 1201.69 1918.82 1159.17 1960.67 1123.26C2002.51 1087.37 2041.2 1064.85 2069.42 1051.32C2083.53 1044.55 2095.01 1040.03 2102.97 1037.2C2106.63 1035.89 2109.55 1034.95 2111.62 1034.31C2111.61 1034.33 2111.6 1034.35 2111.59 1034.36C2110.24 1036.55 2108.22 1039.78 2105.56 1043.91C2100.25 1052.18 2092.4 1064.08 2082.24 1078.6C2061.93 1107.65 2032.38 1147.19 1995.48 1189.12Z" stroke="#F3F0EF" stroke-width="3"/>
        <path d="M1853.66 1035.56C1888.63 1005.02 1914.76 972.253 1932.14 947.111C1940.83 934.542 1947.33 923.886 1951.65 916.376C1953.81 912.622 1955.43 909.654 1956.51 907.629C1956.52 907.617 1956.52 907.606 1956.53 907.595C1954.51 908.203 1951.61 909.119 1947.95 910.387C1940.35 913.019 1929.48 917.168 1916.43 923.227C1890.31 935.347 1855.44 955.099 1820.48 985.624C1785.51 1016.16 1757.05 1051.7 1737.31 1079.64C1727.45 1093.6 1719.78 1105.65 1714.57 1114.21C1711.98 1118.46 1710.01 1121.85 1708.67 1124.18C1710.95 1123.27 1714.17 1121.95 1718.19 1120.21C1726.67 1116.53 1738.73 1110.99 1752.97 1103.54C1781.46 1088.63 1818.69 1066.1 1853.66 1035.56Z" stroke="#F3F0EF" stroke-width="3"/>
        <path d="M1727.09 913.967C1695.42 936.861 1661.2 952.935 1634.88 963.289C1621.73 968.464 1610.56 972.206 1602.68 974.652C1599.54 975.627 1596.93 976.396 1594.92 976.968C1594.93 976.956 1594.94 976.944 1594.95 976.932C1597.03 974.52 1600.07 971.021 1603.93 966.677C1611.64 957.99 1622.58 945.929 1635.51 932.432C1661.38 905.423 1695.14 872.728 1726.84 849.818C1758.51 826.926 1782.06 818.177 1797.61 815.119C1805.38 813.59 1811.17 813.482 1814.97 813.744C1816.56 813.854 1817.8 814.028 1818.7 814.191C1818.58 814.417 1818.44 814.664 1818.28 814.932C1817.37 816.537 1815.98 818.887 1814.12 821.854C1810.39 827.788 1804.76 836.186 1797.14 846.019C1781.91 865.688 1758.76 891.079 1727.09 913.967Z" stroke="#F3F0EF" stroke-width="3"/>
        <path d="M1796.06 959.279C1764.39 982.172 1730.17 998.247 1703.85 1008.6C1690.7 1013.78 1679.52 1017.52 1671.65 1019.96C1668 1021.1 1665.05 1021.95 1662.95 1022.54C1664.3 1020.49 1666.27 1017.54 1668.83 1013.86C1674.03 1006.4 1681.62 995.96 1691.2 984.089C1710.36 960.336 1737.43 930.895 1769.08 908.012C1800.72 885.141 1830.99 873.133 1853.33 866.844C1864.51 863.699 1873.7 861.985 1880.08 861.057C1883.17 860.608 1885.6 860.344 1887.28 860.19C1887.27 860.208 1887.26 860.225 1887.25 860.243C1886.33 861.848 1884.95 864.198 1883.09 867.165C1879.36 873.099 1873.73 881.498 1866.11 891.331C1850.88 911 1827.72 936.39 1796.06 959.279Z" stroke="#F3F0EF" stroke-width="3"/>
        <path d="M173.044 1637.1C138.91 1618.07 109.881 1593.85 89.374 1574.38C79.1241 1564.64 71.0117 1556.1 65.4645 1549.99C62.895 1547.16 60.8763 1544.86 59.4509 1543.2C61.8791 1543.55 65.3926 1544.1 69.8045 1544.86C78.7681 1546.42 91.4364 1548.89 106.242 1552.55C135.868 1559.88 173.988 1571.96 208.106 1590.98C242.206 1609.99 265.88 1632.35 281.023 1649.94C288.595 1658.74 294.032 1666.34 297.572 1671.74C299.283 1674.35 300.55 1676.44 301.401 1677.9C301.381 1677.9 301.361 1677.9 301.34 1677.89C299.498 1677.74 296.782 1677.48 293.306 1677.04C286.353 1676.17 276.36 1674.62 264.23 1671.87C239.966 1666.38 207.17 1656.12 173.044 1637.1Z" stroke="#F3F0EF" stroke-width="3"/>
        <path d="M1663.78 853.33C1688.14 831.869 1701.96 809.92 1709.69 793.363C1713.55 785.083 1715.89 778.15 1717.27 773.3C1717.89 771.08 1718.32 769.297 1718.6 768.021C1717.26 768.397 1715.35 768.963 1712.95 769.755C1707.87 771.431 1700.57 774.118 1691.74 778.15C1674.09 786.215 1650.32 799.657 1625.91 821.158C1601.5 842.668 1581.05 868.186 1566.69 888.35C1559.52 898.427 1553.88 907.156 1550.03 913.364C1548.43 915.944 1547.14 918.088 1546.18 919.711C1548.22 918.96 1551.01 917.906 1554.43 916.557C1562 913.564 1572.61 909.124 1584.75 903.337C1609.05 891.755 1639.39 874.812 1663.78 853.33Z" stroke="#F3F0EF" stroke-width="3"/>
        <path d="M1585.48 828.996C1567.3 847.44 1548.25 858.3 1533.74 864.547C1526.49 867.67 1520.38 869.639 1516.09 870.826C1514.5 871.266 1513.16 871.598 1512.11 871.842C1512.61 870.669 1513.3 869.123 1514.17 867.255C1516.29 862.696 1519.5 856.224 1523.85 848.592C1532.55 833.323 1545.81 813.44 1564.04 794.951C1582.26 776.461 1602.02 762.841 1617.23 753.842C1624.83 749.344 1631.29 746.004 1635.85 743.791C1637.38 743.045 1638.7 742.427 1639.78 741.936C1639.21 743.382 1638.45 745.262 1637.5 747.506C1635.13 753.094 1631.6 760.935 1626.93 769.935C1617.57 787.949 1603.67 810.537 1585.48 828.996Z" stroke="#F3F0EF" stroke-width="3"/>
        <path d="M1429.48 1492C1411.3 1510.44 1392.25 1521.3 1377.74 1527.55C1370.49 1530.67 1364.38 1532.64 1360.09 1533.83C1358.5 1534.27 1357.16 1534.6 1356.11 1534.84C1356.61 1533.67 1357.3 1532.12 1358.17 1530.26C1360.29 1525.7 1363.5 1519.22 1367.85 1511.59C1376.55 1496.32 1389.81 1476.44 1408.04 1457.95C1426.26 1439.46 1446.02 1425.84 1461.23 1416.84C1468.83 1412.34 1475.29 1409 1479.85 1406.79C1481.38 1406.05 1482.7 1405.43 1483.78 1404.94C1483.21 1406.38 1482.45 1408.26 1481.5 1410.51C1479.13 1416.09 1475.6 1423.94 1470.93 1432.94C1461.57 1450.95 1447.67 1473.54 1429.48 1492Z" stroke="#F3F0EF" stroke-width="3"/>
        <path d="M106.769 1660.16C81.2605 1664.62 59.4403 1662.4 44.0037 1659.06C36.286 1657.39 30.168 1655.45 25.9881 1653.92C24.4376 1653.36 23.1541 1652.85 22.155 1652.44C23.248 1651.78 24.7037 1650.91 26.495 1649.9C30.8683 1647.42 37.2398 1644.01 45.2142 1640.33C61.1686 1632.95 83.5095 1624.46 109.081 1619.99C134.654 1615.52 158.649 1615.91 176.26 1617.42C185.062 1618.17 192.261 1619.2 197.255 1620.05C198.938 1620.33 200.37 1620.59 201.528 1620.82C200.225 1621.66 198.515 1622.75 196.439 1624.03C191.27 1627.2 183.84 1631.54 174.808 1636.15C156.729 1645.38 132.299 1655.7 106.769 1660.16Z" stroke="#F3F0EF" stroke-width="3"/>
        <path d="M1900.37 1143.12C1862.54 1183.18 1824.66 1209.21 1796.25 1225.22C1782.04 1233.23 1770.21 1238.73 1761.94 1242.22C1757.93 1243.92 1754.76 1245.14 1752.56 1245.95C1752.76 1245.56 1752.99 1245.14 1753.23 1244.69C1754.85 1241.68 1757.26 1237.29 1760.38 1231.76C1766.62 1220.72 1775.74 1205.16 1787.23 1187.08C1810.2 1150.93 1842.64 1104.77 1880.5 1064.69C1918.36 1024.61 1954.49 998.176 1981.14 981.765C1994.46 973.56 2005.41 967.862 2013.03 964.218C2016.59 962.514 2019.42 961.259 2021.42 960.408C2021.23 960.799 2021.04 961.223 2020.82 961.678C2019.4 964.728 2017.27 969.179 2014.48 974.773C2008.9 985.961 2000.67 1001.72 1990.08 1019.98C1968.87 1056.52 1938.22 1103.06 1900.37 1143.12Z" stroke="#F3F0EF" stroke-width="3"/>
    </g>
</svg>
