<svg width="3531" height="3929" viewBox="0 0 3531 3929" fill="none" xmlns="http://www.w3.org/2000/svg">
    <path d="M1339.04 3195.44C1327.22 2436.83 2525.73 2658.95 2803.43 659.05" stroke="#F3F0EF" stroke-opacity="0.68" stroke-width="10"/>
    <path d="M1299.38 3168.67C1282.36 3175.21 1279.57 3187.12 1279.57 3187.12C1279.57 3187.12 1303.7 3188.03 1320.73 3181.5C1337.75 3174.96 1341.21 3163.46 1341.21 3163.46C1341.21 3163.46 1316.4 3162.14 1299.38 3168.67Z" fill="#F3F0EF" fill-opacity="0.68"/>
    <path d="M1291.72 3129.17C1269.57 3136.32 1264.72 3151.96 1264.72 3151.96C1264.72 3151.96 1295 3155.41 1317.15 3148.25C1339.3 3141.1 1344.94 3126.07 1344.94 3126.07C1344.94 3126.07 1313.87 3122.02 1291.72 3129.17Z" fill="#F3F0EF" fill-opacity="0.68"/>
    <path d="M1283.59 3115.19C1253.04 3117.23 1240.27 3100.97 1240.27 3100.97C1240.27 3100.97 1276.31 3082.49 1306.87 3080.45C1337.42 3078.41 1350.92 3093.59 1350.92 3093.59C1350.92 3093.59 1314.15 3113.16 1283.59 3115.19Z" fill="#F3F0EF" fill-opacity="0.68"/>
    <path d="M1282.2 3067.75C1241.57 3070.89 1216.42 3056.31 1216.42 3056.31C1216.42 3056.31 1264.6 3031.53 1305.23 3028.39C1345.86 3025.25 1363.57 3044.93 1363.57 3044.93C1363.57 3044.93 1322.84 3064.61 1282.2 3067.75Z" fill="#F3F0EF" fill-opacity="0.68"/>
    <path d="M67.9668 2806.7C31.7902 2825.46 2.94363 2821.87 2.94363 2821.87C2.94363 2821.87 37.6076 2780.23 73.7842 2761.47C109.961 2742.7 133.951 2753.9 133.951 2753.9C133.951 2753.9 104.143 2787.93 67.9668 2806.7Z" fill="#F3F0EF" fill-opacity="0.68"/>
    <path d="M1407.51 3100.36C1438.31 3127.05 1467.2 3130.29 1467.2 3130.29C1467.2 3130.29 1443.21 3081.71 1412.41 3055.02C1381.62 3028.32 1355.68 3033.62 1355.68 3033.62C1355.68 3033.62 1376.72 3073.66 1407.51 3100.36Z" fill="#F3F0EF" fill-opacity="0.68"/>
    <path d="M1368.36 3118.16C1346.78 3096.43 1350.68 3076.13 1350.68 3076.13C1350.68 3076.13 1388.27 3091.2 1409.86 3112.93C1431.44 3134.65 1428.84 3154.79 1428.84 3154.79C1428.84 3154.79 1389.95 3139.88 1368.36 3118.16Z" fill="#F3F0EF" fill-opacity="0.68"/>
    <path d="M1375.25 3164.35C1396.5 3173.86 1410.56 3165.48 1410.56 3165.48C1410.56 3165.48 1390.37 3142.66 1369.12 3133.15C1347.88 3123.64 1333.62 3131.04 1333.62 3131.04C1333.62 3131.04 1354 3154.84 1375.25 3164.35Z" fill="#F3F0EF" fill-opacity="0.68"/>
    <path d="M1374.63 3179.11C1388.5 3190.95 1387.15 3203.11 1387.15 3203.11C1387.15 3203.11 1364.1 3195.91 1350.23 3184.07C1336.37 3172.23 1336.94 3160.23 1336.94 3160.23C1336.94 3160.23 1360.77 3167.27 1374.63 3179.11Z" fill="#F3F0EF" fill-opacity="0.68"/>
    <path d="M1266.68 2960.73C1214.67 2965.81 1190.58 2997.8 1190.58 2997.8C1190.58 2997.8 1234.63 3011.15 1286.64 3006.07C1338.64 3000.98 1378.91 2979.39 1378.91 2979.39C1378.91 2979.39 1318.68 2955.65 1266.68 2960.73Z" fill="#F3F0EF" fill-opacity="0.68"/>
    <path d="M1299.22 2882.39C1234.06 2887.95 1181.73 2923.27 1181.73 2923.27C1181.73 2923.27 1270.88 2942.24 1336.04 2936.68C1401.2 2931.11 1417.69 2903.12 1417.69 2903.12C1417.69 2903.12 1364.38 2876.82 1299.22 2882.39Z" fill="#F3F0EF" fill-opacity="0.68"/>
    <path d="M1312.78 2791.66C1234.32 2793.9 1187.15 2831.77 1187.15 2831.77C1187.15 2831.77 1247.7 2851.87 1326.16 2849.62C1404.62 2847.38 1471.29 2823.64 1471.29 2823.64C1471.29 2823.64 1391.24 2789.41 1312.78 2791.66Z" fill="#F3F0EF" fill-opacity="0.68"/>
    <path d="M501.833 2324.11C423.371 2326.36 376.203 2364.22 376.203 2364.22C376.203 2364.22 436.752 2384.32 515.214 2382.07C593.675 2379.83 660.338 2356.09 660.338 2356.09C660.338 2356.09 580.294 2321.87 501.833 2324.11Z" fill="#F3F0EF" fill-opacity="0.68"/>
    <path d="M471.599 2372.55C397.222 2397.64 363.184 2447.63 363.184 2447.63C363.184 2447.63 426.964 2449.15 501.341 2424.07C575.718 2398.98 632.526 2356.78 632.526 2356.78C632.526 2356.78 545.976 2347.46 471.599 2372.55Z" fill="#F3F0EF" fill-opacity="0.68"/>
    <path d="M1371.9 2714.31C1285.41 2716.17 1229.23 2747.7 1229.23 2747.7C1229.23 2747.7 1361.21 2774.32 1447.7 2772.45C1534.2 2770.59 1542.45 2740.94 1542.45 2740.94C1542.45 2740.94 1458.39 2712.44 1371.9 2714.31Z" fill="#F3F0EF" fill-opacity="0.68"/>
    <path d="M1418.95 2617.65C1317.33 2608.54 1259.34 2636.53 1259.34 2636.53C1259.34 2636.53 1359.37 2678.03 1460.98 2687.14C1562.6 2696.25 1627.32 2669.52 1627.32 2669.52C1627.32 2669.52 1520.56 2626.76 1418.95 2617.65Z" fill="#F3F0EF" fill-opacity="0.68"/>
    <path d="M1471.91 2527.36C1369.5 2485.71 1291.94 2491.09 1291.94 2491.09C1291.94 2491.09 1384.51 2563.85 1486.92 2605.5C1589.32 2647.15 1662.79 2641.91 1662.79 2641.91C1662.79 2641.91 1574.31 2569.01 1471.91 2527.36Z" fill="#F3F0EF" fill-opacity="0.68"/>
    <path d="M1540.05 2435.51C1429.27 2388.22 1346.89 2403.15 1346.89 2403.15C1346.89 2403.15 1448.54 2482.05 1559.32 2529.34C1670.09 2576.64 1748.04 2574.42 1748.04 2574.42C1748.04 2574.42 1650.82 2482.81 1540.05 2435.51Z" fill="#F3F0EF" fill-opacity="0.68"/>
    <path d="M1691.21 2269.69C1566.12 2212.74 1476.48 2222.77 1476.48 2222.77C1476.48 2222.77 1593.67 2312.15 1718.76 2369.1C1843.86 2426.05 1929.47 2429.01 1929.47 2429.01C1929.47 2429.01 1816.3 2326.64 1691.21 2269.69Z" fill="#F3F0EF" fill-opacity="0.68"/>
    <path d="M2034.07 1917.56C1905.74 1868.36 1816.88 1883.85 1816.88 1883.85C1816.88 1883.85 1939.31 1965.9 2067.64 2015.11C2195.98 2064.32 2281.62 2062.04 2281.62 2062.04C2281.62 2062.04 2162.41 1966.77 2034.07 1917.56Z" fill="#F3F0EF" fill-opacity="0.68"/>
    <path d="M1760.88 2184.46C1615.51 2132.91 1509.62 2140.7 1509.62 2140.7C1509.62 2140.7 1631.45 2219.72 1776.82 2271.27C1922.19 2322.81 2036.04 2327.35 2036.04 2327.35C2036.04 2327.35 1906.25 2236 1760.88 2184.46Z" fill="#F3F0EF" fill-opacity="0.68"/>
    <path d="M1940.62 2003.48C1795.25 1951.94 1689.36 1959.72 1689.36 1959.72C1689.36 1959.72 1811.19 2038.75 1956.56 2090.29C2101.92 2141.84 2215.78 2146.38 2215.78 2146.38C2215.78 2146.38 2085.98 2055.02 1940.62 2003.48Z" fill="#F3F0EF" fill-opacity="0.68"/>
    <path d="M1841.5 2078.85C1687.68 2016.3 1569.12 2018.68 1569.12 2018.68C1569.12 2018.68 1697.93 2107.57 1851.75 2170.12C2005.57 2232.68 2126.15 2245.21 2126.15 2245.21C2126.15 2245.21 1995.32 2141.41 1841.5 2078.85Z" fill="#F3F0EF" fill-opacity="0.68"/>
    <path d="M2368.79 2463.37C2476.92 2589.39 2512.28 2702.58 2512.28 2702.58C2512.28 2702.58 2364.15 2594.87 2256.02 2468.85C2147.89 2342.83 2120.71 2246.21 2120.71 2246.21C2120.71 2246.21 2260.66 2337.35 2368.79 2463.37Z" fill="#F3F0EF" fill-opacity="0.68"/>
    <path d="M2234.26 2519.03C2312.8 2648 2340.2 2768.56 2340.2 2768.56C2340.2 2768.56 2242.38 2687.99 2163.84 2559.03C2085.3 2430.06 2055.79 2301.53 2055.79 2301.53C2055.79 2301.53 2155.73 2390.07 2234.26 2519.03Z" fill="#F3F0EF" fill-opacity="0.68"/>
    <path d="M2416.69 2315.77C2540.14 2402.73 2613.34 2502.36 2613.34 2502.36C2613.34 2502.36 2491.51 2467.49 2368.06 2380.53C2244.61 2293.58 2166.3 2187.48 2166.3 2187.48C2166.3 2187.48 2293.25 2228.82 2416.69 2315.77Z" fill="#F3F0EF" fill-opacity="0.68"/>
    <path d="M2107.84 2554.32C2027.98 2442.46 1945.34 2406.33 1945.34 2406.33C1945.34 2406.33 1970.47 2504.49 2050.33 2616.36C2130.18 2728.22 2234.52 2811.43 2234.52 2811.43C2234.52 2811.43 2187.7 2666.19 2107.84 2554.32Z" fill="#F3F0EF" fill-opacity="0.68"/>
    <path d="M2501.33 2076.37C2386.07 2017.98 2299.41 2025.87 2299.41 2025.87C2299.41 2025.87 2361.48 2098.23 2476.74 2156.62C2592 2215 2716.8 2237.3 2716.8 2237.3C2716.8 2237.3 2616.59 2134.76 2501.33 2076.37Z" fill="#F3F0EF" fill-opacity="0.68"/>
    <path d="M2435.72 2187.73C2315.49 2121.14 2225.34 2124.11 2225.34 2124.11C2225.34 2124.11 2290.28 2201.89 2410.52 2268.47C2530.76 2335.06 2660.75 2365.25 2660.75 2365.25C2660.75 2365.25 2555.96 2254.32 2435.72 2187.73Z" fill="#F3F0EF" fill-opacity="0.68"/>
    <path d="M1669.87 2379.28C1785.26 2431.48 1832.39 2503.47 1832.39 2503.47C1832.39 2503.47 1699.1 2479.06 1583.71 2426.86C1468.32 2374.65 1414.53 2314.43 1414.53 2314.43C1414.53 2314.43 1554.48 2327.08 1669.87 2379.28Z" fill="#F3F0EF" fill-opacity="0.68"/>
    <path d="M2033.47 2652.71C2105.32 2749.38 2110.03 2832.98 2110.03 2832.98C2110.03 2832.98 2046.47 2777.84 1956.51 2687.12C1866.55 2596.41 1849.85 2482.89 1849.85 2482.89C1849.85 2482.89 1961.62 2556.04 2033.47 2652.71Z" fill="#F3F0EF" fill-opacity="0.68"/>
    <path d="M1898.97 2693.8C1966.52 2782.95 1962.31 2895.99 1962.31 2895.99C1962.31 2895.99 1878.8 2812.98 1824.98 2716.41C1771.17 2619.85 1767.41 2546.29 1767.41 2546.29C1767.41 2546.29 1831.41 2604.64 1898.97 2693.8Z" fill="#F3F0EF" fill-opacity="0.68"/>
    <path d="M1714.84 2797.05C1668.79 2716.06 1606.88 2668.13 1606.88 2668.13C1606.88 2668.13 1610.63 2740.11 1656.68 2821.09C1702.74 2902.08 1773.66 2961.41 1773.66 2961.41C1773.66 2961.41 1760.89 2878.04 1714.84 2797.05Z" fill="#F3F0EF" fill-opacity="0.68"/>
    <path d="M1574.3 2901.16C1606.68 2972.67 1610.14 3048.63 1610.14 3048.63C1610.14 3048.63 1541.04 2961.37 1508.66 2889.86C1476.28 2818.36 1492.89 2789.69 1492.89 2789.69C1492.89 2789.69 1541.93 2829.66 1574.3 2901.16Z" fill="#F3F0EF" fill-opacity="0.68"/>
    <path d="M1632.46 2842.61C1664.83 2914.12 1668.29 2990.08 1668.29 2990.08C1668.29 2990.08 1606.49 2931.57 1574.11 2860.06C1541.73 2788.56 1551.04 2731.14 1551.04 2731.14C1551.04 2731.14 1600.08 2771.11 1632.46 2842.61Z" fill="#F3F0EF" fill-opacity="0.68"/>
    <path d="M1502.19 2950.99C1469.61 2894.29 1426.59 2878.71 1426.59 2878.71C1426.59 2878.71 1427.94 2926.47 1460.52 2983.17C1493.09 3039.88 1544.57 3084.05 1544.57 3084.05C1544.57 3084.05 1534.77 3007.69 1502.19 2950.99Z" fill="#F3F0EF" fill-opacity="0.68"/>
    <path d="M1461.68 3022.72C1490.84 3066.08 1489.31 3106.83 1489.31 3106.83C1489.31 3106.83 1450.71 3081.98 1421.56 3038.62C1392.4 2995.26 1383.72 2949.81 1383.72 2949.81C1383.72 2949.81 1432.53 2979.36 1461.68 3022.72Z" fill="#F3F0EF" fill-opacity="0.68"/>
    <path d="M1833.27 2776.8C1896.89 2867.22 1905.33 2946.6 1905.33 2946.6C1905.33 2946.6 1813.61 2872.77 1749.99 2782.36C1686.37 2691.95 1674.95 2619.19 1674.95 2619.19C1674.95 2619.19 1769.65 2686.39 1833.27 2776.8Z" fill="#F3F0EF" fill-opacity="0.68"/>
</svg>
