<svg width="872" height="766" viewBox="0 0 872 766" fill="none" xmlns="http://www.w3.org/2000/svg">
    <path opacity="0.83" d="M520.893 392.425C499.406 579.227 604.342 678.805 604.342 678.805C604.342 678.805 607.249 420.863 584.314 267.753C561.379 114.643 513.297 71 513.297 71C513.297 71 542.381 205.623 520.893 392.425Z" fill="#F3F0EF"/>
    <path d="M640.994 425.401C656.46 585.318 565.889 668.835 565.889 668.835C565.889 668.835 567.255 448.414 589.003 317.943C610.751 187.471 652.222 150.899 652.222 150.899C652.222 150.899 625.528 265.484 640.994 425.401Z" fill="#F3F0EF"/>
    <path opacity="0.83" d="M236.893 478.425C215.406 665.227 320.342 764.805 320.342 764.805C320.342 764.805 323.249 506.863 300.314 353.753C277.379 200.643 229.297 157 229.297 157C229.297 157 258.381 291.623 236.893 478.425Z" fill="#F3F0EF"/>
    <path d="M356.994 511.401C372.46 671.318 281.889 754.835 281.889 754.835C281.889 754.835 283.255 534.414 305.003 403.943C326.751 273.471 368.222 236.899 368.222 236.899C368.222 236.899 341.528 351.484 356.994 511.401Z" fill="#F3F0EF"/>
    <path opacity="0.83" d="M230.707 514.919C346.312 663.217 490.954 660.69 490.954 660.69C490.954 660.69 312.233 474.675 188.558 381.545C64.884 288.414 -0.000792381 290.987 -0.000792381 290.987C-0.000792381 290.987 115.102 366.622 230.707 514.919Z" fill="#F3F0EF"/>
    <path d="M339.485 454.259C462.604 557.479 456.542 680.53 456.542 680.53C456.542 680.53 303.021 522.356 227.084 414.054C151.148 305.753 155.092 250.6 155.092 250.6C155.092 250.6 216.367 351.038 339.485 454.259Z" fill="#F3F0EF"/>
    <path opacity="0.83" d="M640.375 517.919C524.77 666.217 380.128 663.69 380.128 663.69C380.128 663.69 558.849 477.675 682.524 384.545C806.198 291.414 871.083 293.987 871.083 293.987C871.083 293.987 755.98 369.622 640.375 517.919Z" fill="#F3F0EF"/>
    <path d="M531.597 457.259C408.478 560.479 414.54 683.53 414.54 683.53C414.54 683.53 568.061 525.356 643.998 417.054C719.934 308.753 715.99 253.6 715.99 253.6C715.99 253.6 654.715 354.038 531.597 457.259Z" fill="#F3F0EF"/>
    <path opacity="0.83" d="M489.162 311.067C561.307 484.71 487.884 609.355 487.884 609.355C487.884 609.355 413.991 362.206 393.834 208.706C373.678 55.2059 407.868 -5.22005e-05 407.868 -5.22005e-05C407.868 -5.22005e-05 417.018 137.425 489.162 311.067Z" fill="#F3F0EF"/>
    <path d="M382.802 375.871C412.014 533.856 522.097 589.173 522.097 589.173C522.097 589.173 460.027 377.667 403.159 258.245C346.291 138.822 296.346 115.097 296.346 115.097C296.346 115.097 353.59 217.886 382.802 375.871Z" fill="#F3F0EF"/>
</svg>
