<svg width="916" height="1383" viewBox="0 0 916 1383" fill="none" xmlns="http://www.w3.org/2000/svg">
    <path fill-rule="evenodd" clip-rule="evenodd" d="M370.396 261.209C366.469 257.817 363.373 253.359 361.607 248.08C356.367 232.42 364.815 215.477 380.475 210.238C396.135 204.998 413.078 213.445 418.318 229.105C420.084 234.383 420.295 239.807 419.199 244.879C420.431 244.267 421.721 243.732 423.063 243.283C438.723 238.043 455.666 246.49 460.906 262.15C464.009 271.427 462.311 281.153 457.155 288.63C465.771 291.5 472.979 298.245 476.083 307.52C481.323 323.18 472.875 340.123 457.215 345.363C457.17 345.378 457.125 345.393 457.08 345.407C457.485 346.309 457.849 347.239 458.169 348.196C463.265 363.427 455.415 379.871 440.574 385.582C451.152 443.911 462.744 491.061 475.285 530.011C475.461 526.069 475.921 522.042 476.746 517.993C483.128 486.694 508.929 465.885 508.929 465.885C508.929 465.885 525.721 496.118 519.34 527.417C514.784 549.761 499.648 566.609 491.361 574.419C500.067 595.771 509.166 614.146 518.643 630.377C547.074 679.071 578.992 708.68 614.665 741.773C618.467 745.3 622.311 748.866 626.198 752.499C666.602 790.261 711.127 834.828 759.111 916.419C807.043 997.921 858.347 1116.22 912.618 1301.43L903.981 1303.96C849.837 1119.19 798.788 1001.64 751.353 920.982C703.971 840.414 660.116 796.518 620.053 759.074C616.173 755.448 612.324 751.879 608.507 748.339L608.504 748.336L608.5 748.333C572.864 715.285 540.004 684.812 510.871 634.915C494.572 607 479.469 573.072 465.599 529.261C454.499 531.387 431.786 533.838 410.872 524.317C381.8 511.083 367.212 479.728 367.212 479.728C367.212 479.728 399.212 471.085 428.284 484.319C441.618 490.389 452.02 500.007 459.375 508.641C449.511 474.366 440.308 434.498 431.78 387.527C418.545 388.408 405.864 380.339 401.458 367.171C401.138 366.214 400.869 365.252 400.65 364.289C400.602 364.305 400.555 364.321 400.508 364.337C384.848 369.576 367.905 361.129 362.665 345.469C359.562 336.194 361.259 326.469 366.413 318.992C357.796 316.123 350.586 309.377 347.482 300.101C342.242 284.441 350.69 267.498 366.35 262.258C367.692 261.809 369.043 261.461 370.396 261.209ZM420.184 329.376L420.184 329.376L420.297 329.338C420.259 329.351 420.222 329.363 420.184 329.376ZM420.352 329.32L420.461 329.284L420.461 329.283C420.424 329.296 420.388 329.308 420.352 329.32Z" fill="#F3F0EF" fill-opacity="0.73"/>
    <path fill-rule="evenodd" clip-rule="evenodd" d="M490.535 59.8992C492.111 54.9552 492.421 49.5362 491.169 44.1131C487.454 28.0228 471.399 17.9904 455.309 21.7052C439.218 25.4199 429.186 41.4751 432.901 57.5654C434.153 62.9884 436.807 67.7233 440.391 71.4757C439.02 71.597 437.642 71.8144 436.263 72.1327C420.172 75.8475 410.14 91.9026 413.855 107.993C416.055 117.524 422.585 124.929 430.888 128.611C425.041 135.56 422.419 145.077 424.619 154.607C428.334 170.697 444.389 180.73 460.48 177.015C460.526 177.004 460.572 176.993 460.618 176.983C460.744 177.963 460.92 178.946 461.147 179.929C464.76 195.578 480.045 205.497 495.683 202.612C517.14 257.874 531.893 304.132 541.55 343.895C539.341 340.625 536.845 337.433 534.025 334.411C512.231 311.059 479.359 306.798 479.359 306.798C479.359 306.798 480.838 341.349 502.632 364.701C518.192 381.373 539.9 387.829 551.047 390.159C554.781 412.913 556.623 433.335 557.023 452.126C558.224 508.499 546.481 550.422 533.355 597.278C531.956 602.271 530.542 607.32 529.126 612.449C514.406 665.758 499.729 727.021 501.447 821.661C503.163 916.197 521.232 1043.87 571.73 1230.15L580.417 1227.79C530.037 1041.95 512.144 915.052 510.446 821.497C508.749 728.045 523.206 667.703 537.801 614.845C539.215 609.726 540.632 604.671 542.037 599.658L542.038 599.654L542.039 599.65C555.156 552.852 567.252 509.701 566.021 451.934C565.332 419.617 560.482 382.797 549.418 338.195C559.993 334.207 580.639 324.43 593.497 305.385C611.37 278.911 607.425 244.553 607.425 244.553C607.425 244.553 575.625 253.904 557.752 280.378C549.554 292.521 545.71 306.157 543.951 317.361C534.453 282.983 521.469 244.181 504.198 199.676C515.942 193.512 522.538 180.007 519.415 166.477C519.188 165.494 518.915 164.533 518.598 163.597C518.647 163.586 518.696 163.575 518.744 163.563C534.835 159.849 544.867 143.793 541.152 127.703C538.952 118.173 532.423 110.769 524.122 107.086C529.971 100.137 532.594 90.6189 530.393 81.0879C526.678 64.9976 510.623 54.9652 494.533 58.68C493.154 58.9983 491.82 59.4073 490.535 59.8992ZM483.7 144.035L483.701 144.036L483.585 144.062C483.623 144.053 483.662 144.044 483.7 144.035ZM483.528 144.075L483.416 144.102L483.416 144.101C483.454 144.092 483.491 144.084 483.528 144.075Z" fill="#F3F0EF" fill-opacity="0.94"/>
    <path fill-rule="evenodd" clip-rule="evenodd" d="M717.539 246.609C721.996 243.951 725.819 240.097 728.474 235.206C736.354 220.694 730.977 202.541 716.465 194.662C701.952 186.782 683.8 192.159 675.92 206.671C673.265 211.563 672.115 216.867 672.313 222.053C671.206 221.235 670.029 220.485 668.786 219.809C654.273 211.93 636.121 217.307 628.241 231.819C623.574 240.415 623.558 250.289 627.337 258.548C618.353 259.878 610.083 265.269 605.416 273.864C597.537 288.376 602.914 306.529 617.426 314.408C617.468 314.431 617.509 314.453 617.551 314.476C616.996 315.293 616.476 316.146 615.994 317.033C608.331 331.147 613.207 348.705 626.831 356.906C606.284 412.512 586.681 456.933 567.566 493.113C568.078 489.201 568.324 485.155 568.215 481.024C567.365 449.093 545.569 424.12 545.569 424.12C545.569 424.12 523.782 450.977 524.632 482.908C525.238 505.705 537.219 524.925 544.023 534.055C531.743 553.571 519.59 570.087 507.439 584.426C470.985 627.443 434.41 651.06 393.532 677.455C389.176 680.268 384.771 683.113 380.311 686.016C333.964 716.188 282.377 752.346 220.954 824.365C159.597 896.306 88.5299 1003.9 2.92177 1176.87L10.988 1180.87C96.3952 1008.3 167.082 901.399 227.802 830.205C288.454 759.09 339.266 723.476 385.222 693.558C389.672 690.661 394.083 687.814 398.457 684.99L398.46 684.988L398.464 684.986C439.298 658.628 476.95 634.325 514.305 590.245C535.204 565.584 555.969 534.794 577.236 494.057C587.799 498.078 609.74 504.435 631.989 498.691C662.918 490.707 682.729 462.361 682.729 462.361C682.729 462.361 652.716 448.293 621.788 456.278C607.602 459.94 595.688 467.605 586.946 474.831C602.612 442.789 618.598 405.125 635.153 360.349C648.034 363.514 661.923 357.771 668.549 345.568C669.03 344.681 669.462 343.78 669.846 342.869C669.889 342.893 669.933 342.917 669.977 342.941C684.489 350.821 702.642 345.444 710.521 330.931C715.188 322.336 715.205 312.464 711.428 304.206C720.412 302.877 728.684 297.486 733.351 288.889C741.231 274.377 735.854 256.225 721.342 248.345C720.098 247.67 718.828 247.092 717.539 246.609ZM656.67 305.094L656.67 305.095L656.566 305.038C656.601 305.057 656.636 305.076 656.67 305.094ZM656.515 305.01L656.414 304.956L656.414 304.955C656.448 304.974 656.481 304.992 656.515 305.01Z" fill="#F3F0EF" fill-opacity="0.79"/>
</svg>
