<svg width="1701" height="1806" viewBox="0 0 1701 1806" fill="none" xmlns="http://www.w3.org/2000/svg">
    <path d="M1241.14 1419.74C1198.69 1249.43 736.446 1030.61 728.467 678.22C721.344 363.642 558.197 173.34 558.197 173.34" stroke="#F3F0EF" stroke-width="3"/>
    <path d="M1231.21 1461.87C1224.5 1414.68 1200.47 1343.75 1200.47 1343.75C1200.47 1343.75 1199.23 1397.39 1188.9 1446.7C1178.57 1496.01 1234.2 1588.33 1234.2 1588.33C1234.2 1588.33 1238.16 1510.78 1231.21 1461.87Z" stroke="#F3F0EF" stroke-width="3"/>
    <path d="M1167.9 1436.13C1152.66 1377.87 1145.16 1282.7 1145.16 1282.7C1145.16 1282.7 1136.99 1349.33 1118.3 1408.75C1099.61 1468.17 1155.85 1594.41 1155.85 1594.41C1155.85 1594.41 1187.68 1511.74 1167.9 1436.13Z" stroke="#F3F0EF" stroke-width="3"/>
    <path d="M1273.82 1308.93C1218.66 1284.76 1125.84 1262.47 1125.84 1262.47C1125.84 1262.47 1192.92 1264.82 1254.53 1255.65C1316.14 1246.49 1432.04 1321.78 1432.04 1321.78C1432.04 1321.78 1345.4 1340.29 1273.82 1308.93Z" stroke="#F3F0EF" stroke-width="3"/>
    <path d="M1266.79 1232.41C1191.46 1231.29 1083.63 1222.99 1083.63 1222.99C1083.63 1222.99 1161.37 1195.67 1238.18 1175.25C1314.99 1154.83 1460.54 1200.5 1460.54 1200.5C1460.54 1200.5 1360.64 1233.8 1266.79 1232.41Z" stroke="#F3F0EF" stroke-width="3"/>
    <path d="M1193.75 1152.01C1106.88 1150.28 980.678 1121.97 980.678 1121.97C980.678 1121.97 1071.27 1092.39 1165.8 1066.28C1260.32 1040.17 1423.1 1094.31 1423.1 1094.31C1423.1 1094.31 1301.99 1154.16 1193.75 1152.01Z" stroke="#F3F0EF" stroke-width="3"/>
    <path d="M932.658 795.001C916.613 880.396 867.87 1000.19 867.87 1000.19C867.87 1000.19 853.647 905.955 843.494 808.42C833.341 710.884 913.608 559.272 913.608 559.272C913.608 559.272 952.65 688.603 932.658 795.001Z" stroke="#F3F0EF" stroke-width="3"/>
    <path d="M1165.43 1047.89C1075.35 1069.52 936.431 1075.18 936.431 1075.18C936.431 1075.18 1003.96 1031.35 1093.2 979.862C1182.45 928.377 1383.75 928.622 1383.75 928.622C1383.75 928.622 1277.66 1020.95 1165.43 1047.89Z" stroke="#F3F0EF" stroke-width="3"/>
    <path d="M1043.43 852.433C986.398 925.431 881.202 1016.35 881.202 1016.35C881.202 1016.35 906.76 940.003 944.553 844.154C982.347 748.305 1140.04 623.184 1140.04 623.184C1140.04 623.184 1114.49 761.481 1043.43 852.433Z" stroke="#F3F0EF" stroke-width="3"/>
    <path d="M1132 942.757C1041.22 989.927 894.148 1032.59 894.148 1032.59C894.148 1032.59 984.261 961.8 1066.55 882.402C1148.84 803.004 1335.01 755.783 1335.01 755.783C1335.01 755.783 1245.11 883.986 1132 942.757Z" stroke="#F3F0EF" stroke-width="3"/>
    <path d="M1020.16 1360.25C1025.35 1277.94 1009.48 1154.52 1009.48 1154.52C1009.48 1154.52 970.084 1241.37 939.015 1326.73C907.947 1412.1 949.915 1568.24 949.915 1568.24C949.915 1568.24 1013.69 1462.8 1020.16 1360.25Z" stroke="#F3F0EF" stroke-width="3"/>
    <path d="M684.28 1104.52C762.073 1077.14 869.484 1014.31 869.484 1014.31C869.484 1014.31 774.149 1011.97 683.428 1016.73C592.707 1021.49 465.381 1121.13 465.381 1121.13C465.381 1121.13 587.354 1138.63 684.28 1104.52Z" stroke="#F3F0EF" stroke-width="3"/>
    <path d="M941.004 1266.65C958.306 1186.02 952.813 1101.47 952.813 1101.47C952.813 1101.47 901.01 1181.54 857.664 1261.38C814.319 1341.22 832.747 1501.84 832.747 1501.84C832.747 1501.84 919.446 1367.12 941.004 1266.65Z" stroke="#F3F0EF" stroke-width="3"/>
    <path d="M859.492 1210.4C893.932 1134.5 904.156 1052.19 904.156 1052.19C904.156 1052.19 847.342 1131.52 784.53 1203.63C721.718 1275.73 695.742 1425.05 695.742 1425.05C695.742 1425.05 816.581 1304.96 859.492 1210.4Z" stroke="#F3F0EF" stroke-width="3"/>
    <path d="M695.016 987.382C765.905 988.2 843.909 976.399 843.909 976.399C843.909 976.399 765.573 917.045 691.449 911.506C617.326 905.967 462.787 925.818 462.787 925.818C462.787 925.818 606.692 986.363 695.016 987.382Z" stroke="#F3F0EF" stroke-width="3"/>
    <path d="M774.677 1170.71C833.515 1111.69 888.392 1025.52 888.392 1025.52C888.392 1025.52 774.252 1102.76 713.235 1128.62C652.218 1154.47 562.598 1301.78 562.598 1301.78C562.598 1301.78 701.369 1244.26 774.677 1170.71Z" stroke="#F3F0EF" stroke-width="3"/>
    <path d="M1094.98 1380.19C1082.09 1305.97 1057.03 1200.76 1057.03 1200.76C1057.03 1200.76 1042.2 1281.81 1034.05 1360.87C1025.9 1439.93 1093.78 1576.55 1093.78 1576.55C1093.78 1576.55 1111.04 1472.67 1094.98 1380.19Z" stroke="#F3F0EF" stroke-width="3"/>
    <path d="M1294.72 1385.6C1250.55 1367.68 1187.54 1327.2 1187.54 1327.2C1187.54 1327.2 1239.89 1338.97 1290.23 1340.88C1340.58 1342.79 1416.7 1419.1 1416.7 1419.1C1416.7 1419.1 1340.49 1404.18 1294.72 1385.6Z" stroke="#F3F0EF" stroke-width="3"/>
</svg>
