<svg width="3482" height="2253" viewBox="0 0 3482 2253" fill="none" xmlns="http://www.w3.org/2000/svg">
    <path d="M53.6532 981.114C911.188 1238.11 1011.26 -221.731 3362.72 97.9383" stroke="#F3F0EF" stroke-opacity="0.93" stroke-width="3"/>
    <path d="M75.5182 1016.5C64.3497 1026.51 50.1454 1025.12 50.1454 1025.12C50.1454 1025.12 54.3622 1008.07 65.5307 998.061C76.6986 988.05 90.5894 988.866 90.5894 988.866C90.5894 988.866 86.6861 1006.49 75.5182 1016.5Z" fill="#F3F0EF" fill-opacity="0.93"/>
    <path d="M156.642 1047.16C156.568 1070.41 172.473 1089.2 172.473 1089.2C172.473 1089.2 187.525 1070.3 187.6 1047.05C187.674 1023.81 172.742 1005.02 172.742 1005.02C172.742 1005.02 156.717 1023.92 156.642 1047.16Z" fill="#F3F0EF" fill-opacity="0.93"/>
    <path d="M149.972 986.934C167.388 1007.16 191.487 1007.9 191.487 1007.9C191.487 1007.9 186.743 976.809 169.327 956.587C151.912 936.364 128.42 934.667 128.42 934.667C128.42 934.667 132.556 966.711 149.972 986.934Z" fill="#F3F0EF" fill-opacity="0.93"/>
    <path d="M82.6483 955.78C73.2824 941.352 59.0882 939.588 59.0882 939.588C59.0882 939.588 60.4813 960.611 69.8473 975.04C79.2138 989.468 93.0055 991.838 93.0055 991.838C93.0055 991.838 92.0143 970.209 82.6483 955.78Z" fill="#F3F0EF" fill-opacity="0.93"/>
    <path d="M299.474 1064.1C278.723 1088.38 235.434 1095.12 235.434 1095.12C235.434 1095.12 232.945 1071.88 253.695 1047.61C274.445 1023.34 310.577 1007.23 310.577 1007.23C310.577 1007.23 320.224 1039.83 299.474 1064.1Z" fill="#F3F0EF" fill-opacity="0.93"/>
    <path d="M471.849 1031.68C457.616 1068.86 411.674 1105.67 411.674 1105.67C411.674 1105.67 401.413 1060.79 415.646 1023.61C429.879 986.429 463.216 971.026 463.216 971.026C463.216 971.026 486.082 994.496 471.849 1031.68Z" fill="#F3F0EF" fill-opacity="0.93"/>
    <path d="M599.249 974.095C591.896 1012.11 557.056 1053.77 557.056 1053.77C557.056 1053.77 539.039 1012.25 546.389 974.235C553.74 936.219 583.675 916.098 583.675 916.098C583.675 916.098 606.595 936.079 599.249 974.095Z" fill="#F3F0EF" fill-opacity="0.93"/>
    <path opacity="0.7" d="M862.167 1899.81C845.225 1934.63 800.791 1965.85 800.791 1965.85C800.791 1965.85 794.133 1921.09 811.072 1886.27C828.012 1851.45 862.134 1839.76 862.134 1839.76C862.134 1839.76 879.102 1865 862.167 1899.81Z" fill="#F3F0EF" fill-opacity="0.93"/>
    <path opacity="0.3" d="M1152.77 2105.81C1183.72 2129.08 1205.88 2178.66 1205.88 2178.66C1205.88 2178.66 1160.67 2176.65 1129.73 2153.38C1098.78 2130.11 1093.82 2094.38 1093.82 2094.38C1093.82 2094.38 1121.82 2082.54 1152.77 2105.81Z" fill="#F3F0EF" fill-opacity="0.93"/>
    <path opacity="0.3" d="M1184.05 2097.09C1220.67 2109.66 1257.07 2149.96 1257.07 2149.96C1257.07 2149.96 1213.46 2162.02 1176.83 2149.45C1140.21 2136.88 1124.45 2104.44 1124.45 2104.44C1124.45 2104.44 1147.43 2084.52 1184.05 2097.09Z" fill="#F3F0EF" fill-opacity="0.93"/>
    <path d="M634.905 1585.63C597.987 1597.3 544.756 1586.56 544.756 1586.56C544.756 1586.56 572.643 1550.92 609.56 1539.24C646.476 1527.56 678.442 1544.27 678.442 1544.27C678.442 1544.27 671.82 1573.94 634.905 1585.63Z" fill="#F3F0EF" fill-opacity="0.93"/>
    <path opacity="0.8" d="M647.872 1550.44C611.36 1537.55 575.312 1496.94 575.312 1496.94C575.312 1496.94 619.035 1485.25 655.547 1498.14C692.059 1511.03 707.534 1543.61 707.534 1543.61C707.534 1543.61 684.384 1563.33 647.872 1550.44Z" fill="#F3F0EF" fill-opacity="0.93"/>
    <path d="M749.376 911.537C746.583 958.497 711.553 1001.47 711.553 1001.47C711.553 1001.47 681.53 971.093 684.323 924.133C687.116 877.173 721.667 831.411 721.667 831.411C721.667 831.411 752.169 864.576 749.376 911.537Z" fill="#F3F0EF" fill-opacity="0.93"/>
    <path d="M1721.75 328.108C1717.37 382.107 1677.98 419.759 1677.98 419.759C1677.98 419.759 1656.4 368.421 1660.78 314.423C1665.16 260.418 1693.84 224.198 1693.84 224.198C1693.84 224.198 1726.13 274.104 1721.75 328.108Z" fill="#F3F0EF" fill-opacity="0.93"/>
    <path d="M1262.9 536.648C1252.7 582.8 1208.9 618.623 1208.9 618.623C1208.9 618.623 1188.71 581.686 1198.91 535.534C1209.1 489.387 1245.83 451.497 1245.83 451.497C1245.83 451.497 1273.1 490.499 1262.9 536.648Z" fill="#F3F0EF" fill-opacity="0.93"/>
    <path d="M1522.48 398.57C1513.81 448.255 1472.2 485.87 1472.2 485.87C1472.2 485.87 1451.56 445.347 1460.23 395.662C1468.89 345.971 1503.58 305.936 1503.58 305.936C1503.58 305.936 1531.14 348.879 1522.48 398.57Z" fill="#F3F0EF" fill-opacity="0.93"/>
    <path d="M1334.12 310.921C1304.25 282.901 1259.03 279.143 1259.03 279.143C1259.03 279.143 1267.96 322.405 1297.84 350.418C1327.71 378.438 1367.21 380.604 1367.21 380.604C1367.21 380.604 1364 338.941 1334.12 310.921Z" fill="#F3F0EF" fill-opacity="0.93"/>
    <path d="M1078.49 463.754C1101.63 508.392 1089.53 559.202 1089.53 559.202C1089.53 559.202 1053.75 548.794 1030.61 504.151C1007.47 459.514 1005.73 397.546 1005.73 397.546C1005.73 397.546 1055.35 419.11 1078.49 463.754Z" fill="#F3F0EF" fill-opacity="0.93"/>
    <path d="M1573.74 165.391C1604.14 206.175 1600.01 261.879 1600.01 261.879C1600.01 261.879 1562.33 259.7 1531.94 218.916C1501.55 178.126 1489.96 114.177 1489.96 114.177C1489.96 114.177 1543.35 124.601 1573.74 165.391Z" fill="#F3F0EF" fill-opacity="0.93"/>
    <path d="M1020.06 692.363C1019.74 656.517 994.398 628.606 994.398 628.606C994.398 628.606 969.299 645.179 969.623 681.024C969.942 716.87 995.562 758.416 995.562 758.416C995.562 758.416 1020.38 728.209 1020.06 692.363Z" fill="#F3F0EF" fill-opacity="0.93"/>
    <path d="M593.458 830.648C550.975 812.641 489.081 818.192 489.081 818.192C489.081 818.192 504.709 861.096 547.191 879.103C589.675 897.11 642.923 883.4 642.923 883.4C642.923 883.4 635.941 848.655 593.458 830.648Z" fill="#F3F0EF" fill-opacity="0.93"/>
    <path d="M889.575 617.476C855.155 586.06 794.66 570.073 794.66 570.073C794.66 570.073 795.511 615.626 829.931 647.043C864.351 678.459 919.303 683.841 919.303 683.841C919.303 683.841 923.996 648.893 889.575 617.476Z" fill="#F3F0EF" fill-opacity="0.93"/>
    <path d="M420.29 901.157C443.754 937.88 438.766 981.442 438.766 981.442C438.766 981.442 410.25 976.142 386.786 939.419C363.322 902.695 353.795 848.455 353.795 848.455C353.795 848.455 396.826 864.434 420.29 901.157Z" fill="#F3F0EF" fill-opacity="0.93"/>
    <path d="M306.028 945.896C275.273 923.5 233.194 924.027 233.194 924.027C233.194 924.027 240.855 953.179 271.609 975.575C302.364 997.97 344.567 1005.13 344.567 1005.13C344.567 1005.13 336.783 968.291 306.028 945.896Z" fill="#F3F0EF" fill-opacity="0.93"/>
    <path d="M755.968 723.18C724.822 703.27 679.331 707.332 679.331 707.332C679.331 707.332 689.543 741.667 720.689 761.577C751.835 781.488 792.117 779.435 792.117 779.435C792.117 779.435 787.114 743.091 755.968 723.18Z" fill="#F3F0EF" fill-opacity="0.93"/>
</svg>
