<svg width="1808" height="3028" viewBox="0 0 1808 3028" fill="none" xmlns="http://www.w3.org/2000/svg">
    <g opacity="0.72">
        <path opacity="0.50" fill-rule="evenodd" clip-rule="evenodd" d="M473.215 2609.94C472.652 2601.66 472.239 2593.49 471.973 2585.42C469.085 2589.08 464.345 2593.39 456.686 2596.8C440.03 2604.22 415.879 2604.57 415.879 2604.57C415.879 2604.57 418.044 2592.53 434.7 2585.11C447.039 2579.62 463.869 2578.21 471.765 2577.84C471.553 2568.05 471.559 2558.42 471.779 2548.94C467.842 2553.79 461.203 2559.66 450.374 2563.79C428.627 2572.09 398.217 2570.24 398.217 2570.24C398.217 2570.24 402.238 2554.37 423.985 2546.07C440.466 2539.78 462.397 2539.64 472.054 2539.94C472.431 2529.95 473.049 2520.13 473.899 2510.46C462.819 2516.51 436.426 2529.75 413.137 2532.54C382.73 2536.17 369.129 2520.59 369.129 2520.59C369.129 2520.59 404.154 2500.25 434.56 2496.62C454.938 2494.18 468.069 2499.87 474.515 2503.88C475.966 2489.31 477.951 2475.1 480.446 2461.21C467.949 2467.37 437.333 2481.18 406.264 2485.23C365.85 2490.49 339.972 2477.25 339.972 2477.25C339.972 2477.25 386.786 2449.98 427.2 2444.71C456.072 2440.95 473.867 2449.44 481.676 2454.6C485.596 2434.25 490.619 2414.6 496.67 2395.55C483.479 2402.49 451.576 2417.49 412.459 2423.4C360.791 2431.2 316.102 2420.17 316.102 2420.17C316.102 2420.17 338.488 2386.97 390.156 2379.17C433.129 2372.68 482.822 2385.81 498.331 2390.42C501.467 2380.89 504.861 2371.51 508.505 2362.27L508.471 2362.13L508.543 2362.17C513.522 2349.55 518.965 2337.18 524.849 2325.03C514.099 2334.13 493.22 2346.25 455.165 2351.52C390.387 2360.48 300.371 2346.2 300.371 2346.2C300.371 2346.2 350.779 2308.19 415.557 2299.23C470.363 2291.64 517.897 2307.28 531.232 2312.27C545.13 2285.35 561.205 2259.48 579.183 2234.32C560.218 2241.41 505.655 2259.99 442.747 2265.1C364.511 2271.45 302.993 2254.54 302.993 2254.54C302.993 2254.54 348.115 2214.26 426.351 2207.92C494.219 2202.41 564.71 2224.24 582.204 2230.13C598.369 2207.83 616.025 2186.08 634.981 2164.61C621.512 2171.82 599.138 2178.93 562.083 2181.68C475.807 2188.07 342.615 2168.39 342.615 2168.39C342.615 2168.39 397.065 2133.97 483.341 2127.57C561.787 2121.76 639.535 2141.13 653.001 2144.69C674.032 2121.98 696.471 2099.5 720.085 2076.95C720.023 2076.53 719.968 2076.14 719.919 2075.79C695.012 2084.39 642.498 2098.44 570.877 2095.79C468.926 2092.01 366.865 2055.8 366.865 2055.8C366.865 2055.8 423.309 2024.8 525.26 2028.58C613 2031.84 705.851 2059.78 730.031 2067.51C739.428 2058.65 749.002 2049.76 758.738 2040.84C734.404 2041.83 672.697 2040.72 592.505 2012.9C488.06 1976.67 391.809 1908.85 391.809 1908.85C391.809 1908.85 468.982 1899.42 573.427 1935.65C662.341 1966.49 742.356 2020.49 764.187 2035.86C769.992 2030.57 775.853 2025.26 781.768 2019.93C781.23 2017.83 780.997 2016.73 780.997 2016.73C780.997 2016.73 781.321 2016.93 781.945 2017.34C782.346 2017.6 782.871 2017.94 783.514 2018.36C797.591 2005.69 811.967 1992.92 826.6 1980C828.167 1978.62 829.737 1977.23 831.31 1975.84L834.074 1973.4C835.911 1971.78 837.753 1970.16 839.598 1968.54C813.634 1968.54 747.653 1964.86 660.821 1933.05C547.723 1891.62 442.078 1818.16 442.078 1818.16C442.078 1818.16 523.568 1798.93 636.666 1840.36C733.527 1875.85 822.159 1944.31 845.612 1963.24C851.327 1958.21 857.077 1953.16 862.862 1948.07L863.477 1947.53L863.711 1947.32H863.713L863.727 1947.31L863.796 1947.25H863.797L868.469 1943.14C867.949 1939.86 867.769 1938.12 867.769 1938.12C867.769 1938.12 868.909 1939.06 871.051 1940.87C889.164 1924.94 907.595 1908.72 926.279 1892.1C899.161 1888.18 783.18 1869.82 679.812 1829.43C561.847 1783.34 504.978 1726.01 504.978 1726.01C504.978 1726.01 645.402 1731.32 763.366 1777.41C865.429 1817.29 917.24 1874.63 929.354 1889.37C935.76 1883.66 942.194 1877.91 948.655 1872.11C948.619 1871.95 948.59 1871.81 948.568 1871.71C948.534 1871.54 948.517 1871.46 948.517 1871.46C948.517 1871.46 948.695 1871.56 949.041 1871.77C970.17 1852.8 991.582 1833.3 1013.19 1813.14C985.382 1811.64 911.355 1803.91 811.663 1764.69C683.763 1714.36 562.052 1631.24 562.052 1631.24C562.052 1631.24 651.043 1616.53 778.943 1666.85C888.857 1710.1 991.737 1787.31 1018.5 1808.17C1030.52 1796.9 1042.61 1785.43 1054.73 1773.72C1077.12 1752.1 1099.65 1729.7 1122.23 1706.38C1100.63 1706.15 995.985 1702.95 864.519 1663.95C716.654 1620.09 590.853 1547.54 590.853 1547.54C590.853 1547.54 696.191 1534.23 844.057 1578.09C979.971 1618.41 1104.51 1693.01 1123.75 1704.8C1130.43 1697.89 1137.11 1690.9 1143.79 1683.82C1142.63 1680.11 1142.07 1678.12 1142.07 1678.12C1142.07 1678.12 1143.47 1679.23 1146.08 1681.4C1164.79 1661.54 1183.5 1641.01 1202.15 1619.74C1168.33 1616.74 1064.02 1604.47 935.798 1559.99C778.915 1505.57 645.635 1423.55 645.635 1423.55C645.635 1423.55 763.907 1414.97 920.79 1469.39C1055.67 1516.17 1175.18 1594.3 1206.05 1615.29C1220.92 1598.24 1235.75 1580.72 1250.52 1562.69C1248.41 1560.24 1247.33 1558.92 1247.33 1558.92C1247.33 1558.92 1249.1 1559.4 1252.42 1560.37C1263.94 1546.26 1275.42 1531.83 1286.85 1517.08C1254.67 1516.2 1156.74 1510.52 1036.29 1474.79C888.421 1430.92 762.62 1358.38 762.62 1358.38C762.62 1358.38 867.959 1345.06 1015.82 1388.93C1142.78 1426.59 1259.81 1494.16 1290.37 1512.52C1295.18 1506.27 1299.99 1499.96 1304.78 1493.58L1304.72 1493.52C1304.72 1493.52 1304.76 1493.52 1304.83 1493.51C1320.53 1472.64 1336.11 1451.11 1351.53 1428.88C1329.77 1429.5 1251.77 1428.69 1141.54 1392.92C1010.8 1350.5 884.246 1274.96 884.246 1274.96C884.246 1274.96 972.172 1254.84 1102.91 1297.27C1219.84 1335.22 1331.42 1410.35 1353.67 1425.78C1360.99 1415.19 1368.27 1404.44 1375.51 1393.53C1374.92 1392.94 1374.46 1392.47 1374.14 1392.14C1373.74 1391.74 1373.55 1391.54 1373.55 1391.54C1373.55 1391.54 1374.76 1391.36 1377.1 1391.14C1576.66 1089.53 1745.98 662.673 1802.85 0L1807.84 0.427395C1751.09 661.633 1582.48 1088.59 1383.4 1390.67C1409.18 1389.16 1483.24 1389.56 1577.83 1431.4C1695.99 1483.68 1801.44 1580.84 1801.44 1580.84C1801.44 1580.84 1675.64 1565.1 1557.48 1512.83C1459.36 1469.42 1397.37 1414.47 1379.16 1397.07C1356.87 1430.63 1334.21 1462.63 1311.28 1493.24C1334.09 1492.79 1414.2 1495.39 1518.15 1546.04C1641.7 1606.24 1752.16 1711.55 1752.16 1711.55C1752.16 1711.55 1620.76 1688.2 1497.2 1628C1389.98 1575.75 1323.9 1512.92 1308.3 1497.21C1303.77 1503.24 1299.22 1509.21 1294.67 1515.12C1296.92 1516.49 1298.09 1517.23 1298.09 1517.23C1298.09 1517.23 1296.37 1517.25 1293.07 1517.21C1281.3 1532.45 1269.48 1547.34 1257.62 1561.9C1290.59 1571.84 1397.73 1607.06 1504.1 1673.94C1631.92 1754.31 1710.24 1849.98 1710.24 1849.98C1710.24 1849.98 1586.75 1821.53 1458.92 1741.15C1351.94 1673.89 1275.83 1591.59 1253.85 1566.52C1239.35 1584.2 1224.79 1601.4 1210.2 1618.13C1211.2 1618.82 1211.99 1619.38 1212.58 1619.78C1213.36 1620.33 1213.76 1620.61 1213.76 1620.61C1213.76 1620.61 1211.9 1620.52 1208.35 1620.25C1208 1620.64 1207.66 1621.04 1207.31 1621.44C1229.5 1634.67 1358.73 1713.87 1463.1 1823.35C1577.68 1943.54 1618.92 2054.73 1618.92 2054.73C1618.92 2054.73 1465.35 1954.92 1350.78 1834.73C1250.03 1729.05 1212.97 1642.79 1205.49 1623.51C1187 1644.58 1168.46 1664.92 1149.92 1684.62C1175.73 1706.46 1260.44 1781.71 1331.68 1885.98C1416.85 2010.66 1450.52 2129.62 1450.52 2129.62C1450.52 2129.62 1348.62 2054.28 1263.44 1929.61C1193.31 1826.94 1156.38 1722.84 1145.52 1689.27C1116.33 1720.12 1087.15 1749.37 1058.2 1777.32C1053.27 1782.08 1048.35 1786.8 1043.44 1791.48C1060.33 1798.81 1134.66 1834.78 1209.9 1929.3C1295.5 2036.83 1349.86 2179.42 1349.86 2179.42C1349.86 2179.42 1241.31 2101.78 1155.71 1994.25C1079.94 1899.06 1047.54 1812.36 1041.1 1793.7C1034.88 1799.62 1028.67 1805.49 1022.48 1811.29C1023.11 1811.8 1023.64 1812.22 1024.06 1812.56C1024.36 1812.79 1024.6 1812.99 1024.78 1813.13C1025.07 1813.37 1025.22 1813.49 1025.22 1813.49C1025.22 1813.49 1023.5 1813.52 1020.2 1813.43C997.735 1834.45 975.474 1854.75 953.522 1874.46C976.479 1888.47 1073.47 1950.13 1140.78 2031.44C1217.58 2124.22 1226.67 2207.45 1226.67 2207.45C1226.67 2207.45 1160.3 2155.71 1065.72 2069.83C984.335 1995.93 956.23 1902.33 949.972 1877.65C924.463 1900.52 899.38 1922.62 874.89 1944.15C893.967 1960.6 948.738 2009.64 1006.86 2078.54C1078.99 2164.04 1080.7 2277.14 1080.7 2277.14C1080.7 2277.14 992.964 2198.61 934.165 2104.99C888.771 2032.72 873.894 1972.58 869.47 1948.92L867.077 1951.02H867.074C861.193 1956.19 855.348 1961.33 849.541 1966.44C850.925 1967.58 851.644 1968.19 851.644 1968.19C851.644 1968.19 850.16 1968.31 847.304 1968.41C841.466 1973.55 835.667 1978.66 829.91 1983.75C815.611 1996.38 801.566 2008.85 787.812 2021.22C811.19 2036.95 889.844 2092.59 947.343 2165.84C1015.61 2252.8 1028.2 2331.63 1028.2 2331.63C1028.2 2331.63 932.735 2262.71 864.472 2175.75C810.212 2106.63 789.471 2046.92 783.244 2025.33C778.241 2029.84 773.277 2034.34 768.354 2038.83C769.464 2039.63 770.039 2040.06 770.039 2040.06C770.039 2040.06 768.883 2040.2 766.656 2040.38C756.055 2050.05 745.647 2059.68 735.447 2069.28C735.854 2069.41 736.062 2069.48 736.062 2069.48C736.062 2069.48 735.523 2069.74 734.464 2070.2C731.687 2072.82 728.925 2075.44 726.18 2078.05C743.836 2091.6 793.584 2132.9 834.141 2196.26C884.369 2274.72 901.478 2357.31 901.478 2357.31C901.478 2357.31 827.551 2301.78 777.322 2223.31C738.179 2162.16 724.979 2105.13 721.06 2082.94C702.038 2101.17 683.804 2119.34 666.475 2137.62C678.413 2147.22 719.705 2183.04 750.252 2242.07C786.327 2311.78 793.756 2387.46 793.756 2387.46C793.756 2387.46 728.972 2332.26 692.896 2262.55C664.03 2206.77 662.292 2158.59 662.75 2141.57C654.741 2150.09 646.929 2158.64 639.328 2167.24C629.874 2177.93 620.746 2188.69 611.968 2199.54C624.52 2209.7 665.11 2245.35 695.244 2303.58C731.32 2373.3 738.748 2448.98 738.748 2448.98C738.748 2448.98 665.172 2365.44 629.097 2295.73C605.607 2250.34 603.809 2222 605.413 2207.75C584.455 2234.32 565.609 2261.53 549.214 2289.84C559.207 2293.68 595.54 2310.24 625.842 2357.12C661.343 2412.04 675.12 2487.78 675.12 2487.78C675.12 2487.78 621.408 2446.36 585.907 2391.44C556.936 2346.62 549.046 2306.66 547.124 2293.48C534.061 2316.4 522.604 2340.05 512.933 2364.67C525.917 2372.29 564.391 2396.59 590.142 2430.87C621.528 2472.64 622.13 2513.42 622.13 2513.42C622.13 2513.42 582.289 2490.62 550.903 2448.85C527.561 2417.78 515.469 2384.96 510.805 2370.18C508.087 2377.33 505.52 2384.57 503.108 2391.9L503.207 2391.93C503.207 2391.93 503.161 2391.96 503.07 2392.01C497.255 2409.68 492.338 2427.87 488.38 2446.65C497.109 2445.96 517.539 2446.93 541.63 2465.7C573.78 2490.75 600.276 2538 600.276 2538C600.276 2538 571.258 2536.28 539.107 2511.23C514.159 2491.8 494.656 2464.03 487.17 2452.56C486.811 2454.37 486.462 2456.18 486.121 2457.99L486.215 2458.08L486.261 2458.12L486.299 2458.16L486.324 2458.19C486.324 2458.19 486.234 2458.24 486.057 2458.33C484.116 2468.71 482.464 2479.26 481.109 2490.02C482.22 2490.4 519.751 2503.4 542.105 2523.66C564.796 2544.23 563.256 2564.48 563.256 2564.48C563.256 2564.48 523.634 2551.62 500.943 2531.06C480.796 2512.8 480.77 2494.6 481.017 2490.75C480.333 2496.25 479.727 2501.79 479.199 2507.39L479.241 2507.43L479.193 2507.46C478.086 2519.23 477.328 2531.23 476.933 2543.48C482.974 2541.91 493.275 2540.89 506.486 2545.99C528.202 2554.38 549.559 2576.1 549.559 2576.1C549.559 2576.1 535.951 2585.21 514.236 2576.82C499.392 2571.09 484.603 2558.68 476.728 2551.39C476.571 2559.51 476.57 2567.73 476.73 2576.07C484.567 2578.38 499.988 2583.61 510.394 2591.6C524.859 2602.69 524.153 2614.91 524.153 2614.91C524.153 2614.91 500.752 2608.93 486.286 2597.83C482.152 2594.66 479.195 2591.41 477.08 2588.39C477.343 2595.38 477.717 2602.45 478.204 2609.6L473.215 2609.94ZM74.5025 2855.54C49.2488 2859.35 31.2002 2869.36 19.4814 2878.37C13.6179 2882.88 9.33767 2887.15 6.53694 2890.27C6.09588 2890.76 5.69164 2891.22 5.32382 2891.65C6.20817 2891.83 7.21203 2892.02 8.32855 2892.22C13.2581 2893.12 20.3792 2894.24 29.1047 2895.13C46.5681 2896.89 70.3936 2897.68 95.9093 2893.83C104.823 2892.49 113.361 2890.66 121.384 2888.57C128.073 2882.71 135.436 2877.11 142.968 2872.88C153.95 2866.72 163.581 2864.42 171.115 2863.85C165.178 2862.32 157.765 2860.57 149.393 2858.97C127.723 2854.83 99.8463 2851.71 74.5025 2855.54ZM187.085 2865.32C186.905 2865.26 185.55 2864.82 183.211 2864.11C168.93 2859.81 117.981 2845.94 74.0547 2852.57C31.2191 2859.03 8.50927 2882.96 1.99692 2890.95C0.654161 2892.6 0 2893.57 0 2893.57C0 2893.57 1.11468 2893.85 3.19548 2894.28C14.2899 2896.59 52.8493 2903.37 96.3571 2896.8C103.381 2895.74 110.173 2894.39 116.665 2892.84C102.07 2906.47 91.6915 2920.07 91.6915 2920.07C91.6915 2920.07 110.218 2929.26 136.92 2914.26C163.621 2899.27 188.386 2865.78 188.386 2865.78C188.386 2865.78 187.939 2865.59 187.085 2865.32ZM1052 2804.68C1052.99 2752.44 1077.61 2719.94 1077.61 2719.94C1077.61 2719.94 1094.97 2762.43 1093.99 2814.68C1093 2866.92 1074.04 2909.13 1074.04 2909.13C1074.04 2909.13 1051.01 2856.93 1052 2804.68ZM1282.33 3027.22C1282.33 3027.22 1287.1 2947.52 1239.27 2847.85C1191.45 2748.18 1109.14 2666.27 1109.14 2666.27C1109.14 2666.27 1108.4 2739.92 1156.22 2839.59C1204.05 2939.26 1282.33 3027.22 1282.33 3027.22Z" fill="white"/>
    </g>
</svg>
