<svg width="872" height="766" viewBox="0 0 872 766" fill="none" xmlns="http://www.w3.org/2000/svg">
    <path opacity="0.83" d="M520.893 392.425C499.406 579.227 604.342 678.805 604.342 678.805C604.342 678.805 607.249 420.863 584.314 267.753C561.379 114.643 513.297 71 513.297 71C513.297 71 542.381 205.623 520.893 392.425Z" fill="#F3F0EF" fill-opacity="0.81"/>
    <path d="M640.996 425.401C656.462 585.318 565.891 668.835 565.891 668.835C565.891 668.835 567.257 448.414 589.005 317.943C610.753 187.472 652.223 150.899 652.223 150.899C652.223 150.899 625.53 265.484 640.996 425.401Z" fill="#F3F0EF" fill-opacity="0.81"/>
    <path opacity="0.83" d="M236.893 478.425C215.406 665.227 320.342 764.805 320.342 764.805C320.342 764.805 323.249 506.863 300.314 353.753C277.379 200.643 229.297 157 229.297 157C229.297 157 258.381 291.623 236.893 478.425Z" fill="#F3F0EF" fill-opacity="0.81"/>
    <path d="M356.996 511.401C372.462 671.318 281.891 754.835 281.891 754.835C281.891 754.835 283.257 534.414 305.005 403.943C326.753 273.472 368.223 236.899 368.223 236.899C368.223 236.899 341.53 351.484 356.996 511.401Z" fill="#F3F0EF" fill-opacity="0.81"/>
    <path opacity="0.83" d="M230.707 514.919C346.312 663.217 490.954 660.69 490.954 660.69C490.954 660.69 312.233 474.675 188.558 381.545C64.884 288.414 -0.000784451 290.987 -0.000784451 290.987C-0.000784451 290.987 115.102 366.622 230.707 514.919Z" fill="#F3F0EF" fill-opacity="0.85"/>
    <path d="M339.483 454.259C462.602 557.479 456.54 680.53 456.54 680.53C456.54 680.53 303.019 522.356 227.082 414.054C151.146 305.753 155.091 250.6 155.091 250.6C155.091 250.6 216.365 351.038 339.483 454.259Z" fill="#F3F0EF" fill-opacity="0.85"/>
    <path opacity="0.83" d="M640.375 517.919C524.77 666.217 380.128 663.69 380.128 663.69C380.128 663.69 558.849 477.675 682.524 384.545C806.198 291.414 871.083 293.987 871.083 293.987C871.083 293.987 755.98 369.622 640.375 517.919Z" fill="#F3F0EF" fill-opacity="0.78"/>
    <path d="M531.599 457.259C408.48 560.479 414.542 683.53 414.542 683.53C414.542 683.53 568.063 525.356 644 417.054C719.936 308.753 715.992 253.6 715.992 253.6C715.992 253.6 654.717 354.038 531.599 457.259Z" fill="#F3F0EF" fill-opacity="0.78"/>
    <path opacity="0.83" d="M489.164 311.067C561.309 484.71 487.886 609.355 487.886 609.355C487.886 609.355 413.993 362.206 393.836 208.706C373.68 55.2059 407.87 -4.12552e-05 407.87 -4.12552e-05C407.87 -4.12552e-05 417.02 137.425 489.164 311.067Z" fill="#F3F0EF" fill-opacity="0.93"/>
    <path d="M382.804 375.871C412.016 533.856 522.099 589.173 522.099 589.173C522.099 589.173 460.029 377.667 403.161 258.245C346.293 138.822 296.348 115.097 296.348 115.097C296.348 115.097 353.592 217.886 382.804 375.871Z" fill="#F3F0EF" fill-opacity="0.93"/>
</svg>
