<svg width="202" height="202" viewBox="0 0 202 202" fill="none" xmlns="http://www.w3.org/2000/svg">
    <path d="M43.8466 55.4409H46.458C47.4455 55.4409 48.251 55.311 48.8747 55.0511C49.4983 54.7653 50.0571 54.3235 50.5509 53.7259L67.5455 33.4571C68.1431 32.7035 68.7537 32.1838 69.3774 31.8979C70.027 31.5861 70.8326 31.4302 71.794 31.4302H79.5897L59.5159 55.1291C58.9702 55.8047 58.4374 56.3764 57.9177 56.8442C57.424 57.2859 56.8783 57.6497 56.2806 57.9356C57.0602 58.2214 57.7618 58.6241 58.3854 59.1438C59.0091 59.6375 59.6198 60.3002 60.2175 61.1318L81.032 87.5592H73.0804C72.5087 87.5592 72.015 87.5201 71.5992 87.4422C71.2095 87.3642 70.8586 87.2474 70.5467 87.0915C70.2609 86.9356 70.001 86.7406 69.7672 86.5067C69.5593 86.2728 69.3645 86.013 69.1826 85.7271L51.6423 64.289C51.3824 63.9511 51.1225 63.6653 50.8627 63.4314C50.6028 63.1976 50.291 63.0028 49.9272 62.8468C49.5894 62.6909 49.1996 62.587 48.7578 62.535C48.3161 62.4571 47.7964 62.418 47.1987 62.418H43.8466V87.5592H34.7256V31.4302H43.8466V55.4409ZM167.449 124.979V181.108H159.419V142.636C159.419 142.012 159.433 141.336 159.459 140.609C159.511 139.855 159.575 139.102 159.653 138.348L141.606 171.675C140.905 173.052 139.826 173.741 138.371 173.741H137.085C135.604 173.741 134.525 173.052 133.85 171.675L115.53 138.27C115.608 139.024 115.66 139.777 115.686 140.531C115.738 141.284 115.764 141.986 115.764 142.636V181.108H107.734V124.979H114.555C115.361 124.979 115.985 125.057 116.426 125.212C116.868 125.342 117.271 125.771 117.635 126.499L135.643 159.124C136.032 159.877 136.396 160.657 136.734 161.462C137.098 162.242 137.423 163.048 137.709 163.879C138.02 163.048 138.345 162.229 138.683 161.424C139.047 160.592 139.424 159.799 139.813 159.046L157.549 126.499C157.912 125.771 158.315 125.342 158.757 125.212C159.199 125.057 159.822 124.979 160.628 124.979H167.449Z" fill="#E15F40"/>
    <path d="M119.763 79.9194V87.5592H87.333V31.4302H96.454V79.9194H119.763Z" fill="#307263"/>
    <path d="M162.647 80.192L162.608 87.559H127.605V31.43H162.608V38.7968H136.766V55.7135H157.424V62.8467H136.766V80.192H162.647ZM142.067 22.5818C142.067 23.2314 141.937 23.8422 141.677 24.4139C141.417 24.9855 141.066 25.4922 140.624 25.9339C140.183 26.3497 139.663 26.6875 139.065 26.9474C138.467 27.1812 137.844 27.2983 137.194 27.2983C136.571 27.2983 135.973 27.1812 135.401 26.9474C134.829 26.6875 134.323 26.3497 133.881 25.9339C133.465 25.4922 133.128 24.9855 132.868 24.4139C132.634 23.8422 132.517 23.2314 132.517 22.5818C132.517 21.9321 132.634 21.3216 132.868 20.7499C133.128 20.1522 133.465 19.6325 133.881 19.1907C134.323 18.749 134.829 18.3982 135.401 18.1383C135.973 17.8785 136.571 17.7485 137.194 17.7485C137.844 17.7485 138.467 17.8785 139.065 18.1383C139.663 18.3982 140.183 18.749 140.624 19.1907C141.066 19.6325 141.417 20.1522 141.677 20.7499C141.937 21.3216 142.067 21.9321 142.067 22.5818ZM158.788 22.5818C158.788 23.2314 158.658 23.8422 158.398 24.4139C158.139 24.9855 157.788 25.4922 157.346 25.9339C156.93 26.3497 156.437 26.6875 155.865 26.9474C155.293 27.1812 154.683 27.2983 154.033 27.2983C153.357 27.2983 152.734 27.1812 152.162 26.9474C151.59 26.6875 151.084 26.3497 150.642 25.9339C150.2 25.4922 149.849 24.9855 149.589 24.4139C149.355 23.8422 149.239 23.2314 149.239 22.5818C149.239 21.9321 149.355 21.3216 149.589 20.7499C149.849 20.1522 150.2 19.6325 150.642 19.1907C151.084 18.749 151.59 18.3982 152.162 18.1383C152.734 17.8785 153.357 17.7485 154.033 17.7485C154.683 17.7485 155.293 17.8785 155.865 18.1383C156.437 18.3982 156.93 18.749 157.346 19.1907C157.788 19.6325 158.139 20.1522 158.398 20.7499C158.658 21.3216 158.788 21.9321 158.788 22.5818Z" fill="#F4C672"/>
    <path d="M94.4406 124.979V181.108H86.4111V142.636C86.4111 142.012 86.424 141.336 86.45 140.609C86.5019 139.855 86.567 139.102 86.6449 138.348L68.5978 171.675C67.8962 173.052 66.8179 173.741 65.3627 173.741H64.0763C62.5951 173.741 61.5168 173.052 60.8412 171.675L42.5213 138.27C42.5992 139.024 42.6512 139.777 42.6772 140.531C42.7292 141.284 42.7552 141.986 42.7552 142.636V181.108H34.7256V124.979H41.5467C42.3523 124.979 42.9759 125.056 43.4177 125.212C43.8595 125.342 44.2623 125.771 44.6261 126.499L62.6342 159.124C63.024 159.877 63.3878 160.657 63.7256 161.462C64.0894 162.242 64.4141 163.048 64.7 163.879C65.0118 163.048 65.3367 162.229 65.6745 161.423C66.0383 160.592 66.415 159.799 66.8048 159.046L84.5401 126.499C84.9039 125.771 85.3066 125.342 85.7483 125.212C86.1901 125.056 86.8138 124.979 87.6193 124.979H94.4406Z" fill="#56BC8F"/>
    <path d="M193.473 4.22583H8.52666C6.15124 4.22583 4.22559 6.15149 4.22559 8.52691V193.473C4.22559 195.849 6.15124 197.774 8.52666 197.774H193.473C195.848 197.774 197.774 195.849 197.774 193.473V8.52691C197.774 6.15149 195.848 4.22583 193.473 4.22583Z" stroke="#EC8248" stroke-width="8" stroke-linecap="round" stroke-linejoin="round" stroke-dasharray="70 20"/>
</svg>
