<svg width="1116" height="1116" viewBox="0 0 1116 1116" fill="none" xmlns="http://www.w3.org/2000/svg">
    <path fill-rule="evenodd" clip-rule="evenodd" d="M42 0.5C33.2665 0.5 25.1151 3.21724 18.4117 7.8529C16.2689 9.33475 14.5593 11.2092 13.3127 13.3127C11.2092 14.5593 9.33475 16.2689 7.8529 18.4117C3.21724 25.1151 0.5 33.2665 0.5 42V240.462C0.5 250.127 8.33502 257.962 18 257.962C27.665 257.962 35.5 250.127 35.5 240.462V42C35.5 40.6048 35.9199 39.3603 36.6399 38.3192C36.8722 37.9834 37.091 37.6423 37.2966 37.2966C37.6423 37.091 37.9834 36.8722 38.3192 36.6399C39.3603 35.9199 40.6048 35.5 42 35.5H240.462C250.127 35.5 257.962 27.665 257.962 18C257.962 8.33502 250.127 0.5 240.462 0.5H42ZM359.538 0.5C349.873 0.5 342.038 8.33502 342.038 18C342.038 27.665 349.873 35.5 359.538 35.5H756.462C766.127 35.5 773.962 27.665 773.962 18C773.962 8.33502 766.127 0.5 756.462 0.5H359.538ZM875.538 0.5C865.873 0.5 858.038 8.33502 858.038 18C858.038 27.665 865.873 35.5 875.538 35.5H1074C1075.4 35.5 1076.64 35.9199 1077.68 36.6399C1078.02 36.8722 1078.36 37.0911 1078.7 37.2967C1078.91 37.6424 1079.13 37.9834 1079.36 38.3192C1080.08 39.3603 1080.5 40.6048 1080.5 42V240.462C1080.5 250.127 1088.33 257.962 1098 257.962C1107.67 257.962 1115.5 250.127 1115.5 240.462V42C1115.5 33.2665 1112.78 25.1151 1108.15 18.4117C1106.67 16.2689 1104.79 14.5593 1102.69 13.3127C1101.44 11.2092 1099.73 9.33475 1097.59 7.8529C1090.88 3.21724 1082.73 0.5 1074 0.5H875.538ZM35.5 359.538C35.5 349.873 27.665 342.038 18 342.038C8.33502 342.038 0.5 349.873 0.5 359.538V756.462C0.5 766.127 8.33502 773.962 18 773.962C27.665 773.962 35.5 766.127 35.5 756.462V359.538ZM1115.5 359.538C1115.5 349.873 1107.67 342.038 1098 342.038C1088.33 342.038 1080.5 349.873 1080.5 359.538V756.462C1080.5 766.127 1088.33 773.962 1098 773.962C1107.67 773.962 1115.5 766.127 1115.5 756.462V359.538ZM35.5 875.538C35.5 865.873 27.665 858.038 18 858.038C8.33502 858.038 0.5 865.873 0.5 875.538V1074C0.5 1082.73 3.21724 1090.88 7.8529 1097.59C9.33475 1099.73 11.2092 1101.44 13.3127 1102.69C14.5593 1104.79 16.2689 1106.67 18.4117 1108.15C25.1151 1112.78 33.2665 1115.5 42 1115.5H240.462C250.127 1115.5 257.962 1107.67 257.962 1098C257.962 1088.33 250.127 1080.5 240.462 1080.5H42C40.6048 1080.5 39.3603 1080.08 38.3192 1079.36C37.9834 1079.13 37.6424 1078.91 37.2967 1078.7C37.0911 1078.36 36.8722 1078.02 36.6399 1077.68C35.9199 1076.64 35.5 1075.4 35.5 1074V875.538ZM1115.5 875.538C1115.5 865.873 1107.67 858.038 1098 858.038C1088.33 858.038 1080.5 865.873 1080.5 875.538V1074C1080.5 1075.4 1080.08 1076.64 1079.36 1077.68C1079.13 1078.02 1078.91 1078.36 1078.7 1078.7C1078.36 1078.91 1078.02 1079.13 1077.68 1079.36C1076.64 1080.08 1075.4 1080.5 1074 1080.5H875.538C865.873 1080.5 858.038 1088.33 858.038 1098C858.038 1107.67 865.873 1115.5 875.538 1115.5H1074C1082.73 1115.5 1090.88 1112.78 1097.59 1108.15C1099.73 1106.67 1101.44 1104.79 1102.69 1102.69C1104.79 1101.44 1106.67 1099.73 1108.15 1097.59C1112.78 1090.88 1115.5 1082.73 1115.5 1074V875.538ZM359.538 1080.5C349.873 1080.5 342.038 1088.33 342.038 1098C342.038 1107.67 349.873 1115.5 359.538 1115.5H756.462C766.127 1115.5 773.962 1107.67 773.962 1098C773.962 1088.33 766.127 1080.5 756.462 1080.5H359.538ZM901.769 483L901.987 441.892H757.567V345.105H872.842V305.302H757.567V210.907H901.769V169.8H706.454V483H901.769ZM784.972 130.65C786.422 127.46 787.147 124.052 787.147 120.427C787.147 116.802 786.422 113.395 784.972 110.205C783.522 106.87 781.564 103.97 779.099 101.505C776.634 99.04 773.734 97.0825 770.399 95.6325C767.064 94.1825 763.584 93.4575 759.959 93.4575C756.479 93.4575 753.144 94.1825 749.954 95.6325C746.764 97.0825 743.937 99.04 741.472 101.505C739.152 103.97 737.267 106.87 735.817 110.205C734.512 113.395 733.859 116.802 733.859 120.427C733.859 124.052 734.512 127.46 735.817 130.65C737.267 133.84 739.152 136.667 741.472 139.132C743.937 141.452 746.764 143.337 749.954 144.787C753.144 146.092 756.479 146.745 759.959 146.745C763.584 146.745 767.064 146.092 770.399 144.787C773.734 143.337 776.634 141.452 779.099 139.132C781.564 136.667 783.522 133.84 784.972 130.65ZM878.279 130.65C879.729 127.46 880.454 124.052 880.454 120.427C880.454 116.802 879.729 113.395 878.279 110.205C876.829 106.87 874.872 103.97 872.407 101.505C870.087 99.04 867.332 97.0825 864.142 95.6325C860.952 94.1825 857.544 93.4575 853.919 93.4575C850.149 93.4575 846.669 94.1825 843.479 95.6325C840.289 97.0825 837.462 99.04 834.997 101.505C832.532 103.97 830.574 106.87 829.124 110.205C827.819 113.395 827.167 116.802 827.167 120.427C827.167 124.052 827.819 127.46 829.124 130.65C830.574 133.84 832.532 136.667 834.997 139.132C837.462 141.452 840.289 143.337 843.479 144.787C846.669 146.092 850.149 146.745 853.919 146.745C857.544 146.745 860.952 146.092 864.142 144.787C867.332 143.337 870.087 141.452 872.407 139.132C874.872 136.667 876.829 133.84 878.279 130.65ZM239.088 303.78H253.66C259.17 303.78 263.665 303.055 267.145 301.605C270.625 300.01 273.743 297.545 276.498 294.21L371.328 181.11C374.663 176.905 378.07 174.005 381.55 172.41C385.175 170.67 389.67 169.8 395.035 169.8H438.535L326.523 302.04C323.478 305.81 320.505 309 317.605 311.61C314.85 314.075 311.805 316.105 308.47 317.7C312.82 319.295 316.735 321.542 320.215 324.442C323.695 327.197 327.103 330.895 330.438 335.535L446.583 483H402.213C399.023 483 396.268 482.782 393.948 482.347C391.773 481.912 389.815 481.26 388.075 480.39C386.48 479.52 385.03 478.432 383.725 477.127C382.565 475.822 381.478 474.372 380.463 472.777L282.588 353.152C281.138 351.267 279.688 349.672 278.238 348.367C276.788 347.062 275.048 345.975 273.018 345.105C271.133 344.235 268.958 343.655 266.493 343.365C264.028 342.93 261.128 342.712 257.793 342.712H239.088V483H188.193V169.8H239.088V303.78ZM928.79 691.8V1005H883.985V790.327C883.985 786.847 884.058 783.077 884.203 779.017C884.493 774.812 884.855 770.607 885.29 766.402L784.588 952.365C780.673 960.05 774.655 963.892 766.535 963.892H759.358C751.093 963.892 745.075 960.05 741.305 952.365L639.08 765.967C639.515 770.172 639.805 774.377 639.95 778.582C640.24 782.787 640.385 786.702 640.385 790.327V1005H595.58V691.8H633.643C638.138 691.8 641.618 692.235 644.083 693.105C646.548 693.83 648.795 696.222 650.825 700.282L751.31 882.33C753.485 886.535 755.515 890.885 757.4 895.38C759.43 899.73 761.243 904.225 762.838 908.865C764.578 904.225 766.39 899.657 768.275 895.163C770.305 890.523 772.408 886.1 774.583 881.895L873.545 700.282C875.575 696.222 877.823 693.83 880.288 693.105C882.753 692.235 886.233 691.8 890.728 691.8H928.79ZM662.693 440.37V483H481.733V169.8H532.628V440.37H662.693ZM521.403 691.8V1005H476.598V790.327C476.598 786.847 476.67 783.077 476.815 779.017C477.105 774.812 477.468 770.607 477.903 766.402L377.2 952.365C373.285 960.05 367.268 963.892 359.148 963.892H351.97C343.705 963.892 337.688 960.05 333.918 952.365L231.693 765.967C232.128 770.172 232.418 774.377 232.563 778.582C232.853 782.787 232.998 786.702 232.998 790.327V1005H188.193V691.8H226.255C230.75 691.8 234.23 692.235 236.695 693.105C239.16 693.83 241.408 696.222 243.438 700.282L343.923 882.33C346.098 886.535 348.128 890.885 350.013 895.38C352.043 899.73 353.855 904.225 355.45 908.865C357.19 904.225 359.003 899.657 360.888 895.163C362.918 890.523 365.02 886.1 367.195 881.895L466.158 700.282C468.188 696.222 470.435 693.83 472.9 693.105C475.365 692.235 478.845 691.8 483.34 691.8H521.403Z" fill="#F3F0EF"/>
</svg>
