<svg width="3313" height="2129" viewBox="0 0 3313 2129" fill="none" xmlns="http://www.w3.org/2000/svg">
    <path opacity="0.6" fill-rule="evenodd" clip-rule="evenodd" d="M39.5684 942.538C67.2988 949.456 94.2461 954.546 120.52 957.935C116.117 964.097 106.696 979.356 106.64 997.165C106.565 1020.41 122.47 1039.2 122.47 1039.2C122.47 1039.2 137.522 1020.3 137.597 997.054C137.651 979.803 129.44 965.006 125.203 958.522C169.69 963.935 212.251 964.463 253.419 960.729C241.826 966.724 218.723 980.024 203.691 997.607C182.94 1021.88 185.43 1045.12 185.43 1045.12C185.43 1045.12 228.72 1038.38 249.47 1014.1C266.612 994.053 263.009 968.313 261.237 959.967C309.505 954.937 355.887 944.053 401.252 928.331C390.25 936.228 374.361 950.832 365.642 973.609C351.409 1010.79 361.67 1055.67 361.67 1055.67C361.67 1055.67 407.612 1018.86 421.846 981.676C433.459 951.337 420.371 930.127 415.161 923.349C452.337 909.601 488.885 892.647 525.287 873.052C515.857 881.932 501.227 899.204 496.387 924.235C489.036 962.251 507.054 1003.77 507.054 1003.77C507.054 1003.77 541.893 962.111 549.246 924.095C555.413 892.184 540.253 872.981 535.225 867.636C540.998 864.451 546.77 861.2 552.54 857.887C591.934 835.268 631.304 809.714 671.264 781.95C667.414 787.211 636.935 830.146 634.318 874.133C631.525 921.093 661.548 951.468 661.548 951.468C661.548 951.468 696.578 908.497 699.371 861.537C702.051 816.474 674.073 784.113 671.808 781.572C716.32 750.626 761.568 716.942 808.4 681.52C813.16 677.919 817.937 674.3 822.73 670.665C833.163 662.755 843.677 654.764 854.281 646.703L854.721 646.369L854.732 646.361L854.744 646.352L854.756 646.343L854.768 646.334L854.779 646.325L854.791 646.317L854.803 646.308L854.814 646.3L854.835 646.284L854.905 646.23C911.46 603.243 970.609 558.284 1033.77 512.969C1037.37 514.575 1039.52 515.202 1039.52 515.202C1039.52 515.202 1040.16 512.54 1040.86 507.899C1059.8 494.365 1079.11 480.805 1098.82 467.261C1129.04 446.491 1160.2 425.759 1192.44 405.223C1183.11 415.845 1157.21 447.951 1148.9 485.534C1138.71 531.686 1158.9 568.623 1158.9 568.623C1158.9 568.623 1202.69 532.8 1212.89 486.648C1222.09 445.044 1200.83 409.249 1196.56 402.601C1234.98 378.216 1274.92 354.114 1316.62 330.561C1317.01 330.592 1317.21 330.604 1317.21 330.604L1317.2 330.509L1317.18 330.245C1357.14 307.683 1398.71 285.626 1442.09 264.301C1431.17 280.408 1415.63 307.654 1410.22 338.662C1401.56 388.347 1422.2 428.87 1422.2 428.87C1422.2 428.87 1463.81 391.255 1472.48 341.57C1478.94 304.475 1465.22 271.141 1457.85 256.625C1515.46 228.827 1576.23 202.345 1640.61 177.704C1632.99 188.98 1614.25 220.613 1610.78 263.423C1606.4 317.421 1627.98 368.759 1627.98 368.759C1627.98 368.759 1667.37 331.107 1671.75 277.109C1675.53 230.453 1651.95 186.856 1645.46 175.855C2035.58 27.5285 2558.11 -53.1331 3312.52 49.4245L3312.92 46.4518C2557.65 -56.2239 2034.49 24.6276 1643.87 173.25L1643.84 173.198L1643.77 173.289C1611.65 185.511 1580.43 198.192 1550.05 211.265C1550.38 205.093 1552.27 153.671 1523.74 115.392C1493.35 74.6013 1439.96 64.1769 1439.96 64.1769C1439.96 64.1769 1451.54 128.126 1481.93 168.917C1509.21 205.523 1542.37 211.028 1548.87 211.771C1517.17 225.432 1486.39 239.521 1456.46 253.965L1456.17 253.42C1455.98 253.068 1455.79 252.737 1455.62 252.424L1455.29 251.836L1454.9 251.15C1454.07 249.703 1453.58 248.936 1453.58 248.936C1453.58 248.936 1450.36 252.652 1445.63 259.224C1400.84 281.121 1357.96 303.805 1316.78 327.024C1315.25 316.342 1308.73 284.002 1284.12 260.921C1254.25 232.901 1209.03 229.142 1209.03 229.142C1209.03 229.142 1217.96 272.404 1247.84 300.418C1270.86 322.008 1299.59 328.248 1311.56 329.975C1234.59 373.617 1163.58 419.107 1097.12 464.789C1078.19 477.795 1059.64 490.816 1041.42 503.814C1043.58 486.306 1044.93 451.472 1028.49 419.754C1005.35 375.11 955.73 353.546 955.73 353.546C955.73 353.546 957.468 415.514 980.608 460.152C996.581 490.974 1018.58 505.477 1030.67 511.503C974.051 552.156 920.653 592.511 869.479 631.385C869.809 622.908 868.567 593.939 839.573 567.476C805.153 536.06 744.658 520.072 744.658 520.072C744.658 520.072 745.509 565.627 779.929 597.043C809.863 624.365 855.326 631.996 866.668 633.521L853.036 643.881L852.945 643.95L852.89 643.992C837.266 655.868 821.842 667.591 806.591 679.127C784.667 695.71 763.099 711.905 741.797 727.612C740.311 720.011 732.948 690.429 705.966 673.18C674.82 653.27 629.329 657.332 629.329 657.332C629.329 657.332 639.541 691.667 670.687 711.577C696.866 728.313 729.501 729.53 739.243 729.493C689.145 766.378 640.506 800.534 592.174 830.643C589.521 822.075 578.718 795.595 543.454 780.648C500.971 762.642 439.077 768.192 439.077 768.192C439.077 768.192 454.705 811.096 497.188 829.103C529.758 842.908 568.654 838.071 585.034 835.063C573.696 842.036 562.371 848.782 551.046 855.285C497.551 886.001 444.039 911.279 388.946 929.313C389.583 920.148 390.68 883.07 370.289 851.157C346.824 814.434 303.794 798.455 303.794 798.455C303.794 798.455 313.32 852.695 336.785 889.419C355.316 918.422 376.999 927.825 385.296 930.497C355.397 940.098 325.024 947.559 293.928 952.593C291.547 943.896 281.942 914.768 256.025 895.896C225.271 873.5 183.19 874.027 183.19 874.027C183.19 874.027 190.852 903.179 221.606 925.575C244.581 942.305 273.943 950.531 287.33 953.623C240.619 960.645 192.248 962.182 141.379 957.27C140.6 952.767 135.28 925.115 119.323 906.587C101.908 886.363 78.416 884.667 78.416 884.667C78.416 884.667 82.5527 916.711 99.9688 936.933C110.241 948.862 122.839 954.013 131.445 956.232C128.601 955.912 125.748 955.572 122.887 955.212L122.739 955.021L122.61 955.177C96.7295 951.908 70.1924 946.98 42.8936 940.271C42.4639 935.049 40.5 917.882 32.6445 905.78C23.2783 891.352 9.08398 889.588 9.08398 889.588C9.08398 889.588 10.4775 910.611 19.8438 925.04C23.8896 931.272 28.7607 935.255 32.9893 937.768C23.4482 935.289 13.8145 932.593 4.08301 929.677L3.22168 932.55C12.3398 935.283 21.373 937.822 30.3242 940.172C25.7939 941.384 20.4004 943.691 15.5264 948.061C4.3584 958.072 0.141602 975.119 0.141602 975.119C0.141602 975.119 14.3457 976.514 25.5146 966.503C33.5176 959.329 37.7891 948.245 39.5684 942.538ZM812.164 1849.81C795.222 1884.63 750.788 1915.85 750.788 1915.85C750.788 1915.85 744.13 1871.09 761.069 1836.27C778.009 1801.45 812.131 1789.76 812.131 1789.76C812.131 1789.76 829.1 1815 812.164 1849.81ZM1155.88 2128.66C1155.88 2128.66 1150.91 2117.54 1142.4 2103.37C1174.75 2108.9 1207.07 2099.96 1207.07 2099.96C1207.07 2099.96 1170.67 2059.66 1134.05 2047.09C1114.12 2040.25 1098.24 2043.03 1087.89 2046.99C1063.39 2036.11 1043.82 2044.38 1043.82 2044.38C1043.82 2044.38 1048.78 2080.11 1079.72 2103.38C1110.67 2126.65 1155.88 2128.66 1155.88 2128.66ZM494.752 1536.56C494.752 1536.56 547.983 1547.3 584.901 1535.63C607.571 1528.45 618.816 1514.49 624.12 1504.78C645.113 1504.19 657.533 1493.61 657.533 1493.61C657.533 1493.61 642.058 1461.03 605.546 1448.14C569.034 1435.25 525.312 1446.94 525.312 1446.94C525.312 1446.94 545.45 1469.62 570.868 1486.47C567.171 1487.12 563.39 1488.03 559.556 1489.24C522.64 1500.92 494.752 1536.56 494.752 1536.56ZM970.054 642.363C969.735 606.517 944.394 578.606 944.394 578.606C944.394 578.606 919.295 595.179 919.619 631.024C919.938 666.87 945.559 708.416 945.559 708.416C945.559 708.416 970.378 678.209 970.054 642.363Z" fill="#F3F0EF"/>
</svg>
